G75*
%MOIN*%
%OFA0B0*%
%FSLAX25Y25*%
%IPPOS*%
%LPD*%
%AMOC8*
5,1,8,0,0,1.08239X$1,22.5*
%
%ADD10C,0.10000*%
%ADD11C,0.18100*%
%ADD12OC8,0.18100*%
%ADD13R,0.05118X0.04134*%
%ADD14OC8,0.07000*%
%ADD15R,0.06600X0.06600*%
%ADD16OC8,0.06600*%
%ADD17R,0.07087X0.05512*%
%ADD18R,0.06693X0.07087*%
%ADD19R,0.07087X0.06693*%
%ADD20C,0.05150*%
%ADD21R,0.03937X0.05512*%
%ADD22R,0.05512X0.03937*%
%ADD23C,0.05937*%
%ADD24R,0.04134X0.05118*%
%ADD25R,0.06693X0.04921*%
%ADD26R,0.04921X0.06693*%
%ADD27OC8,0.07600*%
%ADD28R,0.08661X0.02362*%
%ADD29OC8,0.10000*%
%ADD30C,0.06600*%
%ADD31OC8,0.15000*%
%ADD32C,0.06600*%
%ADD33C,0.08268*%
%ADD34OC8,0.12400*%
%ADD35C,0.12400*%
%ADD36R,0.24409X0.21260*%
%ADD37R,0.06299X0.03937*%
%ADD38C,0.05600*%
%ADD39C,0.05000*%
%ADD40C,0.04000*%
%ADD41C,0.02400*%
%ADD42C,0.01600*%
%ADD43C,0.01200*%
%ADD44R,0.05906X0.05906*%
%ADD45C,0.03200*%
%ADD46C,0.01000*%
D10*
X0441792Y0013000D02*
X0441792Y0023000D01*
X0466092Y0068000D02*
X0466092Y0078000D01*
X0486092Y0078000D02*
X0486092Y0068000D01*
X0506092Y0068000D02*
X0506092Y0078000D01*
X0526092Y0078000D02*
X0526092Y0068000D01*
X0530392Y0023000D02*
X0530392Y0013000D01*
D11*
X0391092Y0088000D03*
D12*
X0391092Y0128000D03*
D13*
X0343592Y0155874D03*
X0343592Y0165126D03*
X0406092Y0190874D03*
X0416092Y0190874D03*
X0426092Y0190874D03*
X0426092Y0200126D03*
X0416092Y0200126D03*
X0406092Y0200126D03*
X0366092Y0203374D03*
X0366092Y0212626D03*
X0391092Y0263374D03*
X0391092Y0272626D03*
X0431092Y0272626D03*
X0431092Y0263374D03*
X0461092Y0288374D03*
X0461092Y0297626D03*
X0516092Y0227626D03*
X0516092Y0218374D03*
X0516092Y0202626D03*
X0516092Y0193374D03*
X0526092Y0193374D03*
X0526092Y0202626D03*
X0486092Y0200126D03*
X0486092Y0190874D03*
X0456092Y0190874D03*
X0456092Y0182626D03*
X0456092Y0173374D03*
X0456092Y0200126D03*
X0276092Y0142626D03*
X0276092Y0133374D03*
X0271092Y0155874D03*
X0271092Y0165126D03*
X0271092Y0173374D03*
X0271092Y0182626D03*
D14*
X0296092Y0137500D03*
X0211092Y0088000D03*
X0201092Y0093000D03*
X0201092Y0113000D03*
X0296092Y0048500D03*
X0281592Y0023000D03*
X0211092Y0018000D03*
X0370592Y0023000D03*
X0496092Y0093000D03*
X0521092Y0113000D03*
X0496092Y0163000D03*
X0521092Y0183000D03*
X0166092Y0198000D03*
X0126092Y0198000D03*
D15*
X0206092Y0148000D03*
X0376092Y0213000D03*
X0468592Y0190500D03*
X0491092Y0183000D03*
D16*
X0501092Y0183000D03*
X0468592Y0200500D03*
X0456092Y0288000D03*
X0456092Y0298000D03*
X0206092Y0193000D03*
X0196092Y0193000D03*
X0216092Y0148000D03*
X0506092Y0043000D03*
X0526092Y0043000D03*
D17*
X0486092Y0206307D03*
X0486092Y0219693D03*
D18*
X0261092Y0173571D03*
X0261092Y0157429D03*
X0246092Y0121071D03*
X0246092Y0104929D03*
X0276092Y0056071D03*
X0276092Y0039929D03*
D19*
X0189163Y0128000D03*
X0173021Y0128000D03*
X0173021Y0168000D03*
X0189163Y0168000D03*
D20*
X0346092Y0207850D02*
X0346092Y0213000D01*
X0356092Y0213000D02*
X0356092Y0207850D01*
X0356092Y0243000D02*
X0356092Y0248150D01*
X0346092Y0248150D02*
X0346092Y0243000D01*
D21*
X0527352Y0213669D03*
X0534832Y0213669D03*
X0531092Y0222331D03*
D22*
X0505423Y0213000D03*
X0496761Y0209260D03*
X0496761Y0216740D03*
D23*
X0264060Y0143000D02*
X0258123Y0143000D01*
X0258123Y0133000D02*
X0264060Y0133000D01*
X0264060Y0123000D02*
X0258123Y0123000D01*
X0258123Y0068000D02*
X0264060Y0068000D01*
X0264060Y0058000D02*
X0258123Y0058000D01*
X0258123Y0048000D02*
X0264060Y0048000D01*
D24*
X0250718Y0068000D03*
X0241466Y0068000D03*
X0496466Y0198000D03*
X0505718Y0198000D03*
X0430718Y0220500D03*
X0421466Y0220500D03*
X0421466Y0243000D03*
X0430718Y0243000D03*
X0430718Y0253000D03*
X0421466Y0253000D03*
X0410718Y0258000D03*
X0401466Y0258000D03*
D25*
X0406092Y0174988D03*
X0406092Y0161012D03*
X0286092Y0129988D03*
X0286092Y0116012D03*
D26*
X0253080Y0143000D03*
X0239104Y0143000D03*
D27*
X0316092Y0133000D03*
X0316092Y0093000D03*
X0316092Y0083000D03*
X0316092Y0043000D03*
D28*
X0328828Y0155500D03*
X0328828Y0160500D03*
X0328828Y0165500D03*
X0328828Y0170500D03*
X0328828Y0175500D03*
X0328828Y0180500D03*
X0328828Y0185500D03*
X0328828Y0190500D03*
X0293356Y0190500D03*
X0293356Y0185500D03*
X0293356Y0180500D03*
X0293356Y0175500D03*
X0293356Y0170500D03*
X0293356Y0165500D03*
X0293356Y0160500D03*
X0293356Y0155500D03*
X0400856Y0265500D03*
X0400856Y0270500D03*
X0400856Y0275500D03*
X0400856Y0280500D03*
X0421328Y0280500D03*
X0421328Y0275500D03*
X0421328Y0270500D03*
X0421328Y0265500D03*
D29*
X0161092Y0168000D03*
X0161092Y0148000D03*
X0161092Y0128000D03*
X0161092Y0108000D03*
X0161092Y0088000D03*
X0161092Y0068000D03*
X0161092Y0048000D03*
X0161092Y0028000D03*
X0041092Y0028000D03*
X0041092Y0048000D03*
X0041092Y0068000D03*
X0041092Y0088000D03*
X0041092Y0108000D03*
X0041092Y0128000D03*
X0041092Y0148000D03*
X0041092Y0168000D03*
D30*
X0376092Y0183000D03*
X0386092Y0183000D03*
X0396092Y0183000D03*
X0406092Y0183000D03*
X0416092Y0183000D03*
X0426092Y0183000D03*
X0436092Y0183000D03*
X0446092Y0183000D03*
X0446092Y0213000D03*
X0436092Y0213000D03*
X0426092Y0213000D03*
X0416092Y0213000D03*
X0406092Y0213000D03*
X0396092Y0213000D03*
X0386092Y0213000D03*
X0441092Y0263000D03*
X0434091Y0298716D03*
X0441092Y0303000D03*
X0414091Y0333357D03*
D31*
X0476009Y0317902D03*
X0496009Y0317902D03*
X0311009Y0247902D03*
X0291009Y0247902D03*
X0406175Y0018098D03*
X0426175Y0018098D03*
D32*
X0131092Y0229700D02*
X0131092Y0236300D01*
X0111092Y0236300D02*
X0111092Y0229700D01*
X0056092Y0229700D02*
X0056092Y0236300D01*
X0036092Y0236300D02*
X0036092Y0229700D01*
X0036092Y0279700D02*
X0036092Y0286300D01*
X0056092Y0286300D02*
X0056092Y0279700D01*
X0111092Y0279700D02*
X0111092Y0286300D01*
X0131092Y0286300D02*
X0131092Y0279700D01*
D33*
X0166392Y0257634D02*
X0166392Y0249366D01*
X0205792Y0249366D02*
X0205792Y0257634D01*
X0205792Y0308366D02*
X0205792Y0316634D01*
X0166392Y0316634D02*
X0166392Y0308366D01*
D34*
X0246092Y0288000D03*
X0311092Y0288000D03*
X0381092Y0288000D03*
D35*
X0381092Y0318000D03*
X0311092Y0318000D03*
X0246092Y0258000D03*
D36*
X0495934Y0293000D03*
D37*
X0467194Y0284024D03*
X0467194Y0301976D03*
D38*
X0460068Y0301976D01*
X0456092Y0298000D01*
X0456092Y0288000D02*
X0460068Y0284024D01*
X0467194Y0284024D01*
X0456092Y0288000D02*
X0381092Y0288000D01*
X0311092Y0288000D01*
X0311009Y0287917D01*
X0311009Y0247902D01*
X0291009Y0247902D02*
X0256190Y0247902D01*
X0246092Y0258000D01*
X0241592Y0253500D01*
X0205792Y0253500D01*
X0196092Y0288000D02*
X0246092Y0288000D01*
X0311092Y0288000D01*
X0311092Y0318000D02*
X0381092Y0318000D01*
X0385737Y0318000D01*
X0416092Y0318000D01*
X0414091Y0320000D01*
X0414091Y0333357D01*
X0416092Y0318000D02*
X0475910Y0318000D01*
X0476009Y0317902D01*
X0491107Y0333000D01*
X0516092Y0333000D01*
X0521092Y0328000D01*
X0521092Y0278000D01*
X0515718Y0272626D01*
X0431092Y0272626D01*
X0434091Y0298716D02*
X0435876Y0303000D01*
X0441092Y0303000D01*
X0495934Y0293000D02*
X0496009Y0293074D01*
X0496009Y0317902D01*
X0311092Y0318000D02*
X0211292Y0318000D01*
X0205792Y0312500D01*
X0166092Y0198000D02*
X0141092Y0173000D01*
X0141092Y0138000D01*
X0141092Y0103000D01*
X0141092Y0058000D01*
X0151092Y0048000D01*
X0201092Y0048000D01*
X0221092Y0068000D01*
X0221092Y0095500D01*
X0211092Y0088000D02*
X0206092Y0093000D01*
X0201092Y0093000D01*
X0186092Y0113000D02*
X0181092Y0108000D01*
X0181092Y0073000D01*
X0176092Y0068000D01*
X0161092Y0068000D01*
X0161092Y0028000D02*
X0201092Y0028000D01*
X0211092Y0018000D01*
X0276592Y0018000D01*
X0281592Y0023000D01*
X0296092Y0037500D01*
X0296092Y0048500D01*
X0276092Y0073000D02*
X0271092Y0068000D01*
X0261092Y0068000D01*
X0276092Y0073000D02*
X0276092Y0103000D01*
X0261092Y0113000D02*
X0251092Y0103000D01*
X0248592Y0100500D01*
X0248592Y0095500D01*
X0248021Y0103000D02*
X0251092Y0103000D01*
X0248021Y0103000D02*
X0246092Y0104929D01*
X0261092Y0113000D02*
X0261092Y0123000D01*
X0261092Y0133000D02*
X0253592Y0133000D01*
X0246092Y0125500D01*
X0246092Y0121071D01*
X0234163Y0121071D01*
X0231092Y0118000D01*
X0231092Y0068000D01*
X0231092Y0033000D01*
X0236092Y0028000D01*
X0246092Y0028000D01*
X0248021Y0028000D01*
X0256092Y0028000D01*
X0261092Y0033000D01*
X0261092Y0048000D01*
X0370592Y0023000D02*
X0391092Y0043500D01*
X0391092Y0088000D01*
X0406092Y0103000D01*
X0486092Y0103000D01*
X0496092Y0093000D01*
X0506092Y0073000D02*
X0506092Y0043000D01*
X0486092Y0048000D02*
X0486092Y0073000D01*
X0466092Y0073000D02*
X0451092Y0088000D01*
X0391092Y0088000D01*
X0401092Y0118000D02*
X0391092Y0128000D01*
X0396092Y0133000D01*
X0441092Y0133000D01*
X0491092Y0183000D01*
X0468592Y0183000D01*
X0501092Y0183000D02*
X0506092Y0178000D01*
X0516092Y0178000D01*
X0521092Y0183000D01*
X0496092Y0163000D02*
X0496092Y0143000D01*
X0521092Y0113000D01*
X0526092Y0088000D02*
X0496092Y0118000D01*
X0401092Y0118000D01*
X0391092Y0128000D02*
X0316092Y0128000D01*
X0314627Y0129464D01*
X0316092Y0128000D02*
X0305592Y0128000D01*
X0296092Y0137500D01*
X0231092Y0118000D02*
X0226092Y0113000D01*
X0201092Y0113000D01*
X0186092Y0113000D01*
X0189163Y0128000D02*
X0206092Y0128000D01*
X0216092Y0138000D01*
X0216092Y0148000D01*
X0216092Y0158000D01*
X0208592Y0165500D01*
X0206092Y0168000D01*
X0189163Y0168000D01*
X0173021Y0168000D02*
X0161092Y0168000D01*
X0161092Y0148000D02*
X0151092Y0148000D01*
X0141092Y0138000D01*
X0161092Y0128000D02*
X0173021Y0128000D01*
X0161092Y0148000D02*
X0206092Y0148000D01*
X0406175Y0028083D02*
X0416092Y0038000D01*
X0476092Y0038000D01*
X0486092Y0048000D01*
X0526092Y0043000D02*
X0530392Y0038700D01*
X0530392Y0018000D01*
X0441792Y0018000D02*
X0426092Y0018000D01*
X0426092Y0018015D01*
X0426175Y0018098D01*
X0406175Y0018098D02*
X0406175Y0028083D01*
X0526092Y0073000D02*
X0526092Y0088000D01*
D39*
X0391092Y0088000D02*
X0346092Y0088000D01*
X0316092Y0058000D01*
X0316092Y0043000D01*
X0316092Y0058000D02*
X0276092Y0058000D01*
X0261092Y0058000D01*
X0316092Y0083000D02*
X0316092Y0093000D01*
X0306092Y0113000D02*
X0376092Y0113000D01*
X0391092Y0128000D01*
X0316092Y0128000D02*
X0316092Y0133000D01*
X0306092Y0113000D02*
X0296092Y0123000D01*
X0276092Y0123000D01*
X0261092Y0123000D01*
X0276092Y0103000D02*
X0286092Y0116012D01*
X0208592Y0165500D02*
X0206092Y0168000D01*
X0206092Y0193000D01*
X0196092Y0193000D02*
X0161092Y0193000D01*
X0141092Y0173000D01*
X0126092Y0198000D02*
X0101092Y0173000D01*
X0101092Y0073000D01*
X0101092Y0053000D01*
X0096092Y0048000D01*
X0076092Y0048000D01*
X0036092Y0048000D01*
X0026092Y0058000D01*
X0026092Y0093000D01*
X0031092Y0098000D01*
X0041092Y0098000D01*
X0041092Y0108000D01*
X0041092Y0098000D02*
X0041092Y0088000D01*
X0041092Y0068000D02*
X0061092Y0068000D01*
X0076092Y0083000D01*
X0076092Y0168000D01*
X0076092Y0198000D01*
X0111092Y0233000D01*
X0131092Y0233000D02*
X0131092Y0243000D01*
X0131592Y0253500D01*
X0166392Y0253500D01*
X0186092Y0233000D02*
X0186092Y0278000D01*
X0196092Y0288000D01*
X0166392Y0312500D02*
X0165892Y0313000D01*
X0141092Y0313000D01*
X0076092Y0313000D01*
X0056092Y0293000D01*
X0056092Y0283000D01*
X0056092Y0233000D01*
X0036092Y0233000D02*
X0036092Y0173000D01*
X0041092Y0168000D01*
X0061092Y0138000D02*
X0061092Y0203000D01*
X0061092Y0208000D01*
X0111092Y0258000D01*
X0111092Y0283000D01*
X0131092Y0283000D02*
X0131092Y0243000D01*
X0136092Y0213000D02*
X0166092Y0213000D01*
X0186092Y0233000D01*
X0136092Y0213000D02*
X0126092Y0203000D01*
X0126092Y0198000D01*
X0061092Y0138000D02*
X0051092Y0128000D01*
X0041092Y0128000D01*
X0016092Y0038000D02*
X0016092Y0243000D01*
X0016092Y0263000D01*
X0036092Y0283000D01*
X0016092Y0038000D02*
X0026092Y0028000D01*
X0041092Y0028000D01*
D40*
X0256092Y0028000D02*
X0264163Y0028000D01*
X0276092Y0039929D01*
X0276092Y0056071D02*
X0276092Y0058000D01*
D41*
X0276092Y0123000D02*
X0276092Y0133374D01*
X0276092Y0142626D02*
X0275718Y0143000D01*
X0261092Y0143000D01*
X0253080Y0143000D01*
X0246092Y0138000D02*
X0251092Y0133000D01*
X0246092Y0125500D01*
X0246092Y0138000D02*
X0246092Y0163000D01*
X0248218Y0165126D01*
X0271092Y0165126D01*
X0258592Y0190500D02*
X0241092Y0173000D01*
X0239104Y0171012D01*
X0239104Y0143000D01*
X0258592Y0190500D02*
X0293356Y0190500D01*
X0391092Y0272626D02*
X0391092Y0278000D01*
X0381092Y0288000D01*
X0456092Y0288000D02*
X0460718Y0288000D01*
X0461092Y0288374D01*
X0461092Y0297626D02*
X0460718Y0298000D01*
X0456092Y0298000D01*
X0516092Y0193374D02*
X0521092Y0193374D01*
X0526092Y0193374D01*
X0491092Y0183000D02*
X0486092Y0188000D01*
X0486092Y0190874D01*
D42*
X0489340Y0190874D01*
X0496466Y0198000D01*
X0505718Y0198000D02*
X0521466Y0198000D01*
X0526092Y0202626D01*
X0534832Y0196740D02*
X0531092Y0193000D01*
X0526466Y0193000D01*
X0526092Y0193374D01*
X0521092Y0193374D02*
X0511466Y0193374D01*
X0501092Y0183000D01*
X0476092Y0198000D02*
X0473592Y0195500D01*
X0413592Y0195500D01*
X0396092Y0195500D01*
X0396092Y0193000D01*
X0406092Y0183000D01*
X0406092Y0174988D01*
X0396092Y0178000D02*
X0396092Y0183000D01*
X0396092Y0178000D02*
X0393592Y0175500D01*
X0341092Y0175500D01*
X0336092Y0180500D01*
X0328828Y0180500D01*
X0328828Y0185500D02*
X0326092Y0185500D01*
X0293356Y0185500D01*
X0273966Y0185500D01*
X0271092Y0182626D01*
X0276092Y0173000D02*
X0283218Y0180126D01*
X0283218Y0180500D01*
X0293356Y0180500D01*
X0276092Y0173000D02*
X0271466Y0173000D01*
X0271092Y0173374D01*
X0261289Y0173374D01*
X0261092Y0173571D01*
X0271092Y0165126D02*
X0271466Y0165500D01*
X0293356Y0165500D01*
X0293356Y0160500D02*
X0283592Y0160500D01*
X0278592Y0155500D01*
X0271466Y0155500D01*
X0271092Y0155874D01*
X0262647Y0155874D01*
X0261092Y0157429D01*
X0286092Y0153000D02*
X0288592Y0155500D01*
X0290580Y0155500D01*
X0291604Y0155500D01*
X0290580Y0155500D01*
X0288592Y0155500D01*
X0290580Y0155500D01*
X0291604Y0155500D01*
X0293356Y0155500D01*
X0286092Y0153000D02*
X0286092Y0129988D01*
X0295718Y0137874D02*
X0296092Y0137500D01*
X0321092Y0153000D02*
X0326092Y0148000D01*
X0341092Y0148000D01*
X0343592Y0150500D01*
X0343592Y0155874D01*
X0347706Y0161012D02*
X0343592Y0165126D01*
X0343218Y0165500D01*
X0328828Y0165500D01*
X0328828Y0170500D02*
X0351092Y0170500D01*
X0353592Y0168000D01*
X0416092Y0168000D01*
X0418592Y0170500D01*
X0426092Y0178000D01*
X0426092Y0183000D01*
X0436092Y0183000D02*
X0436092Y0188000D01*
X0433592Y0190500D01*
X0421092Y0190500D01*
X0426092Y0190874D01*
X0416092Y0190874D01*
X0406092Y0190874D01*
X0396092Y0195500D02*
X0391092Y0195500D01*
X0386092Y0190500D01*
X0386092Y0183000D01*
X0376092Y0183000D02*
X0366092Y0193000D01*
X0366092Y0198000D01*
X0351092Y0198000D01*
X0346092Y0203000D01*
X0346092Y0213000D01*
X0356092Y0213000D02*
X0361092Y0208000D01*
X0371092Y0208000D01*
X0376092Y0213000D01*
X0388966Y0200126D01*
X0406092Y0200126D01*
X0413592Y0205500D02*
X0416092Y0203000D01*
X0416092Y0200126D01*
X0413592Y0205500D02*
X0388592Y0205500D01*
X0386092Y0208000D01*
X0386092Y0213000D01*
X0386092Y0218000D01*
X0383592Y0220500D01*
X0368592Y0220500D01*
X0366092Y0218000D01*
X0366092Y0212626D01*
X0366092Y0203374D02*
X0366092Y0198000D01*
X0326092Y0185500D02*
X0323592Y0185500D01*
X0321092Y0183000D01*
X0321092Y0153000D01*
X0341092Y0148000D02*
X0411092Y0148000D01*
X0430718Y0148000D01*
X0456092Y0173374D01*
X0456466Y0173000D01*
X0466092Y0173000D01*
X0468592Y0175500D01*
X0468592Y0183000D01*
X0468592Y0190500D01*
X0456466Y0190500D01*
X0456092Y0190874D01*
X0456092Y0182626D02*
X0446466Y0182626D01*
X0446092Y0183000D01*
X0436092Y0183000D02*
X0436092Y0178000D01*
X0438966Y0175126D01*
X0456092Y0175126D01*
X0456092Y0173374D01*
X0421092Y0190500D02*
X0418592Y0190500D01*
X0416092Y0188000D01*
X0416092Y0183000D01*
X0426092Y0200126D02*
X0426092Y0203000D01*
X0416092Y0213000D01*
X0416092Y0215126D01*
X0421466Y0220500D01*
X0430718Y0220500D02*
X0436092Y0215126D01*
X0436092Y0213000D01*
X0426092Y0213000D02*
X0436092Y0203000D01*
X0453218Y0203000D01*
X0456092Y0200126D01*
X0468592Y0200500D02*
X0468592Y0210500D01*
X0466092Y0213000D01*
X0446092Y0213000D01*
X0476092Y0223000D02*
X0482785Y0223000D01*
X0486092Y0219693D01*
X0494025Y0227626D01*
X0516092Y0227626D01*
X0525797Y0227626D01*
X0531092Y0222331D01*
X0534832Y0213669D02*
X0534832Y0196740D01*
X0527135Y0213669D02*
X0516092Y0202626D01*
X0505718Y0213000D01*
X0505423Y0213000D01*
X0497352Y0216740D02*
X0496761Y0216740D01*
X0496092Y0217409D01*
X0496092Y0218000D01*
X0501092Y0223000D01*
X0511092Y0223000D01*
X0515718Y0218374D01*
X0516092Y0218374D01*
X0527135Y0213669D02*
X0527352Y0213669D01*
X0496761Y0209260D02*
X0493808Y0206307D01*
X0486328Y0206307D01*
X0486092Y0206307D01*
X0486092Y0200126D01*
X0426092Y0238000D02*
X0426092Y0243000D01*
X0426092Y0258000D01*
X0421328Y0262764D01*
X0421328Y0265500D01*
X0421328Y0270500D02*
X0411092Y0270500D01*
X0410718Y0270126D01*
X0410718Y0258000D01*
X0406092Y0253000D02*
X0421466Y0253000D01*
X0430718Y0253000D02*
X0430718Y0263000D01*
X0431092Y0263374D01*
X0441092Y0263000D02*
X0441092Y0248000D01*
X0436092Y0243000D01*
X0430718Y0243000D01*
X0426092Y0238000D02*
X0421092Y0238000D01*
X0361092Y0238000D01*
X0356092Y0243000D01*
X0346092Y0243000D02*
X0346092Y0248000D01*
X0351092Y0253000D01*
X0366092Y0253000D01*
X0376092Y0243000D01*
X0421466Y0243000D01*
X0406092Y0253000D02*
X0401466Y0257626D01*
X0401466Y0258000D01*
X0401466Y0264890D01*
X0400856Y0265500D01*
X0393218Y0265500D01*
X0391092Y0263374D01*
X0400856Y0270500D02*
X0411092Y0270500D01*
X0411092Y0273000D01*
X0413592Y0275500D01*
X0421328Y0275500D01*
X0411092Y0273000D02*
X0408592Y0275500D01*
X0400856Y0275500D01*
X0393966Y0275500D01*
X0391092Y0272626D01*
X0321092Y0183000D02*
X0321092Y0178000D01*
X0323592Y0175500D01*
X0328828Y0175500D01*
X0347706Y0161012D02*
X0406092Y0161012D01*
D43*
X0501092Y0202626D02*
X0505718Y0198000D01*
X0501092Y0202626D02*
X0501092Y0213000D01*
X0497352Y0216740D01*
D44*
X0248592Y0095500D03*
X0221092Y0095500D03*
D45*
X0231092Y0068000D02*
X0241466Y0068000D01*
X0250718Y0068000D02*
X0261092Y0068000D01*
X0248021Y0028000D02*
X0246092Y0028000D01*
X0216092Y0158000D02*
X0216092Y0173000D01*
X0271092Y0228000D01*
X0471092Y0228000D01*
X0476092Y0223000D01*
X0476092Y0198000D01*
X0473592Y0195500D01*
D46*
X0541092Y0003000D02*
X0006092Y0003000D01*
X0541092Y0003000D01*
X0541092Y0209515D01*
X0540615Y0208364D01*
X0540132Y0207881D01*
X0540132Y0195686D01*
X0539325Y0193738D01*
X0534094Y0188507D01*
X0532146Y0187700D01*
X0531408Y0187700D01*
X0531200Y0187492D01*
X0529546Y0186807D01*
X0528598Y0186807D01*
X0529092Y0186314D01*
X0529092Y0179686D01*
X0524406Y0175000D01*
X0523416Y0175000D01*
X0522280Y0173865D01*
X0520227Y0171811D01*
X0517544Y0170700D01*
X0504640Y0170700D01*
X0501957Y0171811D01*
X0498568Y0175200D01*
X0497861Y0175200D01*
X0497058Y0176003D01*
X0496941Y0175885D01*
X0495287Y0175200D01*
X0493616Y0175200D01*
X0447280Y0128865D01*
X0447280Y0128865D01*
X0445227Y0126811D01*
X0442544Y0125700D01*
X0404642Y0125700D01*
X0404642Y0125300D01*
X0497544Y0125300D01*
X0500227Y0124189D01*
X0512458Y0111957D01*
X0490696Y0138072D01*
X0489903Y0138865D01*
X0489773Y0139180D01*
X0489554Y0139442D01*
X0489221Y0140512D01*
X0488792Y0141548D01*
X0488792Y0141889D01*
X0488690Y0142215D01*
X0488792Y0143331D01*
X0488792Y0158986D01*
X0488092Y0159686D01*
X0488092Y0166314D01*
X0492778Y0171000D01*
X0499406Y0171000D01*
X0504092Y0166314D01*
X0504092Y0159686D01*
X0503392Y0158986D01*
X0503392Y0145643D01*
X0523928Y0121000D01*
X0524406Y0121000D01*
X0529092Y0116314D01*
X0529092Y0109686D01*
X0524406Y0105000D01*
X0519416Y0105000D01*
X0532280Y0092135D01*
X0533392Y0089452D01*
X0533392Y0084135D01*
X0534146Y0083381D01*
X0535592Y0079890D01*
X0535592Y0066110D01*
X0534146Y0062619D01*
X0531473Y0059946D01*
X0527982Y0058500D01*
X0524202Y0058500D01*
X0520711Y0059946D01*
X0518038Y0062619D01*
X0516592Y0066110D01*
X0516592Y0079890D01*
X0518038Y0083381D01*
X0518792Y0084135D01*
X0518792Y0084976D01*
X0493068Y0110700D01*
X0399640Y0110700D01*
X0396957Y0111811D01*
X0394318Y0114450D01*
X0387441Y0114450D01*
X0380057Y0107066D01*
X0377484Y0106000D01*
X0304699Y0106000D01*
X0302127Y0107066D01*
X0300158Y0109035D01*
X0293938Y0115254D01*
X0293938Y0112656D01*
X0293253Y0111002D01*
X0291987Y0109736D01*
X0290333Y0109051D01*
X0289571Y0109051D01*
X0283392Y0101011D01*
X0283392Y0071548D01*
X0282280Y0068865D01*
X0280227Y0066811D01*
X0278416Y0065000D01*
X0313192Y0065000D01*
X0340158Y0091965D01*
X0342127Y0093934D01*
X0344699Y0095000D01*
X0379487Y0095000D01*
X0380249Y0096320D01*
X0382772Y0098843D01*
X0385862Y0100627D01*
X0389308Y0101550D01*
X0392876Y0101550D01*
X0394013Y0101245D01*
X0401957Y0109189D01*
X0404640Y0110300D01*
X0487544Y0110300D01*
X0490227Y0109189D01*
X0492280Y0107135D01*
X0498416Y0101000D01*
X0499406Y0101000D01*
X0504092Y0096314D01*
X0504092Y0089686D01*
X0499406Y0085000D01*
X0492778Y0085000D01*
X0488092Y0089686D01*
X0488092Y0090676D01*
X0483068Y0095700D01*
X0409116Y0095700D01*
X0408716Y0095300D01*
X0452544Y0095300D01*
X0455227Y0094189D01*
X0462585Y0086830D01*
X0464202Y0087500D01*
X0467982Y0087500D01*
X0471473Y0086054D01*
X0474146Y0083381D01*
X0475592Y0079890D01*
X0475592Y0066110D01*
X0474146Y0062619D01*
X0471473Y0059946D01*
X0467982Y0058500D01*
X0464202Y0058500D01*
X0460711Y0059946D01*
X0458038Y0062619D01*
X0456592Y0066110D01*
X0456592Y0072176D01*
X0448068Y0080700D01*
X0402523Y0080700D01*
X0401935Y0079680D01*
X0399412Y0077157D01*
X0398392Y0076568D01*
X0398392Y0042048D01*
X0397280Y0039365D01*
X0395227Y0037311D01*
X0378592Y0020676D01*
X0378592Y0019686D01*
X0373906Y0015000D01*
X0367278Y0015000D01*
X0362592Y0019686D01*
X0362592Y0026314D01*
X0367278Y0031000D01*
X0368268Y0031000D01*
X0383792Y0046524D01*
X0383792Y0076568D01*
X0382772Y0077157D01*
X0380249Y0079680D01*
X0379487Y0081000D01*
X0348991Y0081000D01*
X0323092Y0055101D01*
X0323092Y0050538D01*
X0323529Y0052168D01*
X0324950Y0054631D01*
X0326961Y0056642D01*
X0329424Y0058063D01*
X0332170Y0058799D01*
X0335014Y0058799D01*
X0337760Y0058063D01*
X0340223Y0056642D01*
X0342233Y0054631D01*
X0343655Y0052168D01*
X0344391Y0049422D01*
X0344391Y0046578D01*
X0343655Y0043832D01*
X0342233Y0041369D01*
X0340223Y0039358D01*
X0337760Y0037937D01*
X0335014Y0037201D01*
X0332170Y0037201D01*
X0329424Y0037937D01*
X0326961Y0039358D01*
X0324950Y0041369D01*
X0324392Y0042336D01*
X0324392Y0039562D01*
X0319530Y0034700D01*
X0312654Y0034700D01*
X0307792Y0039562D01*
X0307792Y0046438D01*
X0309092Y0047738D01*
X0309092Y0051000D01*
X0304092Y0051000D01*
X0304092Y0045186D01*
X0303392Y0044486D01*
X0303392Y0036048D01*
X0302280Y0033365D01*
X0300227Y0031311D01*
X0289592Y0020676D01*
X0289592Y0019686D01*
X0284906Y0015000D01*
X0283916Y0015000D01*
X0282780Y0013865D01*
X0280727Y0011811D01*
X0278044Y0010700D01*
X0215106Y0010700D01*
X0214406Y0010000D01*
X0207778Y0010000D01*
X0203092Y0014686D01*
X0203092Y0015676D01*
X0198068Y0020700D01*
X0167227Y0020700D01*
X0165027Y0018500D01*
X0157157Y0018500D01*
X0151592Y0024065D01*
X0151592Y0031935D01*
X0157157Y0037500D01*
X0165027Y0037500D01*
X0167227Y0035300D01*
X0202544Y0035300D01*
X0205227Y0034189D01*
X0213416Y0026000D01*
X0214406Y0026000D01*
X0215106Y0025300D01*
X0228468Y0025300D01*
X0226957Y0026811D01*
X0224903Y0028865D01*
X0223792Y0031548D01*
X0223792Y0060376D01*
X0205227Y0041811D01*
X0202544Y0040700D01*
X0167227Y0040700D01*
X0165027Y0038500D01*
X0157157Y0038500D01*
X0154957Y0040700D01*
X0149640Y0040700D01*
X0146957Y0041811D01*
X0144903Y0043865D01*
X0134903Y0053865D01*
X0133792Y0056548D01*
X0133792Y0174452D01*
X0134903Y0177135D01*
X0136957Y0179189D01*
X0158092Y0200324D01*
X0158092Y0201314D01*
X0162778Y0206000D01*
X0169406Y0206000D01*
X0174092Y0201314D01*
X0174092Y0200000D01*
X0192061Y0200000D01*
X0192861Y0200800D01*
X0199323Y0200800D01*
X0201092Y0199031D01*
X0202861Y0200800D01*
X0209323Y0200800D01*
X0213892Y0196231D01*
X0213892Y0189769D01*
X0213092Y0188969D01*
X0213092Y0178627D01*
X0265921Y0231455D01*
X0267636Y0233171D01*
X0269878Y0234100D01*
X0357497Y0234100D01*
X0355671Y0235925D01*
X0354685Y0235925D01*
X0352084Y0237002D01*
X0351092Y0237995D01*
X0350099Y0237002D01*
X0347499Y0235925D01*
X0344685Y0235925D01*
X0342084Y0237002D01*
X0340094Y0238992D01*
X0339017Y0241593D01*
X0339017Y0249557D01*
X0340094Y0252157D01*
X0342084Y0254147D01*
X0344685Y0255224D01*
X0345821Y0255224D01*
X0348090Y0257493D01*
X0350038Y0258300D01*
X0367146Y0258300D01*
X0369094Y0257493D01*
X0370585Y0256002D01*
X0378287Y0248300D01*
X0403589Y0248300D01*
X0403090Y0248507D01*
X0401599Y0249998D01*
X0400656Y0250941D01*
X0398504Y0250941D01*
X0396850Y0251626D01*
X0395584Y0252892D01*
X0394899Y0254546D01*
X0394899Y0256953D01*
X0394546Y0256807D01*
X0387638Y0256807D01*
X0385984Y0257492D01*
X0384718Y0258758D01*
X0384033Y0260412D01*
X0384033Y0266336D01*
X0384718Y0267990D01*
X0384728Y0268000D01*
X0384718Y0268010D01*
X0384033Y0269664D01*
X0384033Y0275588D01*
X0384446Y0276585D01*
X0383731Y0277300D01*
X0376660Y0277300D01*
X0373260Y0280700D01*
X0318924Y0280700D01*
X0318309Y0280085D01*
X0318309Y0257572D01*
X0323009Y0252872D01*
X0323009Y0242931D01*
X0315979Y0235902D01*
X0306038Y0235902D01*
X0301009Y0240931D01*
X0295979Y0235902D01*
X0286038Y0235902D01*
X0281338Y0240602D01*
X0254738Y0240602D01*
X0252055Y0241713D01*
X0246468Y0247300D01*
X0245700Y0247300D01*
X0243044Y0246200D01*
X0213826Y0246200D01*
X0213111Y0244475D01*
X0210683Y0242047D01*
X0207509Y0240732D01*
X0204074Y0240732D01*
X0200901Y0242047D01*
X0198472Y0244475D01*
X0197158Y0247649D01*
X0197158Y0259351D01*
X0198472Y0262525D01*
X0200901Y0264953D01*
X0204074Y0266268D01*
X0207509Y0266268D01*
X0210683Y0264953D01*
X0213111Y0262525D01*
X0213826Y0260800D01*
X0235765Y0260800D01*
X0236121Y0262130D01*
X0237530Y0264570D01*
X0239522Y0266562D01*
X0241962Y0267971D01*
X0244683Y0268700D01*
X0247501Y0268700D01*
X0250222Y0267971D01*
X0252662Y0266562D01*
X0254654Y0264570D01*
X0256063Y0262130D01*
X0256792Y0259409D01*
X0256792Y0257624D01*
X0259214Y0255202D01*
X0281338Y0255202D01*
X0286038Y0259902D01*
X0295979Y0259902D01*
X0301009Y0254872D01*
X0303709Y0257572D01*
X0303709Y0280251D01*
X0303260Y0280700D01*
X0253924Y0280700D01*
X0250524Y0277300D01*
X0241660Y0277300D01*
X0238260Y0280700D01*
X0198691Y0280700D01*
X0193092Y0275101D01*
X0193092Y0231608D01*
X0192026Y0229035D01*
X0190057Y0227066D01*
X0170057Y0207066D01*
X0167484Y0206000D01*
X0138991Y0206000D01*
X0134092Y0201101D01*
X0134092Y0194686D01*
X0129406Y0190000D01*
X0127991Y0190000D01*
X0108092Y0170101D01*
X0108092Y0051608D01*
X0107026Y0049035D01*
X0102026Y0044035D01*
X0100057Y0042066D01*
X0097484Y0041000D01*
X0047527Y0041000D01*
X0045027Y0038500D01*
X0037157Y0038500D01*
X0034627Y0041030D01*
X0032127Y0042066D01*
X0030158Y0044035D01*
X0023092Y0051101D01*
X0023092Y0040899D01*
X0028991Y0035000D01*
X0034657Y0035000D01*
X0037157Y0037500D01*
X0045027Y0037500D01*
X0050592Y0031935D01*
X0050592Y0024065D01*
X0045027Y0018500D01*
X0037157Y0018500D01*
X0034657Y0021000D01*
X0024699Y0021000D01*
X0022127Y0022066D01*
X0012127Y0032066D01*
X0010158Y0034035D01*
X0009092Y0036608D01*
X0009092Y0264392D01*
X0010158Y0266965D01*
X0028292Y0285099D01*
X0028292Y0287852D01*
X0029479Y0290718D01*
X0031674Y0292913D01*
X0034540Y0294100D01*
X0037643Y0294100D01*
X0040510Y0292913D01*
X0042704Y0290718D01*
X0043892Y0287852D01*
X0043892Y0278148D01*
X0042704Y0275282D01*
X0040510Y0273087D01*
X0037643Y0271900D01*
X0034891Y0271900D01*
X0023092Y0260101D01*
X0023092Y0099899D01*
X0025158Y0101965D01*
X0027127Y0103934D01*
X0029699Y0105000D01*
X0031592Y0105000D01*
X0031592Y0111935D01*
X0037157Y0117500D01*
X0045027Y0117500D01*
X0050592Y0111935D01*
X0050592Y0104065D01*
X0048092Y0101565D01*
X0048092Y0094435D01*
X0050592Y0091935D01*
X0050592Y0084065D01*
X0045027Y0078500D01*
X0037157Y0078500D01*
X0033092Y0082565D01*
X0033092Y0073435D01*
X0037157Y0077500D01*
X0045027Y0077500D01*
X0047527Y0075000D01*
X0058192Y0075000D01*
X0069092Y0085899D01*
X0069092Y0199392D01*
X0070158Y0201965D01*
X0103292Y0235099D01*
X0103292Y0237852D01*
X0104479Y0240718D01*
X0106674Y0242913D01*
X0109540Y0244100D01*
X0112643Y0244100D01*
X0115510Y0242913D01*
X0117704Y0240718D01*
X0118892Y0237852D01*
X0118892Y0228148D01*
X0117704Y0225282D01*
X0115510Y0223087D01*
X0112643Y0221900D01*
X0109891Y0221900D01*
X0083092Y0195101D01*
X0083092Y0081608D01*
X0082026Y0079035D01*
X0080057Y0077066D01*
X0065057Y0062066D01*
X0062484Y0061000D01*
X0047527Y0061000D01*
X0045027Y0058500D01*
X0037157Y0058500D01*
X0033092Y0062565D01*
X0033092Y0060899D01*
X0036824Y0057167D01*
X0037157Y0057500D01*
X0045027Y0057500D01*
X0047527Y0055000D01*
X0093192Y0055000D01*
X0094092Y0055899D01*
X0094092Y0174392D01*
X0095158Y0176965D01*
X0097127Y0178934D01*
X0118092Y0199899D01*
X0118092Y0201314D01*
X0119092Y0202314D01*
X0119092Y0204392D01*
X0120158Y0206965D01*
X0130158Y0216965D01*
X0132127Y0218934D01*
X0134699Y0220000D01*
X0163192Y0220000D01*
X0179092Y0235899D01*
X0179092Y0279392D01*
X0180158Y0281965D01*
X0189603Y0291411D01*
X0189903Y0292135D01*
X0191957Y0294189D01*
X0194640Y0295300D01*
X0238260Y0295300D01*
X0241660Y0298700D01*
X0250524Y0298700D01*
X0253924Y0295300D01*
X0303260Y0295300D01*
X0306660Y0298700D01*
X0315524Y0298700D01*
X0318924Y0295300D01*
X0373260Y0295300D01*
X0376660Y0298700D01*
X0385524Y0298700D01*
X0388924Y0295300D01*
X0427063Y0295300D01*
X0426291Y0297164D01*
X0426291Y0300267D01*
X0427479Y0303134D01*
X0428413Y0304068D01*
X0429135Y0305802D01*
X0429687Y0307135D01*
X0429692Y0307140D01*
X0429695Y0307147D01*
X0430719Y0308167D01*
X0431741Y0309189D01*
X0431748Y0309191D01*
X0431753Y0309197D01*
X0433088Y0309747D01*
X0434424Y0310300D01*
X0434431Y0310300D01*
X0434438Y0310303D01*
X0435884Y0310300D01*
X0438333Y0310300D01*
X0439299Y0310700D01*
X0388924Y0310700D01*
X0387662Y0309438D01*
X0385222Y0308029D01*
X0382501Y0307300D01*
X0379683Y0307300D01*
X0376962Y0308029D01*
X0374522Y0309438D01*
X0373260Y0310700D01*
X0318924Y0310700D01*
X0317662Y0309438D01*
X0315222Y0308029D01*
X0312501Y0307300D01*
X0309683Y0307300D01*
X0306962Y0308029D01*
X0304522Y0309438D01*
X0303260Y0310700D01*
X0214426Y0310700D01*
X0214426Y0306649D01*
X0213111Y0303475D01*
X0210683Y0301047D01*
X0207509Y0299732D01*
X0204074Y0299732D01*
X0200901Y0301047D01*
X0198472Y0303475D01*
X0197158Y0306649D01*
X0197158Y0318351D01*
X0198472Y0321525D01*
X0200901Y0323953D01*
X0204074Y0325268D01*
X0207509Y0325268D01*
X0208636Y0324801D01*
X0209840Y0325300D01*
X0303260Y0325300D01*
X0304522Y0326562D01*
X0306962Y0327971D01*
X0309683Y0328700D01*
X0312501Y0328700D01*
X0315222Y0327971D01*
X0317662Y0326562D01*
X0318924Y0325300D01*
X0373260Y0325300D01*
X0374522Y0326562D01*
X0376962Y0327971D01*
X0379683Y0328700D01*
X0382501Y0328700D01*
X0385222Y0327971D01*
X0387662Y0326562D01*
X0388924Y0325300D01*
X0406791Y0325300D01*
X0406791Y0330598D01*
X0406291Y0331805D01*
X0406291Y0334908D01*
X0407479Y0337775D01*
X0409673Y0339969D01*
X0412540Y0341157D01*
X0415643Y0341157D01*
X0418510Y0339969D01*
X0420704Y0337775D01*
X0421891Y0334908D01*
X0421891Y0331805D01*
X0421391Y0330598D01*
X0421391Y0325300D01*
X0466437Y0325300D01*
X0471038Y0329902D01*
X0477685Y0329902D01*
X0486972Y0339189D01*
X0489655Y0340300D01*
X0517544Y0340300D01*
X0520227Y0339189D01*
X0522280Y0337135D01*
X0527280Y0332135D01*
X0528392Y0329452D01*
X0528392Y0276548D01*
X0527280Y0273865D01*
X0525227Y0271811D01*
X0519853Y0266437D01*
X0517170Y0265326D01*
X0448571Y0265326D01*
X0448892Y0264552D01*
X0448892Y0261448D01*
X0447704Y0258582D01*
X0446392Y0257269D01*
X0446392Y0246946D01*
X0445585Y0244998D01*
X0444094Y0243507D01*
X0439094Y0238507D01*
X0437146Y0237700D01*
X0436408Y0237700D01*
X0435334Y0236626D01*
X0433680Y0235941D01*
X0430976Y0235941D01*
X0430585Y0234998D01*
X0429687Y0234100D01*
X0472305Y0234100D01*
X0474547Y0233171D01*
X0479419Y0228300D01*
X0483839Y0228300D01*
X0485787Y0227493D01*
X0486092Y0227188D01*
X0491023Y0232119D01*
X0492971Y0232926D01*
X0510402Y0232926D01*
X0510984Y0233508D01*
X0512638Y0234193D01*
X0519546Y0234193D01*
X0521200Y0233508D01*
X0521782Y0232926D01*
X0526851Y0232926D01*
X0528799Y0232119D01*
X0531331Y0229587D01*
X0533955Y0229587D01*
X0535609Y0228902D01*
X0536875Y0227636D01*
X0537560Y0225982D01*
X0537560Y0220925D01*
X0537696Y0220925D01*
X0539350Y0220240D01*
X0540615Y0218974D01*
X0541092Y0217824D01*
X0541092Y0343000D01*
X0006092Y0343000D01*
X0006092Y0003000D01*
X0006092Y0003999D02*
X0438699Y0003999D01*
X0439902Y0003500D02*
X0436411Y0004946D01*
X0433738Y0007619D01*
X0433424Y0008377D01*
X0431145Y0006098D01*
X0421204Y0006098D01*
X0416175Y0011128D01*
X0411145Y0006098D01*
X0401204Y0006098D01*
X0394175Y0013128D01*
X0394175Y0023069D01*
X0398875Y0027769D01*
X0398875Y0029535D01*
X0399986Y0032218D01*
X0409903Y0042135D01*
X0411957Y0044189D01*
X0414640Y0045300D01*
X0473068Y0045300D01*
X0478792Y0051024D01*
X0478792Y0061865D01*
X0478038Y0062619D01*
X0476592Y0066110D01*
X0476592Y0079890D01*
X0478038Y0083381D01*
X0480711Y0086054D01*
X0484202Y0087500D01*
X0487982Y0087500D01*
X0491473Y0086054D01*
X0494146Y0083381D01*
X0495592Y0079890D01*
X0495592Y0066110D01*
X0494146Y0062619D01*
X0493392Y0061865D01*
X0493392Y0046548D01*
X0492280Y0043865D01*
X0490227Y0041811D01*
X0482280Y0033865D01*
X0482280Y0033865D01*
X0480227Y0031811D01*
X0477544Y0030700D01*
X0447527Y0030700D01*
X0449846Y0028381D01*
X0451292Y0024890D01*
X0451292Y0011110D01*
X0449846Y0007619D01*
X0447173Y0004946D01*
X0443682Y0003500D01*
X0439902Y0003500D01*
X0436360Y0004997D02*
X0006092Y0004997D01*
X0006092Y0005996D02*
X0435361Y0005996D01*
X0434363Y0006994D02*
X0432041Y0006994D01*
X0433040Y0007993D02*
X0433583Y0007993D01*
X0444885Y0003999D02*
X0527299Y0003999D01*
X0528502Y0003500D02*
X0525011Y0004946D01*
X0522338Y0007619D01*
X0520892Y0011110D01*
X0520892Y0024890D01*
X0522338Y0028381D01*
X0523092Y0029135D01*
X0523092Y0035200D01*
X0522861Y0035200D01*
X0518292Y0039769D01*
X0518292Y0046231D01*
X0522861Y0050800D01*
X0529323Y0050800D01*
X0533892Y0046231D01*
X0533892Y0045524D01*
X0536580Y0042835D01*
X0537692Y0040152D01*
X0537692Y0029135D01*
X0538446Y0028381D01*
X0539892Y0024890D01*
X0539892Y0011110D01*
X0538446Y0007619D01*
X0535773Y0004946D01*
X0532282Y0003500D01*
X0528502Y0003500D01*
X0524960Y0004997D02*
X0447224Y0004997D01*
X0448222Y0005996D02*
X0523961Y0005996D01*
X0522963Y0006994D02*
X0449221Y0006994D01*
X0450000Y0007993D02*
X0522183Y0007993D01*
X0521770Y0008991D02*
X0450414Y0008991D01*
X0450828Y0009990D02*
X0521356Y0009990D01*
X0520943Y0010988D02*
X0451241Y0010988D01*
X0451292Y0011987D02*
X0520892Y0011987D01*
X0520892Y0012985D02*
X0451292Y0012985D01*
X0451292Y0013984D02*
X0520892Y0013984D01*
X0520892Y0014982D02*
X0451292Y0014982D01*
X0451292Y0015981D02*
X0520892Y0015981D01*
X0520892Y0016979D02*
X0451292Y0016979D01*
X0451292Y0017978D02*
X0520892Y0017978D01*
X0520892Y0018976D02*
X0451292Y0018976D01*
X0451292Y0019975D02*
X0520892Y0019975D01*
X0520892Y0020973D02*
X0451292Y0020973D01*
X0451292Y0021972D02*
X0520892Y0021972D01*
X0520892Y0022970D02*
X0451292Y0022970D01*
X0451292Y0023969D02*
X0520892Y0023969D01*
X0520924Y0024967D02*
X0451260Y0024967D01*
X0450846Y0025966D02*
X0521338Y0025966D01*
X0521751Y0026964D02*
X0450433Y0026964D01*
X0450019Y0027963D02*
X0522165Y0027963D01*
X0522918Y0028961D02*
X0449266Y0028961D01*
X0448267Y0029960D02*
X0523092Y0029960D01*
X0523092Y0030958D02*
X0478168Y0030958D01*
X0480372Y0031957D02*
X0523092Y0031957D01*
X0523092Y0032955D02*
X0481371Y0032955D01*
X0482369Y0033954D02*
X0523092Y0033954D01*
X0523092Y0034952D02*
X0483368Y0034952D01*
X0484366Y0035951D02*
X0502110Y0035951D01*
X0502861Y0035200D02*
X0498292Y0039769D01*
X0498292Y0046231D01*
X0498792Y0046731D01*
X0498792Y0061865D01*
X0498038Y0062619D01*
X0496592Y0066110D01*
X0496592Y0079890D01*
X0498038Y0083381D01*
X0500711Y0086054D01*
X0504202Y0087500D01*
X0507982Y0087500D01*
X0511473Y0086054D01*
X0514146Y0083381D01*
X0515592Y0079890D01*
X0515592Y0066110D01*
X0514146Y0062619D01*
X0513392Y0061865D01*
X0513392Y0046731D01*
X0513892Y0046231D01*
X0513892Y0039769D01*
X0509323Y0035200D01*
X0502861Y0035200D01*
X0501112Y0036949D02*
X0485365Y0036949D01*
X0486364Y0037948D02*
X0500113Y0037948D01*
X0499115Y0038946D02*
X0487362Y0038946D01*
X0488361Y0039945D02*
X0498292Y0039945D01*
X0498292Y0040943D02*
X0489359Y0040943D01*
X0490227Y0041811D02*
X0490227Y0041811D01*
X0490358Y0041942D02*
X0498292Y0041942D01*
X0498292Y0042940D02*
X0491356Y0042940D01*
X0492311Y0043939D02*
X0498292Y0043939D01*
X0498292Y0044937D02*
X0492725Y0044937D01*
X0493138Y0045936D02*
X0498292Y0045936D01*
X0498792Y0046934D02*
X0493392Y0046934D01*
X0493392Y0047933D02*
X0498792Y0047933D01*
X0498792Y0048932D02*
X0493392Y0048932D01*
X0493392Y0049930D02*
X0498792Y0049930D01*
X0498792Y0050929D02*
X0493392Y0050929D01*
X0493392Y0051927D02*
X0498792Y0051927D01*
X0498792Y0052926D02*
X0493392Y0052926D01*
X0493392Y0053924D02*
X0498792Y0053924D01*
X0498792Y0054923D02*
X0493392Y0054923D01*
X0493392Y0055921D02*
X0498792Y0055921D01*
X0498792Y0056920D02*
X0493392Y0056920D01*
X0493392Y0057918D02*
X0498792Y0057918D01*
X0498792Y0058917D02*
X0493392Y0058917D01*
X0493392Y0059915D02*
X0498792Y0059915D01*
X0498792Y0060914D02*
X0493392Y0060914D01*
X0493439Y0061912D02*
X0498745Y0061912D01*
X0497917Y0062911D02*
X0494267Y0062911D01*
X0494680Y0063909D02*
X0497504Y0063909D01*
X0497090Y0064908D02*
X0495094Y0064908D01*
X0495507Y0065906D02*
X0496676Y0065906D01*
X0496592Y0066905D02*
X0495592Y0066905D01*
X0495592Y0067903D02*
X0496592Y0067903D01*
X0496592Y0068902D02*
X0495592Y0068902D01*
X0495592Y0069900D02*
X0496592Y0069900D01*
X0496592Y0070899D02*
X0495592Y0070899D01*
X0495592Y0071897D02*
X0496592Y0071897D01*
X0496592Y0072896D02*
X0495592Y0072896D01*
X0495592Y0073894D02*
X0496592Y0073894D01*
X0496592Y0074893D02*
X0495592Y0074893D01*
X0495592Y0075891D02*
X0496592Y0075891D01*
X0496592Y0076890D02*
X0495592Y0076890D01*
X0495592Y0077888D02*
X0496592Y0077888D01*
X0496592Y0078887D02*
X0495592Y0078887D01*
X0495592Y0079885D02*
X0496592Y0079885D01*
X0497004Y0080884D02*
X0495180Y0080884D01*
X0494766Y0081882D02*
X0497417Y0081882D01*
X0497831Y0082881D02*
X0494353Y0082881D01*
X0493647Y0083879D02*
X0498536Y0083879D01*
X0499535Y0084878D02*
X0492649Y0084878D01*
X0491902Y0085876D02*
X0491650Y0085876D01*
X0490903Y0086875D02*
X0489491Y0086875D01*
X0489905Y0087873D02*
X0461542Y0087873D01*
X0462541Y0086875D02*
X0462693Y0086875D01*
X0460544Y0088872D02*
X0488906Y0088872D01*
X0488092Y0089870D02*
X0459545Y0089870D01*
X0458547Y0090869D02*
X0487899Y0090869D01*
X0486901Y0091868D02*
X0457548Y0091868D01*
X0456550Y0092866D02*
X0485902Y0092866D01*
X0484904Y0093865D02*
X0455551Y0093865D01*
X0453599Y0094863D02*
X0483905Y0094863D01*
X0482693Y0086875D02*
X0469491Y0086875D01*
X0471650Y0085876D02*
X0480533Y0085876D01*
X0479535Y0084878D02*
X0472649Y0084878D01*
X0473647Y0083879D02*
X0478536Y0083879D01*
X0477831Y0082881D02*
X0474353Y0082881D01*
X0474766Y0081882D02*
X0477417Y0081882D01*
X0477004Y0080884D02*
X0475180Y0080884D01*
X0475592Y0079885D02*
X0476592Y0079885D01*
X0476592Y0078887D02*
X0475592Y0078887D01*
X0475592Y0077888D02*
X0476592Y0077888D01*
X0476592Y0076890D02*
X0475592Y0076890D01*
X0475592Y0075891D02*
X0476592Y0075891D01*
X0476592Y0074893D02*
X0475592Y0074893D01*
X0475592Y0073894D02*
X0476592Y0073894D01*
X0476592Y0072896D02*
X0475592Y0072896D01*
X0475592Y0071897D02*
X0476592Y0071897D01*
X0476592Y0070899D02*
X0475592Y0070899D01*
X0475592Y0069900D02*
X0476592Y0069900D01*
X0476592Y0068902D02*
X0475592Y0068902D01*
X0475592Y0067903D02*
X0476592Y0067903D01*
X0476592Y0066905D02*
X0475592Y0066905D01*
X0475507Y0065906D02*
X0476676Y0065906D01*
X0477090Y0064908D02*
X0475094Y0064908D01*
X0474680Y0063909D02*
X0477504Y0063909D01*
X0477917Y0062911D02*
X0474267Y0062911D01*
X0473439Y0061912D02*
X0478745Y0061912D01*
X0478792Y0060914D02*
X0472441Y0060914D01*
X0471398Y0059915D02*
X0478792Y0059915D01*
X0478792Y0058917D02*
X0468987Y0058917D01*
X0463196Y0058917D02*
X0398392Y0058917D01*
X0398392Y0059915D02*
X0460786Y0059915D01*
X0459743Y0060914D02*
X0398392Y0060914D01*
X0398392Y0061912D02*
X0458745Y0061912D01*
X0457917Y0062911D02*
X0398392Y0062911D01*
X0398392Y0063909D02*
X0457504Y0063909D01*
X0457090Y0064908D02*
X0398392Y0064908D01*
X0398392Y0065906D02*
X0456676Y0065906D01*
X0456592Y0066905D02*
X0398392Y0066905D01*
X0398392Y0067903D02*
X0456592Y0067903D01*
X0456592Y0068902D02*
X0398392Y0068902D01*
X0398392Y0069900D02*
X0456592Y0069900D01*
X0456592Y0070899D02*
X0398392Y0070899D01*
X0398392Y0071897D02*
X0456592Y0071897D01*
X0455872Y0072896D02*
X0398392Y0072896D01*
X0398392Y0073894D02*
X0454874Y0073894D01*
X0453875Y0074893D02*
X0398392Y0074893D01*
X0398392Y0075891D02*
X0452877Y0075891D01*
X0451878Y0076890D02*
X0398948Y0076890D01*
X0400143Y0077888D02*
X0450880Y0077888D01*
X0449881Y0078887D02*
X0401141Y0078887D01*
X0402053Y0079885D02*
X0448883Y0079885D01*
X0478792Y0057918D02*
X0398392Y0057918D01*
X0398392Y0056920D02*
X0478792Y0056920D01*
X0478792Y0055921D02*
X0398392Y0055921D01*
X0398392Y0054923D02*
X0478792Y0054923D01*
X0478792Y0053924D02*
X0398392Y0053924D01*
X0398392Y0052926D02*
X0478792Y0052926D01*
X0478792Y0051927D02*
X0398392Y0051927D01*
X0398392Y0050929D02*
X0478697Y0050929D01*
X0477698Y0049930D02*
X0398392Y0049930D01*
X0398392Y0048932D02*
X0476700Y0048932D01*
X0475701Y0047933D02*
X0398392Y0047933D01*
X0398392Y0046934D02*
X0474703Y0046934D01*
X0473704Y0045936D02*
X0398392Y0045936D01*
X0398392Y0044937D02*
X0413765Y0044937D01*
X0411707Y0043939D02*
X0398392Y0043939D01*
X0398392Y0042940D02*
X0410709Y0042940D01*
X0409710Y0041942D02*
X0398348Y0041942D01*
X0397934Y0040943D02*
X0408712Y0040943D01*
X0407713Y0039945D02*
X0397521Y0039945D01*
X0396862Y0038946D02*
X0406715Y0038946D01*
X0405716Y0037948D02*
X0395864Y0037948D01*
X0394865Y0036949D02*
X0404717Y0036949D01*
X0403719Y0035951D02*
X0393866Y0035951D01*
X0392868Y0034952D02*
X0402720Y0034952D01*
X0401722Y0033954D02*
X0391869Y0033954D01*
X0390871Y0032955D02*
X0400723Y0032955D01*
X0399878Y0031957D02*
X0389872Y0031957D01*
X0388874Y0030958D02*
X0399464Y0030958D01*
X0399051Y0029960D02*
X0387875Y0029960D01*
X0386877Y0028961D02*
X0398875Y0028961D01*
X0398875Y0027963D02*
X0385878Y0027963D01*
X0384880Y0026964D02*
X0398070Y0026964D01*
X0397072Y0025966D02*
X0383881Y0025966D01*
X0382883Y0024967D02*
X0396073Y0024967D01*
X0395075Y0023969D02*
X0381884Y0023969D01*
X0380886Y0022970D02*
X0394175Y0022970D01*
X0394175Y0021972D02*
X0379887Y0021972D01*
X0378889Y0020973D02*
X0394175Y0020973D01*
X0394175Y0019975D02*
X0378592Y0019975D01*
X0377882Y0018976D02*
X0394175Y0018976D01*
X0394175Y0017978D02*
X0376883Y0017978D01*
X0375885Y0016979D02*
X0394175Y0016979D01*
X0394175Y0015981D02*
X0374886Y0015981D01*
X0366298Y0015981D02*
X0285886Y0015981D01*
X0286885Y0016979D02*
X0365299Y0016979D01*
X0364300Y0017978D02*
X0287883Y0017978D01*
X0288882Y0018976D02*
X0363302Y0018976D01*
X0362592Y0019975D02*
X0289592Y0019975D01*
X0289889Y0020973D02*
X0362592Y0020973D01*
X0362592Y0021972D02*
X0290887Y0021972D01*
X0291886Y0022970D02*
X0362592Y0022970D01*
X0362592Y0023969D02*
X0292884Y0023969D01*
X0293883Y0024967D02*
X0362592Y0024967D01*
X0362592Y0025966D02*
X0294881Y0025966D01*
X0295880Y0026964D02*
X0363242Y0026964D01*
X0364241Y0027963D02*
X0296878Y0027963D01*
X0297877Y0028961D02*
X0365239Y0028961D01*
X0366238Y0029960D02*
X0298875Y0029960D01*
X0299874Y0030958D02*
X0367236Y0030958D01*
X0369225Y0031957D02*
X0300872Y0031957D01*
X0301871Y0032955D02*
X0370223Y0032955D01*
X0371222Y0033954D02*
X0302524Y0033954D01*
X0302938Y0034952D02*
X0312402Y0034952D01*
X0311403Y0035951D02*
X0303352Y0035951D01*
X0303392Y0036949D02*
X0310405Y0036949D01*
X0309406Y0037948D02*
X0303392Y0037948D01*
X0303392Y0038946D02*
X0308407Y0038946D01*
X0307792Y0039945D02*
X0303392Y0039945D01*
X0303392Y0040943D02*
X0307792Y0040943D01*
X0307792Y0041942D02*
X0303392Y0041942D01*
X0303392Y0042940D02*
X0307792Y0042940D01*
X0307792Y0043939D02*
X0303392Y0043939D01*
X0303843Y0044937D02*
X0307792Y0044937D01*
X0307792Y0045936D02*
X0304092Y0045936D01*
X0304092Y0046934D02*
X0308288Y0046934D01*
X0309092Y0047933D02*
X0304092Y0047933D01*
X0304092Y0048932D02*
X0309092Y0048932D01*
X0309092Y0049930D02*
X0304092Y0049930D01*
X0304092Y0050929D02*
X0309092Y0050929D01*
X0323092Y0050929D02*
X0323196Y0050929D01*
X0323092Y0051927D02*
X0323464Y0051927D01*
X0323092Y0052926D02*
X0323966Y0052926D01*
X0324542Y0053924D02*
X0323092Y0053924D01*
X0323092Y0054923D02*
X0325242Y0054923D01*
X0326241Y0055921D02*
X0323912Y0055921D01*
X0324911Y0056920D02*
X0327443Y0056920D01*
X0325909Y0057918D02*
X0329172Y0057918D01*
X0327906Y0059915D02*
X0383792Y0059915D01*
X0383792Y0058917D02*
X0326908Y0058917D01*
X0328905Y0060914D02*
X0383792Y0060914D01*
X0383792Y0061912D02*
X0329904Y0061912D01*
X0330902Y0062911D02*
X0383792Y0062911D01*
X0383792Y0063909D02*
X0331901Y0063909D01*
X0332899Y0064908D02*
X0383792Y0064908D01*
X0383792Y0065906D02*
X0333898Y0065906D01*
X0334896Y0066905D02*
X0383792Y0066905D01*
X0383792Y0067903D02*
X0335895Y0067903D01*
X0336893Y0068902D02*
X0383792Y0068902D01*
X0383792Y0069900D02*
X0337892Y0069900D01*
X0338890Y0070899D02*
X0383792Y0070899D01*
X0383792Y0071897D02*
X0339889Y0071897D01*
X0340887Y0072896D02*
X0383792Y0072896D01*
X0383792Y0073894D02*
X0341886Y0073894D01*
X0342884Y0074893D02*
X0383792Y0074893D01*
X0383792Y0075891D02*
X0343883Y0075891D01*
X0344881Y0076890D02*
X0383235Y0076890D01*
X0382041Y0077888D02*
X0345880Y0077888D01*
X0346878Y0078887D02*
X0381042Y0078887D01*
X0380131Y0079885D02*
X0347877Y0079885D01*
X0348875Y0080884D02*
X0379554Y0080884D01*
X0379985Y0095862D02*
X0324392Y0095862D01*
X0324392Y0096438D02*
X0324392Y0089562D01*
X0323092Y0088262D01*
X0323092Y0087738D01*
X0324392Y0086438D01*
X0324392Y0079562D01*
X0319530Y0074700D01*
X0312654Y0074700D01*
X0307792Y0079562D01*
X0307792Y0086438D01*
X0309092Y0087738D01*
X0309092Y0088262D01*
X0307792Y0089562D01*
X0307792Y0096438D01*
X0312654Y0101300D01*
X0319530Y0101300D01*
X0324392Y0096438D01*
X0323970Y0096860D02*
X0380789Y0096860D01*
X0381788Y0097859D02*
X0322971Y0097859D01*
X0321973Y0098857D02*
X0382797Y0098857D01*
X0384526Y0099856D02*
X0320974Y0099856D01*
X0319976Y0100854D02*
X0386711Y0100854D01*
X0394621Y0101853D02*
X0284039Y0101853D01*
X0283392Y0100854D02*
X0312208Y0100854D01*
X0311210Y0099856D02*
X0283392Y0099856D01*
X0283392Y0098857D02*
X0310211Y0098857D01*
X0309212Y0097859D02*
X0283392Y0097859D01*
X0283392Y0096860D02*
X0308214Y0096860D01*
X0307792Y0095862D02*
X0283392Y0095862D01*
X0283392Y0094863D02*
X0307792Y0094863D01*
X0307792Y0093865D02*
X0283392Y0093865D01*
X0283392Y0092866D02*
X0307792Y0092866D01*
X0307792Y0091868D02*
X0283392Y0091868D01*
X0283392Y0090869D02*
X0307792Y0090869D01*
X0307792Y0089870D02*
X0283392Y0089870D01*
X0283392Y0088872D02*
X0308482Y0088872D01*
X0309092Y0087873D02*
X0283392Y0087873D01*
X0283392Y0086875D02*
X0308229Y0086875D01*
X0307792Y0085876D02*
X0283392Y0085876D01*
X0283392Y0084878D02*
X0307792Y0084878D01*
X0307792Y0083879D02*
X0283392Y0083879D01*
X0283392Y0082881D02*
X0307792Y0082881D01*
X0307792Y0081882D02*
X0283392Y0081882D01*
X0283392Y0080884D02*
X0307792Y0080884D01*
X0307792Y0079885D02*
X0283392Y0079885D01*
X0283392Y0078887D02*
X0308467Y0078887D01*
X0309466Y0077888D02*
X0283392Y0077888D01*
X0283392Y0076890D02*
X0310464Y0076890D01*
X0311463Y0075891D02*
X0283392Y0075891D01*
X0283392Y0074893D02*
X0312461Y0074893D01*
X0318093Y0069900D02*
X0282709Y0069900D01*
X0282296Y0068902D02*
X0317094Y0068902D01*
X0316096Y0067903D02*
X0281319Y0067903D01*
X0280320Y0066905D02*
X0315097Y0066905D01*
X0314099Y0065906D02*
X0279322Y0065906D01*
X0283123Y0070899D02*
X0319091Y0070899D01*
X0320090Y0071897D02*
X0283392Y0071897D01*
X0283392Y0072896D02*
X0321088Y0072896D01*
X0322087Y0073894D02*
X0283392Y0073894D01*
X0268792Y0076024D02*
X0268068Y0075300D01*
X0265953Y0075300D01*
X0265546Y0075468D01*
X0256638Y0075468D01*
X0254665Y0074651D01*
X0253680Y0075059D01*
X0247756Y0075059D01*
X0246102Y0074374D01*
X0246092Y0074364D01*
X0246082Y0074374D01*
X0244428Y0075059D01*
X0238504Y0075059D01*
X0238392Y0075013D01*
X0238392Y0100137D01*
X0238930Y0098837D01*
X0240196Y0097571D01*
X0241139Y0097180D01*
X0241139Y0091652D01*
X0241824Y0089998D01*
X0243090Y0088732D01*
X0244744Y0088047D01*
X0252440Y0088047D01*
X0254094Y0088732D01*
X0255360Y0089998D01*
X0256045Y0091652D01*
X0256045Y0097629D01*
X0257280Y0098865D01*
X0257280Y0098865D01*
X0267280Y0108865D01*
X0268392Y0111548D01*
X0268392Y0116000D01*
X0274699Y0116000D01*
X0277254Y0116000D01*
X0272049Y0109227D01*
X0271957Y0109189D01*
X0269903Y0107135D01*
X0268792Y0104452D01*
X0268792Y0076024D01*
X0268659Y0075891D02*
X0238392Y0075891D01*
X0238392Y0076890D02*
X0268792Y0076890D01*
X0268792Y0077888D02*
X0238392Y0077888D01*
X0238392Y0078887D02*
X0268792Y0078887D01*
X0268792Y0079885D02*
X0238392Y0079885D01*
X0238392Y0080884D02*
X0268792Y0080884D01*
X0268792Y0081882D02*
X0238392Y0081882D01*
X0238392Y0082881D02*
X0268792Y0082881D01*
X0268792Y0083879D02*
X0238392Y0083879D01*
X0238392Y0084878D02*
X0268792Y0084878D01*
X0268792Y0085876D02*
X0238392Y0085876D01*
X0238392Y0086875D02*
X0268792Y0086875D01*
X0268792Y0087873D02*
X0238392Y0087873D01*
X0238392Y0088872D02*
X0242950Y0088872D01*
X0241952Y0089870D02*
X0238392Y0089870D01*
X0238392Y0090869D02*
X0241463Y0090869D01*
X0241139Y0091868D02*
X0238392Y0091868D01*
X0238392Y0092866D02*
X0241139Y0092866D01*
X0241139Y0093865D02*
X0238392Y0093865D01*
X0238392Y0094863D02*
X0241139Y0094863D01*
X0241139Y0095862D02*
X0238392Y0095862D01*
X0238392Y0096860D02*
X0241139Y0096860D01*
X0239909Y0097859D02*
X0238392Y0097859D01*
X0238392Y0098857D02*
X0238922Y0098857D01*
X0238508Y0099856D02*
X0238392Y0099856D01*
X0238392Y0109721D02*
X0238930Y0111021D01*
X0240196Y0112287D01*
X0241850Y0112972D01*
X0250333Y0112972D01*
X0250621Y0112853D01*
X0251123Y0113354D01*
X0250333Y0113028D01*
X0241850Y0113028D01*
X0240196Y0113713D01*
X0240138Y0113771D01*
X0238392Y0113771D01*
X0238392Y0109721D01*
X0238392Y0109841D02*
X0238441Y0109841D01*
X0238392Y0110839D02*
X0238855Y0110839D01*
X0238392Y0111838D02*
X0239747Y0111838D01*
X0238392Y0112836D02*
X0241522Y0112836D01*
X0253611Y0115843D02*
X0253792Y0116024D01*
X0253792Y0116279D01*
X0253611Y0115843D01*
X0265261Y0106845D02*
X0269783Y0106845D01*
X0269370Y0105847D02*
X0264262Y0105847D01*
X0263264Y0104848D02*
X0268956Y0104848D01*
X0268792Y0103850D02*
X0262265Y0103850D01*
X0261267Y0102851D02*
X0268792Y0102851D01*
X0268792Y0101853D02*
X0260268Y0101853D01*
X0259270Y0100854D02*
X0268792Y0100854D01*
X0268792Y0099856D02*
X0258271Y0099856D01*
X0257273Y0098857D02*
X0268792Y0098857D01*
X0268792Y0097859D02*
X0256274Y0097859D01*
X0256045Y0096860D02*
X0268792Y0096860D01*
X0268792Y0095862D02*
X0256045Y0095862D01*
X0256045Y0094863D02*
X0268792Y0094863D01*
X0268792Y0093865D02*
X0256045Y0093865D01*
X0256045Y0092866D02*
X0268792Y0092866D01*
X0268792Y0091868D02*
X0256045Y0091868D01*
X0255720Y0090869D02*
X0268792Y0090869D01*
X0268792Y0089870D02*
X0255232Y0089870D01*
X0254233Y0088872D02*
X0268792Y0088872D01*
X0255248Y0074893D02*
X0254081Y0074893D01*
X0247354Y0074893D02*
X0244829Y0074893D01*
X0247940Y0060941D02*
X0248545Y0059482D01*
X0248545Y0056518D01*
X0247410Y0053778D01*
X0245314Y0051682D01*
X0242574Y0050547D01*
X0239609Y0050547D01*
X0238392Y0051052D01*
X0238392Y0036024D01*
X0239116Y0035300D01*
X0253068Y0035300D01*
X0253792Y0036024D01*
X0253792Y0041769D01*
X0251792Y0043769D01*
X0250655Y0046514D01*
X0250655Y0049486D01*
X0251792Y0052231D01*
X0252561Y0053000D01*
X0251792Y0053769D01*
X0250655Y0056514D01*
X0250655Y0059486D01*
X0251258Y0060941D01*
X0247940Y0060941D01*
X0247952Y0060914D02*
X0251246Y0060914D01*
X0250833Y0059915D02*
X0248365Y0059915D01*
X0248545Y0058917D02*
X0250655Y0058917D01*
X0250655Y0057918D02*
X0248545Y0057918D01*
X0248545Y0056920D02*
X0250655Y0056920D01*
X0250901Y0055921D02*
X0248298Y0055921D01*
X0247884Y0054923D02*
X0251314Y0054923D01*
X0251728Y0053924D02*
X0247470Y0053924D01*
X0246557Y0052926D02*
X0252487Y0052926D01*
X0251666Y0051927D02*
X0245559Y0051927D01*
X0243495Y0050929D02*
X0251253Y0050929D01*
X0250839Y0049930D02*
X0238392Y0049930D01*
X0238392Y0048932D02*
X0250655Y0048932D01*
X0250655Y0047933D02*
X0238392Y0047933D01*
X0238392Y0046934D02*
X0250655Y0046934D01*
X0250894Y0045936D02*
X0238392Y0045936D01*
X0238392Y0044937D02*
X0251308Y0044937D01*
X0251722Y0043939D02*
X0238392Y0043939D01*
X0238392Y0042940D02*
X0252621Y0042940D01*
X0253619Y0041942D02*
X0238392Y0041942D01*
X0238392Y0040943D02*
X0253792Y0040943D01*
X0253792Y0039945D02*
X0238392Y0039945D01*
X0238392Y0038946D02*
X0253792Y0038946D01*
X0253792Y0037948D02*
X0238392Y0037948D01*
X0238392Y0036949D02*
X0253792Y0036949D01*
X0253719Y0035951D02*
X0238465Y0035951D01*
X0225805Y0027963D02*
X0211453Y0027963D01*
X0210454Y0028961D02*
X0224863Y0028961D01*
X0224450Y0029960D02*
X0209456Y0029960D01*
X0208457Y0030958D02*
X0224036Y0030958D01*
X0223792Y0031957D02*
X0207459Y0031957D01*
X0206460Y0032955D02*
X0223792Y0032955D01*
X0223792Y0033954D02*
X0205462Y0033954D01*
X0203383Y0034952D02*
X0223792Y0034952D01*
X0223792Y0035951D02*
X0166576Y0035951D01*
X0165577Y0036949D02*
X0223792Y0036949D01*
X0223792Y0037948D02*
X0026043Y0037948D01*
X0025045Y0038946D02*
X0036710Y0038946D01*
X0035712Y0039945D02*
X0024046Y0039945D01*
X0023092Y0040943D02*
X0034713Y0040943D01*
X0032425Y0041942D02*
X0023092Y0041942D01*
X0023092Y0042940D02*
X0031252Y0042940D01*
X0030253Y0043939D02*
X0023092Y0043939D01*
X0023092Y0044937D02*
X0029255Y0044937D01*
X0030158Y0044035D02*
X0030158Y0044035D01*
X0028256Y0045936D02*
X0023092Y0045936D01*
X0023092Y0046934D02*
X0027258Y0046934D01*
X0026259Y0047933D02*
X0023092Y0047933D01*
X0023092Y0048932D02*
X0025261Y0048932D01*
X0024262Y0049930D02*
X0023092Y0049930D01*
X0023092Y0050929D02*
X0023264Y0050929D01*
X0009092Y0050929D02*
X0006092Y0050929D01*
X0006092Y0051927D02*
X0009092Y0051927D01*
X0009092Y0052926D02*
X0006092Y0052926D01*
X0006092Y0053924D02*
X0009092Y0053924D01*
X0009092Y0054923D02*
X0006092Y0054923D01*
X0006092Y0055921D02*
X0009092Y0055921D01*
X0009092Y0056920D02*
X0006092Y0056920D01*
X0006092Y0057918D02*
X0009092Y0057918D01*
X0009092Y0058917D02*
X0006092Y0058917D01*
X0006092Y0059915D02*
X0009092Y0059915D01*
X0009092Y0060914D02*
X0006092Y0060914D01*
X0006092Y0061912D02*
X0009092Y0061912D01*
X0009092Y0062911D02*
X0006092Y0062911D01*
X0006092Y0063909D02*
X0009092Y0063909D01*
X0009092Y0064908D02*
X0006092Y0064908D01*
X0006092Y0065906D02*
X0009092Y0065906D01*
X0009092Y0066905D02*
X0006092Y0066905D01*
X0006092Y0067903D02*
X0009092Y0067903D01*
X0009092Y0068902D02*
X0006092Y0068902D01*
X0006092Y0069900D02*
X0009092Y0069900D01*
X0009092Y0070899D02*
X0006092Y0070899D01*
X0006092Y0071897D02*
X0009092Y0071897D01*
X0009092Y0072896D02*
X0006092Y0072896D01*
X0006092Y0073894D02*
X0009092Y0073894D01*
X0009092Y0074893D02*
X0006092Y0074893D01*
X0006092Y0075891D02*
X0009092Y0075891D01*
X0009092Y0076890D02*
X0006092Y0076890D01*
X0006092Y0077888D02*
X0009092Y0077888D01*
X0009092Y0078887D02*
X0006092Y0078887D01*
X0006092Y0079885D02*
X0009092Y0079885D01*
X0009092Y0080884D02*
X0006092Y0080884D01*
X0006092Y0081882D02*
X0009092Y0081882D01*
X0009092Y0082881D02*
X0006092Y0082881D01*
X0006092Y0083879D02*
X0009092Y0083879D01*
X0009092Y0084878D02*
X0006092Y0084878D01*
X0006092Y0085876D02*
X0009092Y0085876D01*
X0009092Y0086875D02*
X0006092Y0086875D01*
X0006092Y0087873D02*
X0009092Y0087873D01*
X0009092Y0088872D02*
X0006092Y0088872D01*
X0006092Y0089870D02*
X0009092Y0089870D01*
X0009092Y0090869D02*
X0006092Y0090869D01*
X0006092Y0091868D02*
X0009092Y0091868D01*
X0009092Y0092866D02*
X0006092Y0092866D01*
X0006092Y0093865D02*
X0009092Y0093865D01*
X0009092Y0094863D02*
X0006092Y0094863D01*
X0006092Y0095862D02*
X0009092Y0095862D01*
X0009092Y0096860D02*
X0006092Y0096860D01*
X0006092Y0097859D02*
X0009092Y0097859D01*
X0009092Y0098857D02*
X0006092Y0098857D01*
X0006092Y0099856D02*
X0009092Y0099856D01*
X0009092Y0100854D02*
X0006092Y0100854D01*
X0006092Y0101853D02*
X0009092Y0101853D01*
X0009092Y0102851D02*
X0006092Y0102851D01*
X0006092Y0103850D02*
X0009092Y0103850D01*
X0009092Y0104848D02*
X0006092Y0104848D01*
X0006092Y0105847D02*
X0009092Y0105847D01*
X0009092Y0106845D02*
X0006092Y0106845D01*
X0006092Y0107844D02*
X0009092Y0107844D01*
X0009092Y0108842D02*
X0006092Y0108842D01*
X0006092Y0109841D02*
X0009092Y0109841D01*
X0009092Y0110839D02*
X0006092Y0110839D01*
X0006092Y0111838D02*
X0009092Y0111838D01*
X0009092Y0112836D02*
X0006092Y0112836D01*
X0006092Y0113835D02*
X0009092Y0113835D01*
X0009092Y0114833D02*
X0006092Y0114833D01*
X0006092Y0115832D02*
X0009092Y0115832D01*
X0009092Y0116830D02*
X0006092Y0116830D01*
X0006092Y0117829D02*
X0009092Y0117829D01*
X0009092Y0118827D02*
X0006092Y0118827D01*
X0006092Y0119826D02*
X0009092Y0119826D01*
X0009092Y0120824D02*
X0006092Y0120824D01*
X0006092Y0121823D02*
X0009092Y0121823D01*
X0009092Y0122821D02*
X0006092Y0122821D01*
X0006092Y0123820D02*
X0009092Y0123820D01*
X0009092Y0124818D02*
X0006092Y0124818D01*
X0006092Y0125817D02*
X0009092Y0125817D01*
X0009092Y0126815D02*
X0006092Y0126815D01*
X0006092Y0127814D02*
X0009092Y0127814D01*
X0009092Y0128812D02*
X0006092Y0128812D01*
X0006092Y0129811D02*
X0009092Y0129811D01*
X0009092Y0130809D02*
X0006092Y0130809D01*
X0006092Y0131808D02*
X0009092Y0131808D01*
X0009092Y0132806D02*
X0006092Y0132806D01*
X0006092Y0133805D02*
X0009092Y0133805D01*
X0009092Y0134803D02*
X0006092Y0134803D01*
X0006092Y0135802D02*
X0009092Y0135802D01*
X0009092Y0136801D02*
X0006092Y0136801D01*
X0006092Y0137799D02*
X0009092Y0137799D01*
X0009092Y0138798D02*
X0006092Y0138798D01*
X0006092Y0139796D02*
X0009092Y0139796D01*
X0009092Y0140795D02*
X0006092Y0140795D01*
X0006092Y0141793D02*
X0009092Y0141793D01*
X0009092Y0142792D02*
X0006092Y0142792D01*
X0006092Y0143790D02*
X0009092Y0143790D01*
X0009092Y0144789D02*
X0006092Y0144789D01*
X0006092Y0145787D02*
X0009092Y0145787D01*
X0009092Y0146786D02*
X0006092Y0146786D01*
X0006092Y0147784D02*
X0009092Y0147784D01*
X0009092Y0148783D02*
X0006092Y0148783D01*
X0006092Y0149781D02*
X0009092Y0149781D01*
X0009092Y0150780D02*
X0006092Y0150780D01*
X0006092Y0151778D02*
X0009092Y0151778D01*
X0009092Y0152777D02*
X0006092Y0152777D01*
X0006092Y0153775D02*
X0009092Y0153775D01*
X0009092Y0154774D02*
X0006092Y0154774D01*
X0006092Y0155772D02*
X0009092Y0155772D01*
X0009092Y0156771D02*
X0006092Y0156771D01*
X0006092Y0157769D02*
X0009092Y0157769D01*
X0009092Y0158768D02*
X0006092Y0158768D01*
X0006092Y0159766D02*
X0009092Y0159766D01*
X0009092Y0160765D02*
X0006092Y0160765D01*
X0006092Y0161763D02*
X0009092Y0161763D01*
X0009092Y0162762D02*
X0006092Y0162762D01*
X0006092Y0163760D02*
X0009092Y0163760D01*
X0009092Y0164759D02*
X0006092Y0164759D01*
X0006092Y0165757D02*
X0009092Y0165757D01*
X0009092Y0166756D02*
X0006092Y0166756D01*
X0006092Y0167754D02*
X0009092Y0167754D01*
X0009092Y0168753D02*
X0006092Y0168753D01*
X0006092Y0169751D02*
X0009092Y0169751D01*
X0009092Y0170750D02*
X0006092Y0170750D01*
X0006092Y0171748D02*
X0009092Y0171748D01*
X0009092Y0172747D02*
X0006092Y0172747D01*
X0006092Y0173745D02*
X0009092Y0173745D01*
X0009092Y0174744D02*
X0006092Y0174744D01*
X0006092Y0175742D02*
X0009092Y0175742D01*
X0009092Y0176741D02*
X0006092Y0176741D01*
X0006092Y0177739D02*
X0009092Y0177739D01*
X0009092Y0178738D02*
X0006092Y0178738D01*
X0006092Y0179737D02*
X0009092Y0179737D01*
X0009092Y0180735D02*
X0006092Y0180735D01*
X0006092Y0181734D02*
X0009092Y0181734D01*
X0009092Y0182732D02*
X0006092Y0182732D01*
X0006092Y0183731D02*
X0009092Y0183731D01*
X0009092Y0184729D02*
X0006092Y0184729D01*
X0006092Y0185728D02*
X0009092Y0185728D01*
X0009092Y0186726D02*
X0006092Y0186726D01*
X0006092Y0187725D02*
X0009092Y0187725D01*
X0009092Y0188723D02*
X0006092Y0188723D01*
X0006092Y0189722D02*
X0009092Y0189722D01*
X0009092Y0190720D02*
X0006092Y0190720D01*
X0006092Y0191719D02*
X0009092Y0191719D01*
X0009092Y0192717D02*
X0006092Y0192717D01*
X0006092Y0193716D02*
X0009092Y0193716D01*
X0009092Y0194714D02*
X0006092Y0194714D01*
X0006092Y0195713D02*
X0009092Y0195713D01*
X0009092Y0196711D02*
X0006092Y0196711D01*
X0006092Y0197710D02*
X0009092Y0197710D01*
X0009092Y0198708D02*
X0006092Y0198708D01*
X0006092Y0199707D02*
X0009092Y0199707D01*
X0009092Y0200705D02*
X0006092Y0200705D01*
X0006092Y0201704D02*
X0009092Y0201704D01*
X0009092Y0202702D02*
X0006092Y0202702D01*
X0006092Y0203701D02*
X0009092Y0203701D01*
X0009092Y0204699D02*
X0006092Y0204699D01*
X0006092Y0205698D02*
X0009092Y0205698D01*
X0009092Y0206696D02*
X0006092Y0206696D01*
X0006092Y0207695D02*
X0009092Y0207695D01*
X0009092Y0208693D02*
X0006092Y0208693D01*
X0006092Y0209692D02*
X0009092Y0209692D01*
X0009092Y0210690D02*
X0006092Y0210690D01*
X0006092Y0211689D02*
X0009092Y0211689D01*
X0009092Y0212687D02*
X0006092Y0212687D01*
X0006092Y0213686D02*
X0009092Y0213686D01*
X0009092Y0214684D02*
X0006092Y0214684D01*
X0006092Y0215683D02*
X0009092Y0215683D01*
X0009092Y0216681D02*
X0006092Y0216681D01*
X0006092Y0217680D02*
X0009092Y0217680D01*
X0009092Y0218678D02*
X0006092Y0218678D01*
X0006092Y0219677D02*
X0009092Y0219677D01*
X0009092Y0220675D02*
X0006092Y0220675D01*
X0006092Y0221674D02*
X0009092Y0221674D01*
X0009092Y0222672D02*
X0006092Y0222672D01*
X0006092Y0223671D02*
X0009092Y0223671D01*
X0009092Y0224670D02*
X0006092Y0224670D01*
X0006092Y0225668D02*
X0009092Y0225668D01*
X0009092Y0226667D02*
X0006092Y0226667D01*
X0006092Y0227665D02*
X0009092Y0227665D01*
X0009092Y0228664D02*
X0006092Y0228664D01*
X0006092Y0229662D02*
X0009092Y0229662D01*
X0009092Y0230661D02*
X0006092Y0230661D01*
X0006092Y0231659D02*
X0009092Y0231659D01*
X0009092Y0232658D02*
X0006092Y0232658D01*
X0006092Y0233656D02*
X0009092Y0233656D01*
X0009092Y0234655D02*
X0006092Y0234655D01*
X0006092Y0235653D02*
X0009092Y0235653D01*
X0009092Y0236652D02*
X0006092Y0236652D01*
X0006092Y0237650D02*
X0009092Y0237650D01*
X0009092Y0238649D02*
X0006092Y0238649D01*
X0006092Y0239647D02*
X0009092Y0239647D01*
X0009092Y0240646D02*
X0006092Y0240646D01*
X0006092Y0241644D02*
X0009092Y0241644D01*
X0009092Y0242643D02*
X0006092Y0242643D01*
X0006092Y0243641D02*
X0009092Y0243641D01*
X0009092Y0244640D02*
X0006092Y0244640D01*
X0006092Y0245638D02*
X0009092Y0245638D01*
X0009092Y0246637D02*
X0006092Y0246637D01*
X0006092Y0247635D02*
X0009092Y0247635D01*
X0009092Y0248634D02*
X0006092Y0248634D01*
X0006092Y0249632D02*
X0009092Y0249632D01*
X0009092Y0250631D02*
X0006092Y0250631D01*
X0006092Y0251629D02*
X0009092Y0251629D01*
X0009092Y0252628D02*
X0006092Y0252628D01*
X0006092Y0253626D02*
X0009092Y0253626D01*
X0009092Y0254625D02*
X0006092Y0254625D01*
X0006092Y0255623D02*
X0009092Y0255623D01*
X0009092Y0256622D02*
X0006092Y0256622D01*
X0006092Y0257620D02*
X0009092Y0257620D01*
X0009092Y0258619D02*
X0006092Y0258619D01*
X0006092Y0259617D02*
X0009092Y0259617D01*
X0009092Y0260616D02*
X0006092Y0260616D01*
X0006092Y0261614D02*
X0009092Y0261614D01*
X0009092Y0262613D02*
X0006092Y0262613D01*
X0006092Y0263611D02*
X0009092Y0263611D01*
X0009182Y0264610D02*
X0006092Y0264610D01*
X0006092Y0265608D02*
X0009596Y0265608D01*
X0010009Y0266607D02*
X0006092Y0266607D01*
X0006092Y0267605D02*
X0010798Y0267605D01*
X0011796Y0268604D02*
X0006092Y0268604D01*
X0006092Y0269603D02*
X0012795Y0269603D01*
X0013793Y0270601D02*
X0006092Y0270601D01*
X0006092Y0271600D02*
X0014792Y0271600D01*
X0015790Y0272598D02*
X0006092Y0272598D01*
X0006092Y0273597D02*
X0016789Y0273597D01*
X0017787Y0274595D02*
X0006092Y0274595D01*
X0006092Y0275594D02*
X0018786Y0275594D01*
X0019784Y0276592D02*
X0006092Y0276592D01*
X0006092Y0277591D02*
X0020783Y0277591D01*
X0021782Y0278589D02*
X0006092Y0278589D01*
X0006092Y0279588D02*
X0022780Y0279588D01*
X0023779Y0280586D02*
X0006092Y0280586D01*
X0006092Y0281585D02*
X0024777Y0281585D01*
X0025776Y0282583D02*
X0006092Y0282583D01*
X0006092Y0283582D02*
X0026774Y0283582D01*
X0027773Y0284580D02*
X0006092Y0284580D01*
X0006092Y0285579D02*
X0028292Y0285579D01*
X0028292Y0286577D02*
X0006092Y0286577D01*
X0006092Y0287576D02*
X0028292Y0287576D01*
X0028591Y0288574D02*
X0006092Y0288574D01*
X0006092Y0289573D02*
X0029005Y0289573D01*
X0029418Y0290571D02*
X0006092Y0290571D01*
X0006092Y0291570D02*
X0030331Y0291570D01*
X0031329Y0292568D02*
X0006092Y0292568D01*
X0006092Y0293567D02*
X0033253Y0293567D01*
X0038931Y0293567D02*
X0049092Y0293567D01*
X0049092Y0294392D02*
X0049984Y0296545D01*
X0047574Y0295547D01*
X0044609Y0295547D01*
X0041870Y0296682D01*
X0039774Y0298778D01*
X0038639Y0301518D01*
X0038639Y0304482D01*
X0039774Y0307222D01*
X0041870Y0309318D01*
X0044609Y0310453D01*
X0047574Y0310453D01*
X0050314Y0309318D01*
X0052410Y0307222D01*
X0053545Y0304482D01*
X0053545Y0301518D01*
X0052721Y0299528D01*
X0072127Y0318934D01*
X0074699Y0320000D01*
X0158441Y0320000D01*
X0159072Y0321525D01*
X0161501Y0323953D01*
X0164674Y0325268D01*
X0168109Y0325268D01*
X0171283Y0323953D01*
X0173711Y0321525D01*
X0198473Y0321525D01*
X0198059Y0320527D02*
X0174125Y0320527D01*
X0173711Y0321525D02*
X0175026Y0318351D01*
X0175026Y0306649D01*
X0173711Y0303475D01*
X0171283Y0301047D01*
X0168109Y0299732D01*
X0164674Y0299732D01*
X0161501Y0301047D01*
X0159072Y0303475D01*
X0158027Y0306000D01*
X0127916Y0306000D01*
X0128545Y0304482D01*
X0128545Y0301518D01*
X0127410Y0298778D01*
X0125314Y0296682D01*
X0122574Y0295547D01*
X0119609Y0295547D01*
X0116870Y0296682D01*
X0114774Y0298778D01*
X0113639Y0301518D01*
X0113639Y0304482D01*
X0114268Y0306000D01*
X0078991Y0306000D01*
X0063092Y0290101D01*
X0063092Y0289783D01*
X0063892Y0287852D01*
X0063892Y0278148D01*
X0063092Y0276217D01*
X0063092Y0239783D01*
X0063892Y0237852D01*
X0063892Y0228148D01*
X0062704Y0225282D01*
X0060510Y0223087D01*
X0057643Y0221900D01*
X0054540Y0221900D01*
X0051674Y0223087D01*
X0049479Y0225282D01*
X0048292Y0228148D01*
X0048292Y0237852D01*
X0049092Y0239783D01*
X0049092Y0246176D01*
X0047574Y0245547D01*
X0044609Y0245547D01*
X0041870Y0246682D01*
X0039774Y0248778D01*
X0038639Y0251518D01*
X0038639Y0254482D01*
X0039774Y0257222D01*
X0041870Y0259318D01*
X0044609Y0260453D01*
X0047574Y0260453D01*
X0049092Y0259824D01*
X0049092Y0276217D01*
X0048292Y0278148D01*
X0048292Y0287852D01*
X0049092Y0289783D01*
X0049092Y0294392D01*
X0049163Y0294565D02*
X0006092Y0294565D01*
X0006092Y0295564D02*
X0044569Y0295564D01*
X0042159Y0296562D02*
X0006092Y0296562D01*
X0006092Y0297561D02*
X0040991Y0297561D01*
X0039993Y0298559D02*
X0006092Y0298559D01*
X0006092Y0299558D02*
X0039451Y0299558D01*
X0039037Y0300556D02*
X0006092Y0300556D01*
X0006092Y0301555D02*
X0038639Y0301555D01*
X0038639Y0302553D02*
X0006092Y0302553D01*
X0006092Y0303552D02*
X0038639Y0303552D01*
X0038667Y0304550D02*
X0006092Y0304550D01*
X0006092Y0305549D02*
X0039081Y0305549D01*
X0039494Y0306547D02*
X0006092Y0306547D01*
X0006092Y0307546D02*
X0040098Y0307546D01*
X0041097Y0308544D02*
X0006092Y0308544D01*
X0006092Y0309543D02*
X0042413Y0309543D01*
X0049771Y0309543D02*
X0062735Y0309543D01*
X0061737Y0308544D02*
X0051087Y0308544D01*
X0052086Y0307546D02*
X0060738Y0307546D01*
X0059740Y0306547D02*
X0052689Y0306547D01*
X0053103Y0305549D02*
X0058741Y0305549D01*
X0057743Y0304550D02*
X0053516Y0304550D01*
X0053545Y0303552D02*
X0056744Y0303552D01*
X0055746Y0302553D02*
X0053545Y0302553D01*
X0053545Y0301555D02*
X0054747Y0301555D01*
X0053749Y0300556D02*
X0053146Y0300556D01*
X0052750Y0299558D02*
X0052733Y0299558D01*
X0049577Y0295564D02*
X0047614Y0295564D01*
X0049092Y0292568D02*
X0040854Y0292568D01*
X0041853Y0291570D02*
X0049092Y0291570D01*
X0049092Y0290571D02*
X0042765Y0290571D01*
X0043179Y0289573D02*
X0049005Y0289573D01*
X0048591Y0288574D02*
X0043592Y0288574D01*
X0043892Y0287576D02*
X0048292Y0287576D01*
X0048292Y0286577D02*
X0043892Y0286577D01*
X0043892Y0285579D02*
X0048292Y0285579D01*
X0048292Y0284580D02*
X0043892Y0284580D01*
X0043892Y0283582D02*
X0048292Y0283582D01*
X0048292Y0282583D02*
X0043892Y0282583D01*
X0043892Y0281585D02*
X0048292Y0281585D01*
X0048292Y0280586D02*
X0043892Y0280586D01*
X0043892Y0279588D02*
X0048292Y0279588D01*
X0048292Y0278589D02*
X0043892Y0278589D01*
X0043661Y0277591D02*
X0048523Y0277591D01*
X0048937Y0276592D02*
X0043247Y0276592D01*
X0042834Y0275594D02*
X0049092Y0275594D01*
X0049092Y0274595D02*
X0042018Y0274595D01*
X0041019Y0273597D02*
X0049092Y0273597D01*
X0049092Y0272598D02*
X0039329Y0272598D01*
X0034591Y0271600D02*
X0049092Y0271600D01*
X0049092Y0270601D02*
X0033592Y0270601D01*
X0032594Y0269603D02*
X0049092Y0269603D01*
X0049092Y0268604D02*
X0031595Y0268604D01*
X0030597Y0267605D02*
X0049092Y0267605D01*
X0049092Y0266607D02*
X0029598Y0266607D01*
X0028600Y0265608D02*
X0049092Y0265608D01*
X0049092Y0264610D02*
X0027601Y0264610D01*
X0026603Y0263611D02*
X0049092Y0263611D01*
X0049092Y0262613D02*
X0025604Y0262613D01*
X0024606Y0261614D02*
X0049092Y0261614D01*
X0049092Y0260616D02*
X0023607Y0260616D01*
X0023092Y0259617D02*
X0042593Y0259617D01*
X0041171Y0258619D02*
X0023092Y0258619D01*
X0023092Y0257620D02*
X0040172Y0257620D01*
X0039525Y0256622D02*
X0023092Y0256622D01*
X0023092Y0255623D02*
X0039112Y0255623D01*
X0038698Y0254625D02*
X0023092Y0254625D01*
X0023092Y0253626D02*
X0038639Y0253626D01*
X0038639Y0252628D02*
X0023092Y0252628D01*
X0023092Y0251629D02*
X0038639Y0251629D01*
X0039006Y0250631D02*
X0023092Y0250631D01*
X0023092Y0249632D02*
X0039420Y0249632D01*
X0039918Y0248634D02*
X0023092Y0248634D01*
X0023092Y0247635D02*
X0040917Y0247635D01*
X0041979Y0246637D02*
X0023092Y0246637D01*
X0023092Y0245638D02*
X0044390Y0245638D01*
X0047794Y0245638D02*
X0049092Y0245638D01*
X0049092Y0244640D02*
X0023092Y0244640D01*
X0023092Y0243641D02*
X0033433Y0243641D01*
X0034540Y0244100D02*
X0037643Y0244100D01*
X0040510Y0242913D01*
X0042704Y0240718D01*
X0043892Y0237852D01*
X0043892Y0228148D01*
X0043092Y0226217D01*
X0043092Y0177500D01*
X0045027Y0177500D01*
X0050592Y0171935D01*
X0050592Y0164065D01*
X0045027Y0158500D01*
X0037157Y0158500D01*
X0031592Y0164065D01*
X0031592Y0167601D01*
X0030158Y0169035D01*
X0029092Y0171608D01*
X0029092Y0226217D01*
X0028292Y0228148D01*
X0028292Y0237852D01*
X0029479Y0240718D01*
X0031674Y0242913D01*
X0034540Y0244100D01*
X0031404Y0242643D02*
X0023092Y0242643D01*
X0023092Y0241644D02*
X0030405Y0241644D01*
X0029449Y0240646D02*
X0023092Y0240646D01*
X0023092Y0239647D02*
X0029036Y0239647D01*
X0028622Y0238649D02*
X0023092Y0238649D01*
X0023092Y0237650D02*
X0028292Y0237650D01*
X0028292Y0236652D02*
X0023092Y0236652D01*
X0023092Y0235653D02*
X0028292Y0235653D01*
X0028292Y0234655D02*
X0023092Y0234655D01*
X0023092Y0233656D02*
X0028292Y0233656D01*
X0028292Y0232658D02*
X0023092Y0232658D01*
X0023092Y0231659D02*
X0028292Y0231659D01*
X0028292Y0230661D02*
X0023092Y0230661D01*
X0023092Y0229662D02*
X0028292Y0229662D01*
X0028292Y0228664D02*
X0023092Y0228664D01*
X0023092Y0227665D02*
X0028492Y0227665D01*
X0028906Y0226667D02*
X0023092Y0226667D01*
X0023092Y0225668D02*
X0029092Y0225668D01*
X0029092Y0224670D02*
X0023092Y0224670D01*
X0023092Y0223671D02*
X0029092Y0223671D01*
X0029092Y0222672D02*
X0023092Y0222672D01*
X0023092Y0221674D02*
X0029092Y0221674D01*
X0029092Y0220675D02*
X0023092Y0220675D01*
X0023092Y0219677D02*
X0029092Y0219677D01*
X0029092Y0218678D02*
X0023092Y0218678D01*
X0023092Y0217680D02*
X0029092Y0217680D01*
X0029092Y0216681D02*
X0023092Y0216681D01*
X0023092Y0215683D02*
X0029092Y0215683D01*
X0029092Y0214684D02*
X0023092Y0214684D01*
X0023092Y0213686D02*
X0029092Y0213686D01*
X0029092Y0212687D02*
X0023092Y0212687D01*
X0023092Y0211689D02*
X0029092Y0211689D01*
X0029092Y0210690D02*
X0023092Y0210690D01*
X0023092Y0209692D02*
X0029092Y0209692D01*
X0029092Y0208693D02*
X0023092Y0208693D01*
X0023092Y0207695D02*
X0029092Y0207695D01*
X0029092Y0206696D02*
X0023092Y0206696D01*
X0023092Y0205698D02*
X0029092Y0205698D01*
X0029092Y0204699D02*
X0023092Y0204699D01*
X0023092Y0203701D02*
X0029092Y0203701D01*
X0029092Y0202702D02*
X0023092Y0202702D01*
X0023092Y0201704D02*
X0029092Y0201704D01*
X0029092Y0200705D02*
X0023092Y0200705D01*
X0023092Y0199707D02*
X0029092Y0199707D01*
X0029092Y0198708D02*
X0023092Y0198708D01*
X0023092Y0197710D02*
X0029092Y0197710D01*
X0029092Y0196711D02*
X0023092Y0196711D01*
X0023092Y0195713D02*
X0029092Y0195713D01*
X0029092Y0194714D02*
X0023092Y0194714D01*
X0023092Y0193716D02*
X0029092Y0193716D01*
X0029092Y0192717D02*
X0023092Y0192717D01*
X0023092Y0191719D02*
X0029092Y0191719D01*
X0029092Y0190720D02*
X0023092Y0190720D01*
X0023092Y0189722D02*
X0029092Y0189722D01*
X0029092Y0188723D02*
X0023092Y0188723D01*
X0023092Y0187725D02*
X0029092Y0187725D01*
X0029092Y0186726D02*
X0023092Y0186726D01*
X0023092Y0185728D02*
X0029092Y0185728D01*
X0029092Y0184729D02*
X0023092Y0184729D01*
X0023092Y0183731D02*
X0029092Y0183731D01*
X0029092Y0182732D02*
X0023092Y0182732D01*
X0023092Y0181734D02*
X0029092Y0181734D01*
X0029092Y0180735D02*
X0023092Y0180735D01*
X0023092Y0179737D02*
X0029092Y0179737D01*
X0029092Y0178738D02*
X0023092Y0178738D01*
X0023092Y0177739D02*
X0029092Y0177739D01*
X0029092Y0176741D02*
X0023092Y0176741D01*
X0023092Y0175742D02*
X0029092Y0175742D01*
X0029092Y0174744D02*
X0023092Y0174744D01*
X0023092Y0173745D02*
X0029092Y0173745D01*
X0029092Y0172747D02*
X0023092Y0172747D01*
X0023092Y0171748D02*
X0029092Y0171748D01*
X0029447Y0170750D02*
X0023092Y0170750D01*
X0023092Y0169751D02*
X0029861Y0169751D01*
X0030440Y0168753D02*
X0023092Y0168753D01*
X0023092Y0167754D02*
X0031438Y0167754D01*
X0031592Y0166756D02*
X0023092Y0166756D01*
X0023092Y0165757D02*
X0031592Y0165757D01*
X0031592Y0164759D02*
X0023092Y0164759D01*
X0023092Y0163760D02*
X0031897Y0163760D01*
X0032895Y0162762D02*
X0023092Y0162762D01*
X0023092Y0161763D02*
X0033894Y0161763D01*
X0034892Y0160765D02*
X0023092Y0160765D01*
X0023092Y0159766D02*
X0035891Y0159766D01*
X0036889Y0158768D02*
X0023092Y0158768D01*
X0023092Y0157769D02*
X0054092Y0157769D01*
X0054092Y0156771D02*
X0045756Y0156771D01*
X0045027Y0157500D02*
X0050592Y0151935D01*
X0050592Y0144065D01*
X0045027Y0138500D01*
X0037157Y0138500D01*
X0031592Y0144065D01*
X0031592Y0151935D01*
X0037157Y0157500D01*
X0045027Y0157500D01*
X0045295Y0158768D02*
X0054092Y0158768D01*
X0054092Y0159766D02*
X0046293Y0159766D01*
X0047292Y0160765D02*
X0054092Y0160765D01*
X0054092Y0161763D02*
X0048290Y0161763D01*
X0049289Y0162762D02*
X0054092Y0162762D01*
X0054092Y0163760D02*
X0050287Y0163760D01*
X0050592Y0164759D02*
X0054092Y0164759D01*
X0054092Y0165757D02*
X0050592Y0165757D01*
X0050592Y0166756D02*
X0054092Y0166756D01*
X0054092Y0167754D02*
X0050592Y0167754D01*
X0050592Y0168753D02*
X0054092Y0168753D01*
X0054092Y0169751D02*
X0050592Y0169751D01*
X0050592Y0170750D02*
X0054092Y0170750D01*
X0054092Y0171748D02*
X0050592Y0171748D01*
X0049780Y0172747D02*
X0054092Y0172747D01*
X0054092Y0173745D02*
X0048781Y0173745D01*
X0047783Y0174744D02*
X0054092Y0174744D01*
X0054092Y0175742D02*
X0046784Y0175742D01*
X0045786Y0176741D02*
X0054092Y0176741D01*
X0054092Y0177739D02*
X0043092Y0177739D01*
X0043092Y0178738D02*
X0054092Y0178738D01*
X0054092Y0179737D02*
X0043092Y0179737D01*
X0043092Y0180735D02*
X0054092Y0180735D01*
X0054092Y0181734D02*
X0043092Y0181734D01*
X0043092Y0182732D02*
X0054092Y0182732D01*
X0054092Y0183731D02*
X0043092Y0183731D01*
X0043092Y0184729D02*
X0054092Y0184729D01*
X0054092Y0185728D02*
X0043092Y0185728D01*
X0043092Y0186726D02*
X0054092Y0186726D01*
X0054092Y0187725D02*
X0043092Y0187725D01*
X0043092Y0188723D02*
X0054092Y0188723D01*
X0054092Y0189722D02*
X0043092Y0189722D01*
X0043092Y0190720D02*
X0054092Y0190720D01*
X0054092Y0191719D02*
X0043092Y0191719D01*
X0043092Y0192717D02*
X0054092Y0192717D01*
X0054092Y0193716D02*
X0043092Y0193716D01*
X0043092Y0194714D02*
X0054092Y0194714D01*
X0054092Y0195713D02*
X0043092Y0195713D01*
X0043092Y0196711D02*
X0054092Y0196711D01*
X0054092Y0197710D02*
X0043092Y0197710D01*
X0043092Y0198708D02*
X0054092Y0198708D01*
X0054092Y0199707D02*
X0043092Y0199707D01*
X0043092Y0200705D02*
X0054092Y0200705D01*
X0054092Y0201704D02*
X0043092Y0201704D01*
X0043092Y0202702D02*
X0054092Y0202702D01*
X0054092Y0203701D02*
X0043092Y0203701D01*
X0043092Y0204699D02*
X0054092Y0204699D01*
X0054092Y0205698D02*
X0043092Y0205698D01*
X0043092Y0206696D02*
X0054092Y0206696D01*
X0054092Y0207695D02*
X0043092Y0207695D01*
X0043092Y0208693D02*
X0054092Y0208693D01*
X0054092Y0209392D02*
X0055158Y0211965D01*
X0104092Y0260899D01*
X0104092Y0276217D01*
X0103292Y0278148D01*
X0103292Y0287852D01*
X0104479Y0290718D01*
X0106674Y0292913D01*
X0109540Y0294100D01*
X0112643Y0294100D01*
X0115510Y0292913D01*
X0117704Y0290718D01*
X0118892Y0287852D01*
X0118892Y0278148D01*
X0118092Y0276217D01*
X0118092Y0259824D01*
X0119609Y0260453D01*
X0122574Y0260453D01*
X0124092Y0259824D01*
X0124092Y0276217D01*
X0123292Y0278148D01*
X0123292Y0287852D01*
X0124479Y0290718D01*
X0126674Y0292913D01*
X0129540Y0294100D01*
X0132643Y0294100D01*
X0135510Y0292913D01*
X0137704Y0290718D01*
X0138892Y0287852D01*
X0138892Y0278148D01*
X0138092Y0276217D01*
X0138092Y0260500D01*
X0158234Y0260500D01*
X0159072Y0262525D01*
X0161501Y0264953D01*
X0164674Y0266268D01*
X0168109Y0266268D01*
X0171283Y0264953D01*
X0173711Y0262525D01*
X0175026Y0259351D01*
X0175026Y0247649D01*
X0173711Y0244475D01*
X0171283Y0242047D01*
X0168109Y0240732D01*
X0164674Y0240732D01*
X0161501Y0242047D01*
X0159072Y0244475D01*
X0158234Y0246500D01*
X0138266Y0246500D01*
X0138092Y0242833D01*
X0138092Y0239783D01*
X0138892Y0237852D01*
X0138892Y0228148D01*
X0137704Y0225282D01*
X0135510Y0223087D01*
X0132643Y0221900D01*
X0129540Y0221900D01*
X0126674Y0223087D01*
X0124479Y0225282D01*
X0123292Y0228148D01*
X0123292Y0237852D01*
X0124092Y0239783D01*
X0124092Y0241780D01*
X0124034Y0241942D01*
X0124092Y0243167D01*
X0124092Y0246176D01*
X0122574Y0245547D01*
X0119609Y0245547D01*
X0116870Y0246682D01*
X0114774Y0248778D01*
X0113894Y0250903D01*
X0068092Y0205101D01*
X0068092Y0136608D01*
X0067026Y0134035D01*
X0065057Y0132066D01*
X0055057Y0122066D01*
X0052484Y0121000D01*
X0047527Y0121000D01*
X0045027Y0118500D01*
X0037157Y0118500D01*
X0031592Y0124065D01*
X0031592Y0131935D01*
X0037157Y0137500D01*
X0045027Y0137500D01*
X0047527Y0135000D01*
X0048192Y0135000D01*
X0054092Y0140899D01*
X0054092Y0209392D01*
X0054216Y0209692D02*
X0043092Y0209692D01*
X0043092Y0210690D02*
X0054630Y0210690D01*
X0055043Y0211689D02*
X0043092Y0211689D01*
X0043092Y0212687D02*
X0055880Y0212687D01*
X0056878Y0213686D02*
X0043092Y0213686D01*
X0043092Y0214684D02*
X0057877Y0214684D01*
X0058875Y0215683D02*
X0043092Y0215683D01*
X0043092Y0216681D02*
X0059874Y0216681D01*
X0060872Y0217680D02*
X0043092Y0217680D01*
X0043092Y0218678D02*
X0061871Y0218678D01*
X0062869Y0219677D02*
X0043092Y0219677D01*
X0043092Y0220675D02*
X0063868Y0220675D01*
X0064866Y0221674D02*
X0043092Y0221674D01*
X0043092Y0222672D02*
X0052675Y0222672D01*
X0051090Y0223671D02*
X0043092Y0223671D01*
X0043092Y0224670D02*
X0050091Y0224670D01*
X0049319Y0225668D02*
X0043092Y0225668D01*
X0043278Y0226667D02*
X0048906Y0226667D01*
X0048492Y0227665D02*
X0043692Y0227665D01*
X0043892Y0228664D02*
X0048292Y0228664D01*
X0048292Y0229662D02*
X0043892Y0229662D01*
X0043892Y0230661D02*
X0048292Y0230661D01*
X0048292Y0231659D02*
X0043892Y0231659D01*
X0043892Y0232658D02*
X0048292Y0232658D01*
X0048292Y0233656D02*
X0043892Y0233656D01*
X0043892Y0234655D02*
X0048292Y0234655D01*
X0048292Y0235653D02*
X0043892Y0235653D01*
X0043892Y0236652D02*
X0048292Y0236652D01*
X0048292Y0237650D02*
X0043892Y0237650D01*
X0043562Y0238649D02*
X0048622Y0238649D01*
X0049036Y0239647D02*
X0043148Y0239647D01*
X0042734Y0240646D02*
X0049092Y0240646D01*
X0049092Y0241644D02*
X0041779Y0241644D01*
X0040780Y0242643D02*
X0049092Y0242643D01*
X0049092Y0243641D02*
X0038751Y0243641D01*
X0063092Y0243641D02*
X0086834Y0243641D01*
X0087832Y0244640D02*
X0063092Y0244640D01*
X0063092Y0245638D02*
X0088831Y0245638D01*
X0089829Y0246637D02*
X0063092Y0246637D01*
X0063092Y0247635D02*
X0090828Y0247635D01*
X0091826Y0248634D02*
X0063092Y0248634D01*
X0063092Y0249632D02*
X0092825Y0249632D01*
X0093823Y0250631D02*
X0063092Y0250631D01*
X0063092Y0251629D02*
X0094822Y0251629D01*
X0095820Y0252628D02*
X0063092Y0252628D01*
X0063092Y0253626D02*
X0096819Y0253626D01*
X0097817Y0254625D02*
X0063092Y0254625D01*
X0063092Y0255623D02*
X0098816Y0255623D01*
X0099814Y0256622D02*
X0063092Y0256622D01*
X0063092Y0257620D02*
X0100813Y0257620D01*
X0101811Y0258619D02*
X0063092Y0258619D01*
X0063092Y0259617D02*
X0102810Y0259617D01*
X0103808Y0260616D02*
X0063092Y0260616D01*
X0063092Y0261614D02*
X0104092Y0261614D01*
X0104092Y0262613D02*
X0063092Y0262613D01*
X0063092Y0263611D02*
X0104092Y0263611D01*
X0104092Y0264610D02*
X0063092Y0264610D01*
X0063092Y0265608D02*
X0104092Y0265608D01*
X0104092Y0266607D02*
X0063092Y0266607D01*
X0063092Y0267605D02*
X0104092Y0267605D01*
X0104092Y0268604D02*
X0063092Y0268604D01*
X0063092Y0269603D02*
X0104092Y0269603D01*
X0104092Y0270601D02*
X0063092Y0270601D01*
X0063092Y0271600D02*
X0104092Y0271600D01*
X0104092Y0272598D02*
X0063092Y0272598D01*
X0063092Y0273597D02*
X0104092Y0273597D01*
X0104092Y0274595D02*
X0063092Y0274595D01*
X0063092Y0275594D02*
X0104092Y0275594D01*
X0103937Y0276592D02*
X0063247Y0276592D01*
X0063661Y0277591D02*
X0103523Y0277591D01*
X0103292Y0278589D02*
X0063892Y0278589D01*
X0063892Y0279588D02*
X0103292Y0279588D01*
X0103292Y0280586D02*
X0063892Y0280586D01*
X0063892Y0281585D02*
X0103292Y0281585D01*
X0103292Y0282583D02*
X0063892Y0282583D01*
X0063892Y0283582D02*
X0103292Y0283582D01*
X0103292Y0284580D02*
X0063892Y0284580D01*
X0063892Y0285579D02*
X0103292Y0285579D01*
X0103292Y0286577D02*
X0063892Y0286577D01*
X0063892Y0287576D02*
X0103292Y0287576D01*
X0103591Y0288574D02*
X0063592Y0288574D01*
X0063179Y0289573D02*
X0104005Y0289573D01*
X0104418Y0290571D02*
X0063563Y0290571D01*
X0064561Y0291570D02*
X0105331Y0291570D01*
X0106329Y0292568D02*
X0065560Y0292568D01*
X0066558Y0293567D02*
X0108253Y0293567D01*
X0113931Y0293567D02*
X0128253Y0293567D01*
X0126329Y0292568D02*
X0115854Y0292568D01*
X0116853Y0291570D02*
X0125331Y0291570D01*
X0124418Y0290571D02*
X0117765Y0290571D01*
X0118179Y0289573D02*
X0124005Y0289573D01*
X0123591Y0288574D02*
X0118592Y0288574D01*
X0118892Y0287576D02*
X0123292Y0287576D01*
X0123292Y0286577D02*
X0118892Y0286577D01*
X0118892Y0285579D02*
X0123292Y0285579D01*
X0123292Y0284580D02*
X0118892Y0284580D01*
X0118892Y0283582D02*
X0123292Y0283582D01*
X0123292Y0282583D02*
X0118892Y0282583D01*
X0118892Y0281585D02*
X0123292Y0281585D01*
X0123292Y0280586D02*
X0118892Y0280586D01*
X0118892Y0279588D02*
X0123292Y0279588D01*
X0123292Y0278589D02*
X0118892Y0278589D01*
X0118661Y0277591D02*
X0123523Y0277591D01*
X0123937Y0276592D02*
X0118247Y0276592D01*
X0118092Y0275594D02*
X0124092Y0275594D01*
X0124092Y0274595D02*
X0118092Y0274595D01*
X0118092Y0273597D02*
X0124092Y0273597D01*
X0124092Y0272598D02*
X0118092Y0272598D01*
X0118092Y0271600D02*
X0124092Y0271600D01*
X0124092Y0270601D02*
X0118092Y0270601D01*
X0118092Y0269603D02*
X0124092Y0269603D01*
X0124092Y0268604D02*
X0118092Y0268604D01*
X0118092Y0267605D02*
X0124092Y0267605D01*
X0124092Y0266607D02*
X0118092Y0266607D01*
X0118092Y0265608D02*
X0124092Y0265608D01*
X0124092Y0264610D02*
X0118092Y0264610D01*
X0118092Y0263611D02*
X0124092Y0263611D01*
X0124092Y0262613D02*
X0118092Y0262613D01*
X0118092Y0261614D02*
X0124092Y0261614D01*
X0124092Y0260616D02*
X0118092Y0260616D01*
X0114006Y0250631D02*
X0113622Y0250631D01*
X0114420Y0249632D02*
X0112624Y0249632D01*
X0111625Y0248634D02*
X0114918Y0248634D01*
X0115917Y0247635D02*
X0110627Y0247635D01*
X0109628Y0246637D02*
X0116979Y0246637D01*
X0119390Y0245638D02*
X0108630Y0245638D01*
X0107631Y0244640D02*
X0124092Y0244640D01*
X0124092Y0245638D02*
X0122794Y0245638D01*
X0124092Y0243641D02*
X0113751Y0243641D01*
X0115780Y0242643D02*
X0124067Y0242643D01*
X0124092Y0241644D02*
X0116779Y0241644D01*
X0117734Y0240646D02*
X0124092Y0240646D01*
X0124036Y0239647D02*
X0118148Y0239647D01*
X0118562Y0238649D02*
X0123622Y0238649D01*
X0123292Y0237650D02*
X0118892Y0237650D01*
X0118892Y0236652D02*
X0123292Y0236652D01*
X0123292Y0235653D02*
X0118892Y0235653D01*
X0118892Y0234655D02*
X0123292Y0234655D01*
X0123292Y0233656D02*
X0118892Y0233656D01*
X0118892Y0232658D02*
X0123292Y0232658D01*
X0123292Y0231659D02*
X0118892Y0231659D01*
X0118892Y0230661D02*
X0123292Y0230661D01*
X0123292Y0229662D02*
X0118892Y0229662D01*
X0118892Y0228664D02*
X0123292Y0228664D01*
X0123492Y0227665D02*
X0118692Y0227665D01*
X0118278Y0226667D02*
X0123906Y0226667D01*
X0124319Y0225668D02*
X0117864Y0225668D01*
X0117092Y0224670D02*
X0125091Y0224670D01*
X0126090Y0223671D02*
X0116094Y0223671D01*
X0114508Y0222672D02*
X0127675Y0222672D01*
X0131871Y0218678D02*
X0106670Y0218678D01*
X0105671Y0217680D02*
X0130872Y0217680D01*
X0129874Y0216681D02*
X0104673Y0216681D01*
X0103674Y0215683D02*
X0128875Y0215683D01*
X0127877Y0214684D02*
X0102676Y0214684D01*
X0101677Y0213686D02*
X0126878Y0213686D01*
X0125880Y0212687D02*
X0100679Y0212687D01*
X0099680Y0211689D02*
X0124881Y0211689D01*
X0123883Y0210690D02*
X0098682Y0210690D01*
X0097683Y0209692D02*
X0122884Y0209692D01*
X0121886Y0208693D02*
X0096685Y0208693D01*
X0095686Y0207695D02*
X0120887Y0207695D01*
X0120046Y0206696D02*
X0094688Y0206696D01*
X0093689Y0205698D02*
X0119633Y0205698D01*
X0119219Y0204699D02*
X0092691Y0204699D01*
X0091692Y0203701D02*
X0119092Y0203701D01*
X0119092Y0202702D02*
X0090694Y0202702D01*
X0089695Y0201704D02*
X0118482Y0201704D01*
X0118092Y0200705D02*
X0088697Y0200705D01*
X0087698Y0199707D02*
X0117899Y0199707D01*
X0116901Y0198708D02*
X0086700Y0198708D01*
X0085701Y0197710D02*
X0115902Y0197710D01*
X0114904Y0196711D02*
X0084703Y0196711D01*
X0083704Y0195713D02*
X0113905Y0195713D01*
X0112907Y0194714D02*
X0083092Y0194714D01*
X0083092Y0193716D02*
X0111908Y0193716D01*
X0110910Y0192717D02*
X0083092Y0192717D01*
X0083092Y0191719D02*
X0109911Y0191719D01*
X0108913Y0190720D02*
X0083092Y0190720D01*
X0083092Y0189722D02*
X0107914Y0189722D01*
X0106915Y0188723D02*
X0083092Y0188723D01*
X0083092Y0187725D02*
X0105917Y0187725D01*
X0104918Y0186726D02*
X0083092Y0186726D01*
X0083092Y0185728D02*
X0103920Y0185728D01*
X0102921Y0184729D02*
X0083092Y0184729D01*
X0083092Y0183731D02*
X0101923Y0183731D01*
X0100924Y0182732D02*
X0083092Y0182732D01*
X0083092Y0181734D02*
X0099926Y0181734D01*
X0098927Y0180735D02*
X0083092Y0180735D01*
X0083092Y0179737D02*
X0097929Y0179737D01*
X0096930Y0178738D02*
X0083092Y0178738D01*
X0083092Y0177739D02*
X0095932Y0177739D01*
X0095065Y0176741D02*
X0083092Y0176741D01*
X0083092Y0175742D02*
X0094651Y0175742D01*
X0094237Y0174744D02*
X0083092Y0174744D01*
X0083092Y0173745D02*
X0094092Y0173745D01*
X0094092Y0172747D02*
X0083092Y0172747D01*
X0083092Y0171748D02*
X0094092Y0171748D01*
X0094092Y0170750D02*
X0083092Y0170750D01*
X0083092Y0169751D02*
X0094092Y0169751D01*
X0094092Y0168753D02*
X0083092Y0168753D01*
X0083092Y0167754D02*
X0094092Y0167754D01*
X0094092Y0166756D02*
X0083092Y0166756D01*
X0083092Y0165757D02*
X0094092Y0165757D01*
X0094092Y0164759D02*
X0083092Y0164759D01*
X0083092Y0163760D02*
X0094092Y0163760D01*
X0094092Y0162762D02*
X0083092Y0162762D01*
X0083092Y0161763D02*
X0094092Y0161763D01*
X0094092Y0160765D02*
X0083092Y0160765D01*
X0083092Y0159766D02*
X0094092Y0159766D01*
X0094092Y0158768D02*
X0083092Y0158768D01*
X0083092Y0157769D02*
X0094092Y0157769D01*
X0094092Y0156771D02*
X0083092Y0156771D01*
X0083092Y0155772D02*
X0094092Y0155772D01*
X0094092Y0154774D02*
X0083092Y0154774D01*
X0083092Y0153775D02*
X0094092Y0153775D01*
X0094092Y0152777D02*
X0083092Y0152777D01*
X0083092Y0151778D02*
X0094092Y0151778D01*
X0094092Y0150780D02*
X0083092Y0150780D01*
X0083092Y0149781D02*
X0094092Y0149781D01*
X0094092Y0148783D02*
X0083092Y0148783D01*
X0083092Y0147784D02*
X0094092Y0147784D01*
X0094092Y0146786D02*
X0083092Y0146786D01*
X0083092Y0145787D02*
X0094092Y0145787D01*
X0094092Y0144789D02*
X0083092Y0144789D01*
X0083092Y0143790D02*
X0094092Y0143790D01*
X0094092Y0142792D02*
X0083092Y0142792D01*
X0083092Y0141793D02*
X0094092Y0141793D01*
X0094092Y0140795D02*
X0083092Y0140795D01*
X0083092Y0139796D02*
X0094092Y0139796D01*
X0094092Y0138798D02*
X0083092Y0138798D01*
X0083092Y0137799D02*
X0094092Y0137799D01*
X0094092Y0136801D02*
X0083092Y0136801D01*
X0083092Y0135802D02*
X0094092Y0135802D01*
X0094092Y0134803D02*
X0083092Y0134803D01*
X0083092Y0133805D02*
X0094092Y0133805D01*
X0094092Y0132806D02*
X0083092Y0132806D01*
X0083092Y0131808D02*
X0094092Y0131808D01*
X0094092Y0130809D02*
X0083092Y0130809D01*
X0083092Y0129811D02*
X0094092Y0129811D01*
X0094092Y0128812D02*
X0083092Y0128812D01*
X0083092Y0127814D02*
X0094092Y0127814D01*
X0094092Y0126815D02*
X0083092Y0126815D01*
X0083092Y0125817D02*
X0094092Y0125817D01*
X0094092Y0124818D02*
X0083092Y0124818D01*
X0083092Y0123820D02*
X0094092Y0123820D01*
X0094092Y0122821D02*
X0083092Y0122821D01*
X0083092Y0121823D02*
X0094092Y0121823D01*
X0094092Y0120824D02*
X0083092Y0120824D01*
X0083092Y0119826D02*
X0094092Y0119826D01*
X0094092Y0118827D02*
X0083092Y0118827D01*
X0083092Y0117829D02*
X0094092Y0117829D01*
X0094092Y0116830D02*
X0083092Y0116830D01*
X0083092Y0115832D02*
X0094092Y0115832D01*
X0094092Y0114833D02*
X0083092Y0114833D01*
X0083092Y0113835D02*
X0094092Y0113835D01*
X0094092Y0112836D02*
X0083092Y0112836D01*
X0083092Y0111838D02*
X0094092Y0111838D01*
X0094092Y0110839D02*
X0083092Y0110839D01*
X0083092Y0109841D02*
X0094092Y0109841D01*
X0094092Y0108842D02*
X0083092Y0108842D01*
X0083092Y0107844D02*
X0094092Y0107844D01*
X0094092Y0106845D02*
X0083092Y0106845D01*
X0083092Y0105847D02*
X0094092Y0105847D01*
X0094092Y0104848D02*
X0083092Y0104848D01*
X0083092Y0103850D02*
X0094092Y0103850D01*
X0094092Y0102851D02*
X0083092Y0102851D01*
X0083092Y0101853D02*
X0094092Y0101853D01*
X0094092Y0100854D02*
X0083092Y0100854D01*
X0083092Y0099856D02*
X0094092Y0099856D01*
X0094092Y0098857D02*
X0083092Y0098857D01*
X0083092Y0097859D02*
X0094092Y0097859D01*
X0094092Y0096860D02*
X0083092Y0096860D01*
X0083092Y0095862D02*
X0094092Y0095862D01*
X0094092Y0094863D02*
X0083092Y0094863D01*
X0083092Y0093865D02*
X0094092Y0093865D01*
X0094092Y0092866D02*
X0083092Y0092866D01*
X0083092Y0091868D02*
X0094092Y0091868D01*
X0094092Y0090869D02*
X0083092Y0090869D01*
X0083092Y0089870D02*
X0094092Y0089870D01*
X0094092Y0088872D02*
X0083092Y0088872D01*
X0083092Y0087873D02*
X0094092Y0087873D01*
X0094092Y0086875D02*
X0083092Y0086875D01*
X0083092Y0085876D02*
X0094092Y0085876D01*
X0094092Y0084878D02*
X0083092Y0084878D01*
X0083092Y0083879D02*
X0094092Y0083879D01*
X0094092Y0082881D02*
X0083092Y0082881D01*
X0083092Y0081882D02*
X0094092Y0081882D01*
X0094092Y0080884D02*
X0082792Y0080884D01*
X0082378Y0079885D02*
X0094092Y0079885D01*
X0094092Y0078887D02*
X0081878Y0078887D01*
X0080880Y0077888D02*
X0094092Y0077888D01*
X0094092Y0076890D02*
X0079881Y0076890D01*
X0078883Y0075891D02*
X0094092Y0075891D01*
X0094092Y0074893D02*
X0077884Y0074893D01*
X0076886Y0073894D02*
X0094092Y0073894D01*
X0094092Y0072896D02*
X0075887Y0072896D01*
X0074889Y0071897D02*
X0094092Y0071897D01*
X0094092Y0070899D02*
X0073890Y0070899D01*
X0072892Y0069900D02*
X0094092Y0069900D01*
X0094092Y0068902D02*
X0071893Y0068902D01*
X0070895Y0067903D02*
X0094092Y0067903D01*
X0094092Y0066905D02*
X0069896Y0066905D01*
X0068898Y0065906D02*
X0094092Y0065906D01*
X0094092Y0064908D02*
X0067899Y0064908D01*
X0066901Y0063909D02*
X0094092Y0063909D01*
X0094092Y0062911D02*
X0065902Y0062911D01*
X0064686Y0061912D02*
X0094092Y0061912D01*
X0094092Y0060914D02*
X0047441Y0060914D01*
X0046442Y0059915D02*
X0094092Y0059915D01*
X0094092Y0058917D02*
X0045444Y0058917D01*
X0045607Y0056920D02*
X0094092Y0056920D01*
X0094092Y0057918D02*
X0036073Y0057918D01*
X0036740Y0058917D02*
X0035075Y0058917D01*
X0035742Y0059915D02*
X0034076Y0059915D01*
X0034743Y0060914D02*
X0033092Y0060914D01*
X0033092Y0061912D02*
X0033745Y0061912D01*
X0046606Y0055921D02*
X0094092Y0055921D01*
X0108092Y0055921D02*
X0134052Y0055921D01*
X0133792Y0056920D02*
X0108092Y0056920D01*
X0108092Y0057918D02*
X0133792Y0057918D01*
X0133792Y0058917D02*
X0108092Y0058917D01*
X0108092Y0059915D02*
X0133792Y0059915D01*
X0133792Y0060914D02*
X0108092Y0060914D01*
X0108092Y0061912D02*
X0133792Y0061912D01*
X0133792Y0062911D02*
X0108092Y0062911D01*
X0108092Y0063909D02*
X0133792Y0063909D01*
X0133792Y0064908D02*
X0108092Y0064908D01*
X0108092Y0065906D02*
X0133792Y0065906D01*
X0133792Y0066905D02*
X0108092Y0066905D01*
X0108092Y0067903D02*
X0133792Y0067903D01*
X0133792Y0068902D02*
X0108092Y0068902D01*
X0108092Y0069900D02*
X0133792Y0069900D01*
X0133792Y0070899D02*
X0108092Y0070899D01*
X0108092Y0071897D02*
X0133792Y0071897D01*
X0133792Y0072896D02*
X0108092Y0072896D01*
X0108092Y0073894D02*
X0133792Y0073894D01*
X0133792Y0074893D02*
X0108092Y0074893D01*
X0108092Y0075891D02*
X0133792Y0075891D01*
X0133792Y0076890D02*
X0108092Y0076890D01*
X0108092Y0077888D02*
X0133792Y0077888D01*
X0133792Y0078887D02*
X0108092Y0078887D01*
X0108092Y0079885D02*
X0133792Y0079885D01*
X0133792Y0080884D02*
X0108092Y0080884D01*
X0108092Y0081882D02*
X0133792Y0081882D01*
X0133792Y0082881D02*
X0108092Y0082881D01*
X0108092Y0083879D02*
X0133792Y0083879D01*
X0133792Y0084878D02*
X0108092Y0084878D01*
X0108092Y0085876D02*
X0133792Y0085876D01*
X0133792Y0086875D02*
X0108092Y0086875D01*
X0108092Y0087873D02*
X0133792Y0087873D01*
X0133792Y0088872D02*
X0108092Y0088872D01*
X0108092Y0089870D02*
X0133792Y0089870D01*
X0133792Y0090869D02*
X0108092Y0090869D01*
X0108092Y0091868D02*
X0133792Y0091868D01*
X0133792Y0092866D02*
X0108092Y0092866D01*
X0108092Y0093865D02*
X0133792Y0093865D01*
X0133792Y0094863D02*
X0108092Y0094863D01*
X0108092Y0095862D02*
X0133792Y0095862D01*
X0133792Y0096860D02*
X0108092Y0096860D01*
X0108092Y0097859D02*
X0133792Y0097859D01*
X0133792Y0098857D02*
X0108092Y0098857D01*
X0108092Y0099856D02*
X0133792Y0099856D01*
X0133792Y0100854D02*
X0108092Y0100854D01*
X0108092Y0101853D02*
X0133792Y0101853D01*
X0133792Y0102851D02*
X0108092Y0102851D01*
X0108092Y0103850D02*
X0133792Y0103850D01*
X0133792Y0104848D02*
X0108092Y0104848D01*
X0108092Y0105847D02*
X0133792Y0105847D01*
X0133792Y0106845D02*
X0108092Y0106845D01*
X0108092Y0107844D02*
X0133792Y0107844D01*
X0133792Y0108842D02*
X0108092Y0108842D01*
X0108092Y0109841D02*
X0133792Y0109841D01*
X0133792Y0110839D02*
X0108092Y0110839D01*
X0108092Y0111838D02*
X0133792Y0111838D01*
X0133792Y0112836D02*
X0108092Y0112836D01*
X0108092Y0113835D02*
X0133792Y0113835D01*
X0133792Y0114833D02*
X0108092Y0114833D01*
X0108092Y0115832D02*
X0133792Y0115832D01*
X0133792Y0116830D02*
X0108092Y0116830D01*
X0108092Y0117829D02*
X0133792Y0117829D01*
X0133792Y0118827D02*
X0108092Y0118827D01*
X0108092Y0119826D02*
X0133792Y0119826D01*
X0133792Y0120824D02*
X0108092Y0120824D01*
X0108092Y0121823D02*
X0133792Y0121823D01*
X0133792Y0122821D02*
X0108092Y0122821D01*
X0108092Y0123820D02*
X0133792Y0123820D01*
X0133792Y0124818D02*
X0108092Y0124818D01*
X0108092Y0125817D02*
X0133792Y0125817D01*
X0133792Y0126815D02*
X0108092Y0126815D01*
X0108092Y0127814D02*
X0133792Y0127814D01*
X0133792Y0128812D02*
X0108092Y0128812D01*
X0108092Y0129811D02*
X0133792Y0129811D01*
X0133792Y0130809D02*
X0108092Y0130809D01*
X0108092Y0131808D02*
X0133792Y0131808D01*
X0133792Y0132806D02*
X0108092Y0132806D01*
X0108092Y0133805D02*
X0133792Y0133805D01*
X0133792Y0134803D02*
X0108092Y0134803D01*
X0108092Y0135802D02*
X0133792Y0135802D01*
X0133792Y0136801D02*
X0108092Y0136801D01*
X0108092Y0137799D02*
X0133792Y0137799D01*
X0133792Y0138798D02*
X0108092Y0138798D01*
X0108092Y0139796D02*
X0133792Y0139796D01*
X0133792Y0140795D02*
X0108092Y0140795D01*
X0108092Y0141793D02*
X0133792Y0141793D01*
X0133792Y0142792D02*
X0108092Y0142792D01*
X0108092Y0143790D02*
X0133792Y0143790D01*
X0133792Y0144789D02*
X0108092Y0144789D01*
X0108092Y0145787D02*
X0133792Y0145787D01*
X0133792Y0146786D02*
X0108092Y0146786D01*
X0108092Y0147784D02*
X0133792Y0147784D01*
X0133792Y0148783D02*
X0108092Y0148783D01*
X0108092Y0149781D02*
X0133792Y0149781D01*
X0133792Y0150780D02*
X0108092Y0150780D01*
X0108092Y0151778D02*
X0133792Y0151778D01*
X0133792Y0152777D02*
X0108092Y0152777D01*
X0108092Y0153775D02*
X0133792Y0153775D01*
X0133792Y0154774D02*
X0108092Y0154774D01*
X0108092Y0155772D02*
X0133792Y0155772D01*
X0133792Y0156771D02*
X0108092Y0156771D01*
X0108092Y0157769D02*
X0133792Y0157769D01*
X0133792Y0158768D02*
X0108092Y0158768D01*
X0108092Y0159766D02*
X0133792Y0159766D01*
X0133792Y0160765D02*
X0108092Y0160765D01*
X0108092Y0161763D02*
X0133792Y0161763D01*
X0133792Y0162762D02*
X0108092Y0162762D01*
X0108092Y0163760D02*
X0133792Y0163760D01*
X0133792Y0164759D02*
X0108092Y0164759D01*
X0108092Y0165757D02*
X0133792Y0165757D01*
X0133792Y0166756D02*
X0108092Y0166756D01*
X0108092Y0167754D02*
X0133792Y0167754D01*
X0133792Y0168753D02*
X0108092Y0168753D01*
X0108092Y0169751D02*
X0133792Y0169751D01*
X0133792Y0170750D02*
X0108741Y0170750D01*
X0109740Y0171748D02*
X0133792Y0171748D01*
X0133792Y0172747D02*
X0110738Y0172747D01*
X0111737Y0173745D02*
X0133792Y0173745D01*
X0133913Y0174744D02*
X0112735Y0174744D01*
X0113734Y0175742D02*
X0134326Y0175742D01*
X0134740Y0176741D02*
X0114732Y0176741D01*
X0115731Y0177739D02*
X0135508Y0177739D01*
X0136506Y0178738D02*
X0116729Y0178738D01*
X0117728Y0179737D02*
X0137505Y0179737D01*
X0138503Y0180735D02*
X0118726Y0180735D01*
X0119725Y0181734D02*
X0139502Y0181734D01*
X0140500Y0182732D02*
X0120723Y0182732D01*
X0121722Y0183731D02*
X0141499Y0183731D01*
X0142497Y0184729D02*
X0122720Y0184729D01*
X0123719Y0185728D02*
X0143496Y0185728D01*
X0144494Y0186726D02*
X0124717Y0186726D01*
X0125716Y0187725D02*
X0145493Y0187725D01*
X0146491Y0188723D02*
X0126714Y0188723D01*
X0127713Y0189722D02*
X0147490Y0189722D01*
X0148488Y0190720D02*
X0130126Y0190720D01*
X0131124Y0191719D02*
X0149487Y0191719D01*
X0150485Y0192717D02*
X0132123Y0192717D01*
X0133121Y0193716D02*
X0151484Y0193716D01*
X0152482Y0194714D02*
X0134092Y0194714D01*
X0134092Y0195713D02*
X0153481Y0195713D01*
X0154479Y0196711D02*
X0134092Y0196711D01*
X0134092Y0197710D02*
X0155478Y0197710D01*
X0156476Y0198708D02*
X0134092Y0198708D01*
X0134092Y0199707D02*
X0157475Y0199707D01*
X0158092Y0200705D02*
X0134092Y0200705D01*
X0134695Y0201704D02*
X0158482Y0201704D01*
X0159480Y0202702D02*
X0135694Y0202702D01*
X0136692Y0203701D02*
X0160479Y0203701D01*
X0161477Y0204699D02*
X0137691Y0204699D01*
X0138689Y0205698D02*
X0162476Y0205698D01*
X0169165Y0206696D02*
X0241161Y0206696D01*
X0240163Y0205698D02*
X0169708Y0205698D01*
X0170706Y0204699D02*
X0239164Y0204699D01*
X0238166Y0203701D02*
X0171705Y0203701D01*
X0172703Y0202702D02*
X0237167Y0202702D01*
X0236169Y0201704D02*
X0173702Y0201704D01*
X0174092Y0200705D02*
X0192766Y0200705D01*
X0199417Y0200705D02*
X0202766Y0200705D01*
X0201768Y0199707D02*
X0200416Y0199707D01*
X0209417Y0200705D02*
X0235170Y0200705D01*
X0234172Y0199707D02*
X0210416Y0199707D01*
X0211414Y0198708D02*
X0233173Y0198708D01*
X0232175Y0197710D02*
X0212413Y0197710D01*
X0213412Y0196711D02*
X0231176Y0196711D01*
X0230178Y0195713D02*
X0213892Y0195713D01*
X0213892Y0194714D02*
X0229179Y0194714D01*
X0228181Y0193716D02*
X0213892Y0193716D01*
X0213892Y0192717D02*
X0227182Y0192717D01*
X0226184Y0191719D02*
X0213892Y0191719D01*
X0213892Y0190720D02*
X0225185Y0190720D01*
X0224187Y0189722D02*
X0213844Y0189722D01*
X0213092Y0188723D02*
X0223188Y0188723D01*
X0222190Y0187725D02*
X0213092Y0187725D01*
X0213092Y0186726D02*
X0221191Y0186726D01*
X0220193Y0185728D02*
X0213092Y0185728D01*
X0213092Y0184729D02*
X0219194Y0184729D01*
X0218196Y0183731D02*
X0213092Y0183731D01*
X0213092Y0182732D02*
X0217197Y0182732D01*
X0216199Y0181734D02*
X0213092Y0181734D01*
X0213092Y0180735D02*
X0215200Y0180735D01*
X0214202Y0179737D02*
X0213092Y0179737D01*
X0213092Y0178738D02*
X0213203Y0178738D01*
X0224465Y0172747D02*
X0233653Y0172747D01*
X0233404Y0172146D02*
X0234271Y0174241D01*
X0235875Y0175844D01*
X0237863Y0177832D01*
X0255363Y0195332D01*
X0257458Y0196200D01*
X0294489Y0196200D01*
X0294535Y0196181D01*
X0298581Y0196181D01*
X0300235Y0195496D01*
X0301501Y0194230D01*
X0302186Y0192576D01*
X0302186Y0190800D01*
X0319997Y0190800D01*
X0319997Y0192576D01*
X0320682Y0194230D01*
X0321948Y0195496D01*
X0323602Y0196181D01*
X0334054Y0196181D01*
X0335708Y0195496D01*
X0336974Y0194230D01*
X0337659Y0192576D01*
X0337659Y0188424D01*
X0337483Y0188000D01*
X0337659Y0187576D01*
X0337659Y0185588D01*
X0339094Y0184993D01*
X0343287Y0180800D01*
X0368560Y0180800D01*
X0368292Y0181448D01*
X0368292Y0183305D01*
X0361599Y0189998D01*
X0360792Y0191946D01*
X0360792Y0192700D01*
X0350038Y0192700D01*
X0348090Y0193507D01*
X0346599Y0194998D01*
X0341599Y0199998D01*
X0340792Y0201946D01*
X0340792Y0203145D01*
X0340094Y0203843D01*
X0339017Y0206443D01*
X0339017Y0214407D01*
X0340094Y0217008D01*
X0342084Y0218998D01*
X0344685Y0220075D01*
X0347499Y0220075D01*
X0350099Y0218998D01*
X0351092Y0218005D01*
X0352084Y0218998D01*
X0354685Y0220075D01*
X0357499Y0220075D01*
X0360099Y0218998D01*
X0360787Y0218311D01*
X0360792Y0218316D01*
X0360792Y0219054D01*
X0361599Y0221002D01*
X0362497Y0221900D01*
X0273619Y0221900D01*
X0222192Y0170473D01*
X0222192Y0162224D01*
X0222280Y0162135D01*
X0223392Y0159452D01*
X0223392Y0151731D01*
X0223892Y0151231D01*
X0223892Y0144769D01*
X0223392Y0144269D01*
X0223392Y0136548D01*
X0222280Y0133865D01*
X0210227Y0121811D01*
X0207544Y0120700D01*
X0204706Y0120700D01*
X0205106Y0120300D01*
X0223068Y0120300D01*
X0224903Y0122135D01*
X0224903Y0122135D01*
X0226957Y0124189D01*
X0230028Y0127259D01*
X0232711Y0128371D01*
X0235181Y0128371D01*
X0234774Y0128778D01*
X0233639Y0131518D01*
X0233639Y0134482D01*
X0234185Y0135801D01*
X0234094Y0135839D01*
X0232828Y0137104D01*
X0232143Y0138758D01*
X0232143Y0147242D01*
X0232828Y0148895D01*
X0233404Y0149471D01*
X0233404Y0172146D01*
X0233404Y0171748D02*
X0223467Y0171748D01*
X0222468Y0170750D02*
X0233404Y0170750D01*
X0233404Y0169751D02*
X0222192Y0169751D01*
X0222192Y0168753D02*
X0233404Y0168753D01*
X0233404Y0167754D02*
X0222192Y0167754D01*
X0222192Y0166756D02*
X0233404Y0166756D01*
X0233404Y0165757D02*
X0222192Y0165757D01*
X0222192Y0164759D02*
X0233404Y0164759D01*
X0233404Y0163760D02*
X0222192Y0163760D01*
X0222192Y0162762D02*
X0233404Y0162762D01*
X0233404Y0161763D02*
X0222434Y0161763D01*
X0222848Y0160765D02*
X0233404Y0160765D01*
X0233404Y0159766D02*
X0223262Y0159766D01*
X0223392Y0158768D02*
X0233404Y0158768D01*
X0233404Y0157769D02*
X0223392Y0157769D01*
X0223392Y0156771D02*
X0233404Y0156771D01*
X0233404Y0155772D02*
X0223392Y0155772D01*
X0223392Y0154774D02*
X0233404Y0154774D01*
X0233404Y0153775D02*
X0223392Y0153775D01*
X0223392Y0152777D02*
X0233404Y0152777D01*
X0233404Y0151778D02*
X0223392Y0151778D01*
X0223892Y0150780D02*
X0233404Y0150780D01*
X0233404Y0149781D02*
X0223892Y0149781D01*
X0223892Y0148783D02*
X0232781Y0148783D01*
X0232368Y0147784D02*
X0223892Y0147784D01*
X0223892Y0146786D02*
X0232143Y0146786D01*
X0232143Y0145787D02*
X0223892Y0145787D01*
X0223892Y0144789D02*
X0232143Y0144789D01*
X0232143Y0143790D02*
X0223392Y0143790D01*
X0223392Y0142792D02*
X0232143Y0142792D01*
X0232143Y0141793D02*
X0223392Y0141793D01*
X0223392Y0140795D02*
X0232143Y0140795D01*
X0232143Y0139796D02*
X0223392Y0139796D01*
X0223392Y0138798D02*
X0232143Y0138798D01*
X0232540Y0137799D02*
X0223392Y0137799D01*
X0223392Y0136801D02*
X0233132Y0136801D01*
X0234182Y0135802D02*
X0223083Y0135802D01*
X0222669Y0134803D02*
X0233772Y0134803D01*
X0233639Y0133805D02*
X0222221Y0133805D01*
X0221222Y0132806D02*
X0233639Y0132806D01*
X0233639Y0131808D02*
X0220224Y0131808D01*
X0219225Y0130809D02*
X0233932Y0130809D01*
X0234346Y0129811D02*
X0218227Y0129811D01*
X0217228Y0128812D02*
X0234760Y0128812D01*
X0231366Y0127814D02*
X0216230Y0127814D01*
X0215231Y0126815D02*
X0229584Y0126815D01*
X0228585Y0125817D02*
X0214233Y0125817D01*
X0213234Y0124818D02*
X0227586Y0124818D01*
X0226957Y0124189D02*
X0226957Y0124189D01*
X0226588Y0123820D02*
X0212235Y0123820D01*
X0211237Y0122821D02*
X0225589Y0122821D01*
X0224591Y0121823D02*
X0210238Y0121823D01*
X0207844Y0120824D02*
X0223592Y0120824D01*
X0205567Y0137799D02*
X0151215Y0137799D01*
X0152213Y0138798D02*
X0156859Y0138798D01*
X0157157Y0138500D02*
X0154957Y0140700D01*
X0154116Y0140700D01*
X0148392Y0134976D01*
X0148392Y0061024D01*
X0154116Y0055300D01*
X0154957Y0055300D01*
X0157157Y0057500D01*
X0165027Y0057500D01*
X0167227Y0055300D01*
X0198068Y0055300D01*
X0213792Y0071024D01*
X0213792Y0080000D01*
X0207778Y0080000D01*
X0203092Y0084686D01*
X0203092Y0085000D01*
X0197778Y0085000D01*
X0193092Y0089686D01*
X0193092Y0096314D01*
X0197778Y0101000D01*
X0204406Y0101000D01*
X0205106Y0100300D01*
X0207544Y0100300D01*
X0210227Y0099189D01*
X0213416Y0096000D01*
X0213639Y0096000D01*
X0213639Y0099348D01*
X0214324Y0101002D01*
X0215590Y0102268D01*
X0217244Y0102953D01*
X0223792Y0102953D01*
X0223792Y0105700D01*
X0205106Y0105700D01*
X0204406Y0105000D01*
X0197778Y0105000D01*
X0197078Y0105700D01*
X0189116Y0105700D01*
X0188392Y0104976D01*
X0188392Y0071548D01*
X0187280Y0068865D01*
X0182280Y0063865D01*
X0180227Y0061811D01*
X0177544Y0060700D01*
X0167227Y0060700D01*
X0165027Y0058500D01*
X0157157Y0058500D01*
X0151592Y0064065D01*
X0151592Y0071935D01*
X0157157Y0077500D01*
X0165027Y0077500D01*
X0167227Y0075300D01*
X0173068Y0075300D01*
X0173792Y0076024D01*
X0173792Y0109452D01*
X0174903Y0112135D01*
X0176957Y0114189D01*
X0181957Y0119189D01*
X0184505Y0120244D01*
X0183070Y0120839D01*
X0181805Y0122104D01*
X0181119Y0123758D01*
X0181119Y0132242D01*
X0181805Y0133895D01*
X0183070Y0135161D01*
X0184724Y0135846D01*
X0193601Y0135846D01*
X0194920Y0135300D01*
X0203068Y0135300D01*
X0207968Y0140200D01*
X0201897Y0140200D01*
X0200690Y0140700D01*
X0167227Y0140700D01*
X0165027Y0138500D01*
X0157157Y0138500D01*
X0157157Y0137500D02*
X0165027Y0137500D01*
X0167227Y0135300D01*
X0167263Y0135300D01*
X0168583Y0135846D01*
X0177459Y0135846D01*
X0179113Y0135161D01*
X0180379Y0133895D01*
X0181064Y0132242D01*
X0181064Y0123758D01*
X0180379Y0122104D01*
X0179113Y0120839D01*
X0177459Y0120154D01*
X0168583Y0120154D01*
X0167263Y0120700D01*
X0167227Y0120700D01*
X0165027Y0118500D01*
X0157157Y0118500D01*
X0151592Y0124065D01*
X0151592Y0131935D01*
X0157157Y0137500D01*
X0156457Y0136801D02*
X0150216Y0136801D01*
X0149218Y0135802D02*
X0155459Y0135802D01*
X0154460Y0134803D02*
X0148392Y0134803D01*
X0148392Y0133805D02*
X0153462Y0133805D01*
X0152463Y0132806D02*
X0148392Y0132806D01*
X0148392Y0131808D02*
X0151592Y0131808D01*
X0151592Y0130809D02*
X0148392Y0130809D01*
X0148392Y0129811D02*
X0151592Y0129811D01*
X0151592Y0128812D02*
X0148392Y0128812D01*
X0148392Y0127814D02*
X0151592Y0127814D01*
X0151592Y0126815D02*
X0148392Y0126815D01*
X0148392Y0125817D02*
X0151592Y0125817D01*
X0151592Y0124818D02*
X0148392Y0124818D01*
X0148392Y0123820D02*
X0151837Y0123820D01*
X0152835Y0122821D02*
X0148392Y0122821D01*
X0148392Y0121823D02*
X0153834Y0121823D01*
X0154833Y0120824D02*
X0148392Y0120824D01*
X0148392Y0119826D02*
X0155831Y0119826D01*
X0156830Y0118827D02*
X0148392Y0118827D01*
X0148392Y0117829D02*
X0180597Y0117829D01*
X0181595Y0118827D02*
X0165354Y0118827D01*
X0165027Y0117500D02*
X0170592Y0111935D01*
X0170592Y0104065D01*
X0165027Y0098500D01*
X0157157Y0098500D01*
X0151592Y0104065D01*
X0151592Y0111935D01*
X0157157Y0117500D01*
X0165027Y0117500D01*
X0165697Y0116830D02*
X0179598Y0116830D01*
X0178600Y0115832D02*
X0166695Y0115832D01*
X0167694Y0114833D02*
X0177601Y0114833D01*
X0176603Y0113835D02*
X0168692Y0113835D01*
X0169691Y0112836D02*
X0175604Y0112836D01*
X0174780Y0111838D02*
X0170592Y0111838D01*
X0170592Y0110839D02*
X0174366Y0110839D01*
X0173953Y0109841D02*
X0170592Y0109841D01*
X0170592Y0108842D02*
X0173792Y0108842D01*
X0173792Y0107844D02*
X0170592Y0107844D01*
X0170592Y0106845D02*
X0173792Y0106845D01*
X0173792Y0105847D02*
X0170592Y0105847D01*
X0170592Y0104848D02*
X0173792Y0104848D01*
X0173792Y0103850D02*
X0170377Y0103850D01*
X0169378Y0102851D02*
X0173792Y0102851D01*
X0173792Y0101853D02*
X0168380Y0101853D01*
X0167381Y0100854D02*
X0173792Y0100854D01*
X0173792Y0099856D02*
X0166382Y0099856D01*
X0165384Y0098857D02*
X0173792Y0098857D01*
X0173792Y0097859D02*
X0148392Y0097859D01*
X0148392Y0098857D02*
X0156800Y0098857D01*
X0157157Y0097500D02*
X0165027Y0097500D01*
X0170592Y0091935D01*
X0170592Y0084065D01*
X0165027Y0078500D01*
X0157157Y0078500D01*
X0151592Y0084065D01*
X0151592Y0091935D01*
X0157157Y0097500D01*
X0156517Y0096860D02*
X0148392Y0096860D01*
X0148392Y0095862D02*
X0155518Y0095862D01*
X0154520Y0094863D02*
X0148392Y0094863D01*
X0148392Y0093865D02*
X0153521Y0093865D01*
X0152523Y0092866D02*
X0148392Y0092866D01*
X0148392Y0091868D02*
X0151592Y0091868D01*
X0151592Y0090869D02*
X0148392Y0090869D01*
X0148392Y0089870D02*
X0151592Y0089870D01*
X0151592Y0088872D02*
X0148392Y0088872D01*
X0148392Y0087873D02*
X0151592Y0087873D01*
X0151592Y0086875D02*
X0148392Y0086875D01*
X0148392Y0085876D02*
X0151592Y0085876D01*
X0151592Y0084878D02*
X0148392Y0084878D01*
X0148392Y0083879D02*
X0151777Y0083879D01*
X0152776Y0082881D02*
X0148392Y0082881D01*
X0148392Y0081882D02*
X0153774Y0081882D01*
X0154773Y0080884D02*
X0148392Y0080884D01*
X0148392Y0079885D02*
X0155771Y0079885D01*
X0156770Y0078887D02*
X0148392Y0078887D01*
X0148392Y0077888D02*
X0173792Y0077888D01*
X0173792Y0076890D02*
X0165637Y0076890D01*
X0166636Y0075891D02*
X0173659Y0075891D01*
X0173792Y0078887D02*
X0165414Y0078887D01*
X0166412Y0079885D02*
X0173792Y0079885D01*
X0173792Y0080884D02*
X0167411Y0080884D01*
X0168409Y0081882D02*
X0173792Y0081882D01*
X0173792Y0082881D02*
X0169408Y0082881D01*
X0170406Y0083879D02*
X0173792Y0083879D01*
X0173792Y0084878D02*
X0170592Y0084878D01*
X0170592Y0085876D02*
X0173792Y0085876D01*
X0173792Y0086875D02*
X0170592Y0086875D01*
X0170592Y0087873D02*
X0173792Y0087873D01*
X0173792Y0088872D02*
X0170592Y0088872D01*
X0170592Y0089870D02*
X0173792Y0089870D01*
X0173792Y0090869D02*
X0170592Y0090869D01*
X0170592Y0091868D02*
X0173792Y0091868D01*
X0173792Y0092866D02*
X0169661Y0092866D01*
X0168662Y0093865D02*
X0173792Y0093865D01*
X0173792Y0094863D02*
X0167664Y0094863D01*
X0166665Y0095862D02*
X0173792Y0095862D01*
X0173792Y0096860D02*
X0165667Y0096860D01*
X0155801Y0099856D02*
X0148392Y0099856D01*
X0148392Y0100854D02*
X0154803Y0100854D01*
X0153804Y0101853D02*
X0148392Y0101853D01*
X0148392Y0102851D02*
X0152806Y0102851D01*
X0151807Y0103850D02*
X0148392Y0103850D01*
X0148392Y0104848D02*
X0151592Y0104848D01*
X0151592Y0105847D02*
X0148392Y0105847D01*
X0148392Y0106845D02*
X0151592Y0106845D01*
X0151592Y0107844D02*
X0148392Y0107844D01*
X0148392Y0108842D02*
X0151592Y0108842D01*
X0151592Y0109841D02*
X0148392Y0109841D01*
X0148392Y0110839D02*
X0151592Y0110839D01*
X0151592Y0111838D02*
X0148392Y0111838D01*
X0148392Y0112836D02*
X0152493Y0112836D01*
X0153492Y0113835D02*
X0148392Y0113835D01*
X0148392Y0114833D02*
X0154490Y0114833D01*
X0155489Y0115832D02*
X0148392Y0115832D01*
X0148392Y0116830D02*
X0156487Y0116830D01*
X0166353Y0119826D02*
X0183495Y0119826D01*
X0183105Y0120824D02*
X0179079Y0120824D01*
X0180098Y0121823D02*
X0182086Y0121823D01*
X0181508Y0122821D02*
X0180676Y0122821D01*
X0181064Y0123820D02*
X0181119Y0123820D01*
X0181119Y0124818D02*
X0181064Y0124818D01*
X0181064Y0125817D02*
X0181119Y0125817D01*
X0181119Y0126815D02*
X0181064Y0126815D01*
X0181064Y0127814D02*
X0181119Y0127814D01*
X0181119Y0128812D02*
X0181064Y0128812D01*
X0181064Y0129811D02*
X0181119Y0129811D01*
X0181119Y0130809D02*
X0181064Y0130809D01*
X0181064Y0131808D02*
X0181119Y0131808D01*
X0181353Y0132806D02*
X0180830Y0132806D01*
X0180417Y0133805D02*
X0181767Y0133805D01*
X0182712Y0134803D02*
X0179471Y0134803D01*
X0177567Y0135802D02*
X0184617Y0135802D01*
X0193708Y0135802D02*
X0203570Y0135802D01*
X0204569Y0136801D02*
X0165726Y0136801D01*
X0166725Y0135802D02*
X0168475Y0135802D01*
X0165324Y0138798D02*
X0206566Y0138798D01*
X0207564Y0139796D02*
X0166323Y0139796D01*
X0155861Y0139796D02*
X0153212Y0139796D01*
X0148392Y0154783D02*
X0149640Y0155300D01*
X0154957Y0155300D01*
X0157157Y0157500D01*
X0165027Y0157500D01*
X0167227Y0155300D01*
X0200690Y0155300D01*
X0201897Y0155800D01*
X0207968Y0155800D01*
X0203068Y0160700D01*
X0194920Y0160700D01*
X0193601Y0160154D01*
X0184724Y0160154D01*
X0183070Y0160839D01*
X0181805Y0162104D01*
X0181119Y0163758D01*
X0181119Y0172242D01*
X0181805Y0173895D01*
X0183070Y0175161D01*
X0184724Y0175846D01*
X0193601Y0175846D01*
X0194920Y0175300D01*
X0199092Y0175300D01*
X0199092Y0185200D01*
X0192861Y0185200D01*
X0192061Y0186000D01*
X0164416Y0186000D01*
X0148392Y0169976D01*
X0148392Y0154783D01*
X0148392Y0155772D02*
X0155429Y0155772D01*
X0156428Y0156771D02*
X0148392Y0156771D01*
X0148392Y0157769D02*
X0205999Y0157769D01*
X0206997Y0156771D02*
X0165756Y0156771D01*
X0166755Y0155772D02*
X0201830Y0155772D01*
X0205000Y0158768D02*
X0165295Y0158768D01*
X0165027Y0158500D02*
X0157157Y0158500D01*
X0151592Y0164065D01*
X0151592Y0171935D01*
X0157157Y0177500D01*
X0165027Y0177500D01*
X0167227Y0175300D01*
X0167263Y0175300D01*
X0168583Y0175846D01*
X0177459Y0175846D01*
X0179113Y0175161D01*
X0180379Y0173895D01*
X0181064Y0172242D01*
X0181064Y0163758D01*
X0180379Y0162104D01*
X0179113Y0160839D01*
X0177459Y0160154D01*
X0168583Y0160154D01*
X0167263Y0160700D01*
X0167227Y0160700D01*
X0165027Y0158500D01*
X0166293Y0159766D02*
X0204002Y0159766D01*
X0183249Y0160765D02*
X0178935Y0160765D01*
X0180038Y0161763D02*
X0182146Y0161763D01*
X0181532Y0162762D02*
X0180651Y0162762D01*
X0181064Y0163760D02*
X0181119Y0163760D01*
X0181119Y0164759D02*
X0181064Y0164759D01*
X0181064Y0165757D02*
X0181119Y0165757D01*
X0181119Y0166756D02*
X0181064Y0166756D01*
X0181064Y0167754D02*
X0181119Y0167754D01*
X0181119Y0168753D02*
X0181064Y0168753D01*
X0181064Y0169751D02*
X0181119Y0169751D01*
X0181119Y0170750D02*
X0181064Y0170750D01*
X0181064Y0171748D02*
X0181119Y0171748D01*
X0181329Y0172747D02*
X0180855Y0172747D01*
X0180441Y0173745D02*
X0181742Y0173745D01*
X0182653Y0174744D02*
X0179531Y0174744D01*
X0177710Y0175742D02*
X0184473Y0175742D01*
X0193852Y0175742D02*
X0199092Y0175742D01*
X0199092Y0176741D02*
X0165786Y0176741D01*
X0166784Y0175742D02*
X0168332Y0175742D01*
X0160149Y0181734D02*
X0199092Y0181734D01*
X0199092Y0182732D02*
X0161148Y0182732D01*
X0162146Y0183731D02*
X0199092Y0183731D01*
X0199092Y0184729D02*
X0163145Y0184729D01*
X0164143Y0185728D02*
X0192333Y0185728D01*
X0199092Y0180735D02*
X0159151Y0180735D01*
X0158152Y0179737D02*
X0199092Y0179737D01*
X0199092Y0178738D02*
X0157154Y0178738D01*
X0156155Y0177739D02*
X0199092Y0177739D01*
X0225464Y0173745D02*
X0234066Y0173745D01*
X0234775Y0174744D02*
X0226463Y0174744D01*
X0227461Y0175742D02*
X0235773Y0175742D01*
X0236772Y0176741D02*
X0228460Y0176741D01*
X0229458Y0177739D02*
X0237770Y0177739D01*
X0238769Y0178738D02*
X0230457Y0178738D01*
X0231455Y0179737D02*
X0239767Y0179737D01*
X0240766Y0180735D02*
X0232454Y0180735D01*
X0233452Y0181734D02*
X0241764Y0181734D01*
X0242763Y0182732D02*
X0234451Y0182732D01*
X0235449Y0183731D02*
X0243761Y0183731D01*
X0244760Y0184729D02*
X0236448Y0184729D01*
X0237446Y0185728D02*
X0245758Y0185728D01*
X0246757Y0186726D02*
X0238445Y0186726D01*
X0239443Y0187725D02*
X0247755Y0187725D01*
X0248754Y0188723D02*
X0240442Y0188723D01*
X0241440Y0189722D02*
X0249752Y0189722D01*
X0250751Y0190720D02*
X0242439Y0190720D01*
X0243437Y0191719D02*
X0251749Y0191719D01*
X0252748Y0192717D02*
X0244436Y0192717D01*
X0245434Y0193716D02*
X0253747Y0193716D01*
X0254745Y0194714D02*
X0246433Y0194714D01*
X0247431Y0195713D02*
X0256282Y0195713D01*
X0251425Y0199707D02*
X0341890Y0199707D01*
X0341306Y0200705D02*
X0252424Y0200705D01*
X0253422Y0201704D02*
X0340892Y0201704D01*
X0340792Y0202702D02*
X0254421Y0202702D01*
X0255419Y0203701D02*
X0340236Y0203701D01*
X0339739Y0204699D02*
X0256418Y0204699D01*
X0257416Y0205698D02*
X0339326Y0205698D01*
X0339017Y0206696D02*
X0258415Y0206696D01*
X0259413Y0207695D02*
X0339017Y0207695D01*
X0339017Y0208693D02*
X0260412Y0208693D01*
X0261410Y0209692D02*
X0339017Y0209692D01*
X0339017Y0210690D02*
X0262409Y0210690D01*
X0263407Y0211689D02*
X0339017Y0211689D01*
X0339017Y0212687D02*
X0264406Y0212687D01*
X0265404Y0213686D02*
X0339017Y0213686D01*
X0339132Y0214684D02*
X0266403Y0214684D01*
X0267401Y0215683D02*
X0339545Y0215683D01*
X0339959Y0216681D02*
X0268400Y0216681D01*
X0269398Y0217680D02*
X0340767Y0217680D01*
X0341765Y0218678D02*
X0270397Y0218678D01*
X0271396Y0219677D02*
X0343724Y0219677D01*
X0348460Y0219677D02*
X0353724Y0219677D01*
X0351765Y0218678D02*
X0350419Y0218678D01*
X0358460Y0219677D02*
X0361050Y0219677D01*
X0360792Y0218678D02*
X0360419Y0218678D01*
X0361463Y0220675D02*
X0272394Y0220675D01*
X0273393Y0221674D02*
X0362271Y0221674D01*
X0356942Y0234655D02*
X0193092Y0234655D01*
X0193092Y0235653D02*
X0355943Y0235653D01*
X0352931Y0236652D02*
X0349253Y0236652D01*
X0350747Y0237650D02*
X0351436Y0237650D01*
X0342931Y0236652D02*
X0316729Y0236652D01*
X0317728Y0237650D02*
X0341436Y0237650D01*
X0340438Y0238649D02*
X0318726Y0238649D01*
X0319725Y0239647D02*
X0339823Y0239647D01*
X0339409Y0240646D02*
X0320723Y0240646D01*
X0321722Y0241644D02*
X0339017Y0241644D01*
X0339017Y0242643D02*
X0322720Y0242643D01*
X0323009Y0243641D02*
X0339017Y0243641D01*
X0339017Y0244640D02*
X0323009Y0244640D01*
X0323009Y0245638D02*
X0339017Y0245638D01*
X0339017Y0246637D02*
X0323009Y0246637D01*
X0323009Y0247635D02*
X0339017Y0247635D01*
X0339017Y0248634D02*
X0323009Y0248634D01*
X0323009Y0249632D02*
X0339048Y0249632D01*
X0339462Y0250631D02*
X0323009Y0250631D01*
X0323009Y0251629D02*
X0339875Y0251629D01*
X0340565Y0252628D02*
X0323009Y0252628D01*
X0322255Y0253626D02*
X0341563Y0253626D01*
X0343237Y0254625D02*
X0321256Y0254625D01*
X0320258Y0255623D02*
X0346220Y0255623D01*
X0347218Y0256622D02*
X0319259Y0256622D01*
X0318309Y0257620D02*
X0348397Y0257620D01*
X0363167Y0247700D02*
X0363167Y0243421D01*
X0363287Y0243300D01*
X0368297Y0243300D01*
X0363897Y0247700D01*
X0363167Y0247700D01*
X0363167Y0247635D02*
X0363961Y0247635D01*
X0363167Y0246637D02*
X0364960Y0246637D01*
X0365958Y0245638D02*
X0363167Y0245638D01*
X0363167Y0244640D02*
X0366957Y0244640D01*
X0367955Y0243641D02*
X0363167Y0243641D01*
X0375956Y0250631D02*
X0400966Y0250631D01*
X0401964Y0249632D02*
X0376955Y0249632D01*
X0377953Y0248634D02*
X0402963Y0248634D01*
X0396847Y0251629D02*
X0374958Y0251629D01*
X0373959Y0252628D02*
X0395848Y0252628D01*
X0395280Y0253626D02*
X0372961Y0253626D01*
X0371962Y0254625D02*
X0394899Y0254625D01*
X0394899Y0255623D02*
X0370964Y0255623D01*
X0369965Y0256622D02*
X0394899Y0256622D01*
X0385856Y0257620D02*
X0368787Y0257620D01*
X0384033Y0260616D02*
X0318309Y0260616D01*
X0318309Y0261614D02*
X0384033Y0261614D01*
X0384033Y0262613D02*
X0318309Y0262613D01*
X0318309Y0263611D02*
X0384033Y0263611D01*
X0384033Y0264610D02*
X0318309Y0264610D01*
X0318309Y0265608D02*
X0384033Y0265608D01*
X0384145Y0266607D02*
X0318309Y0266607D01*
X0318309Y0267605D02*
X0384559Y0267605D01*
X0384472Y0268604D02*
X0318309Y0268604D01*
X0318309Y0269603D02*
X0384058Y0269603D01*
X0384033Y0270601D02*
X0318309Y0270601D01*
X0318309Y0271600D02*
X0384033Y0271600D01*
X0384033Y0272598D02*
X0318309Y0272598D01*
X0318309Y0273597D02*
X0384033Y0273597D01*
X0384033Y0274595D02*
X0318309Y0274595D01*
X0318309Y0275594D02*
X0384035Y0275594D01*
X0384439Y0276592D02*
X0318309Y0276592D01*
X0318309Y0277591D02*
X0376369Y0277591D01*
X0375371Y0278589D02*
X0318309Y0278589D01*
X0318309Y0279588D02*
X0374372Y0279588D01*
X0373374Y0280586D02*
X0318810Y0280586D01*
X0303709Y0279588D02*
X0252812Y0279588D01*
X0253810Y0280586D02*
X0303374Y0280586D01*
X0303709Y0278589D02*
X0251813Y0278589D01*
X0250815Y0277591D02*
X0303709Y0277591D01*
X0303709Y0276592D02*
X0194583Y0276592D01*
X0193585Y0275594D02*
X0303709Y0275594D01*
X0303709Y0274595D02*
X0193092Y0274595D01*
X0193092Y0273597D02*
X0303709Y0273597D01*
X0303709Y0272598D02*
X0193092Y0272598D01*
X0193092Y0271600D02*
X0303709Y0271600D01*
X0303709Y0270601D02*
X0193092Y0270601D01*
X0193092Y0269603D02*
X0303709Y0269603D01*
X0303709Y0268604D02*
X0247859Y0268604D01*
X0250855Y0267605D02*
X0303709Y0267605D01*
X0303709Y0266607D02*
X0252584Y0266607D01*
X0253615Y0265608D02*
X0303709Y0265608D01*
X0303709Y0264610D02*
X0254614Y0264610D01*
X0255207Y0263611D02*
X0303709Y0263611D01*
X0303709Y0262613D02*
X0255784Y0262613D01*
X0256201Y0261614D02*
X0303709Y0261614D01*
X0303709Y0260616D02*
X0256468Y0260616D01*
X0256736Y0259617D02*
X0285754Y0259617D01*
X0284756Y0258619D02*
X0256792Y0258619D01*
X0256795Y0257620D02*
X0283757Y0257620D01*
X0282759Y0256622D02*
X0257794Y0256622D01*
X0258792Y0255623D02*
X0281760Y0255623D01*
X0296263Y0259617D02*
X0303709Y0259617D01*
X0303709Y0258619D02*
X0297262Y0258619D01*
X0298261Y0257620D02*
X0303709Y0257620D01*
X0302759Y0256622D02*
X0299259Y0256622D01*
X0300258Y0255623D02*
X0301760Y0255623D01*
X0318309Y0258619D02*
X0384857Y0258619D01*
X0384362Y0259617D02*
X0318309Y0259617D01*
X0301294Y0240646D02*
X0300723Y0240646D01*
X0299725Y0239647D02*
X0302293Y0239647D01*
X0303291Y0238649D02*
X0298726Y0238649D01*
X0297728Y0237650D02*
X0304290Y0237650D01*
X0305288Y0236652D02*
X0296729Y0236652D01*
X0285288Y0236652D02*
X0193092Y0236652D01*
X0193092Y0237650D02*
X0284290Y0237650D01*
X0283291Y0238649D02*
X0193092Y0238649D01*
X0193092Y0239647D02*
X0282293Y0239647D01*
X0268807Y0233656D02*
X0193092Y0233656D01*
X0193092Y0232658D02*
X0267123Y0232658D01*
X0266124Y0231659D02*
X0193092Y0231659D01*
X0192700Y0230661D02*
X0265126Y0230661D01*
X0264127Y0229662D02*
X0192286Y0229662D01*
X0191655Y0228664D02*
X0263129Y0228664D01*
X0262130Y0227665D02*
X0190656Y0227665D01*
X0189658Y0226667D02*
X0261132Y0226667D01*
X0260133Y0225668D02*
X0188659Y0225668D01*
X0187661Y0224670D02*
X0259135Y0224670D01*
X0258136Y0223671D02*
X0186662Y0223671D01*
X0185664Y0222672D02*
X0257138Y0222672D01*
X0256139Y0221674D02*
X0184665Y0221674D01*
X0183667Y0220675D02*
X0255141Y0220675D01*
X0254142Y0219677D02*
X0182668Y0219677D01*
X0181670Y0218678D02*
X0253144Y0218678D01*
X0252145Y0217680D02*
X0180671Y0217680D01*
X0179673Y0216681D02*
X0251147Y0216681D01*
X0250148Y0215683D02*
X0178674Y0215683D01*
X0177676Y0214684D02*
X0249150Y0214684D01*
X0248151Y0213686D02*
X0176677Y0213686D01*
X0175679Y0212687D02*
X0247153Y0212687D01*
X0246154Y0211689D02*
X0174680Y0211689D01*
X0173682Y0210690D02*
X0245156Y0210690D01*
X0244157Y0209692D02*
X0172683Y0209692D01*
X0171685Y0208693D02*
X0243159Y0208693D01*
X0242160Y0207695D02*
X0170686Y0207695D01*
X0163868Y0220675D02*
X0108667Y0220675D01*
X0107668Y0219677D02*
X0133920Y0219677D01*
X0134508Y0222672D02*
X0165865Y0222672D01*
X0164866Y0221674D02*
X0109665Y0221674D01*
X0098853Y0230661D02*
X0093652Y0230661D01*
X0094650Y0231659D02*
X0099851Y0231659D01*
X0100850Y0232658D02*
X0095649Y0232658D01*
X0096647Y0233656D02*
X0101848Y0233656D01*
X0102847Y0234655D02*
X0097646Y0234655D01*
X0098644Y0235653D02*
X0103292Y0235653D01*
X0103292Y0236652D02*
X0099643Y0236652D01*
X0100642Y0237650D02*
X0103292Y0237650D01*
X0103622Y0238649D02*
X0101640Y0238649D01*
X0102639Y0239647D02*
X0104036Y0239647D01*
X0103637Y0240646D02*
X0104449Y0240646D01*
X0104636Y0241644D02*
X0105405Y0241644D01*
X0105634Y0242643D02*
X0106404Y0242643D01*
X0106633Y0243641D02*
X0108433Y0243641D01*
X0097854Y0229662D02*
X0092653Y0229662D01*
X0091655Y0228664D02*
X0096856Y0228664D01*
X0095857Y0227665D02*
X0090656Y0227665D01*
X0089658Y0226667D02*
X0094859Y0226667D01*
X0093860Y0225668D02*
X0088659Y0225668D01*
X0087661Y0224670D02*
X0092862Y0224670D01*
X0091863Y0223671D02*
X0086662Y0223671D01*
X0085664Y0222672D02*
X0090865Y0222672D01*
X0089866Y0221674D02*
X0084665Y0221674D01*
X0083667Y0220675D02*
X0088868Y0220675D01*
X0087869Y0219677D02*
X0082668Y0219677D01*
X0081670Y0218678D02*
X0086871Y0218678D01*
X0085872Y0217680D02*
X0080671Y0217680D01*
X0079673Y0216681D02*
X0084874Y0216681D01*
X0083875Y0215683D02*
X0078674Y0215683D01*
X0077676Y0214684D02*
X0082877Y0214684D01*
X0081878Y0213686D02*
X0076677Y0213686D01*
X0075679Y0212687D02*
X0080880Y0212687D01*
X0079881Y0211689D02*
X0074680Y0211689D01*
X0073682Y0210690D02*
X0078883Y0210690D01*
X0077884Y0209692D02*
X0072683Y0209692D01*
X0071685Y0208693D02*
X0076886Y0208693D01*
X0075887Y0207695D02*
X0070686Y0207695D01*
X0069688Y0206696D02*
X0074889Y0206696D01*
X0073890Y0205698D02*
X0068689Y0205698D01*
X0068092Y0204699D02*
X0072892Y0204699D01*
X0071893Y0203701D02*
X0068092Y0203701D01*
X0068092Y0202702D02*
X0070895Y0202702D01*
X0070049Y0201704D02*
X0068092Y0201704D01*
X0068092Y0200705D02*
X0069636Y0200705D01*
X0069222Y0199707D02*
X0068092Y0199707D01*
X0068092Y0198708D02*
X0069092Y0198708D01*
X0069092Y0197710D02*
X0068092Y0197710D01*
X0068092Y0196711D02*
X0069092Y0196711D01*
X0069092Y0195713D02*
X0068092Y0195713D01*
X0068092Y0194714D02*
X0069092Y0194714D01*
X0069092Y0193716D02*
X0068092Y0193716D01*
X0068092Y0192717D02*
X0069092Y0192717D01*
X0069092Y0191719D02*
X0068092Y0191719D01*
X0068092Y0190720D02*
X0069092Y0190720D01*
X0069092Y0189722D02*
X0068092Y0189722D01*
X0068092Y0188723D02*
X0069092Y0188723D01*
X0069092Y0187725D02*
X0068092Y0187725D01*
X0068092Y0186726D02*
X0069092Y0186726D01*
X0069092Y0185728D02*
X0068092Y0185728D01*
X0068092Y0184729D02*
X0069092Y0184729D01*
X0069092Y0183731D02*
X0068092Y0183731D01*
X0068092Y0182732D02*
X0069092Y0182732D01*
X0069092Y0181734D02*
X0068092Y0181734D01*
X0068092Y0180735D02*
X0069092Y0180735D01*
X0069092Y0179737D02*
X0068092Y0179737D01*
X0068092Y0178738D02*
X0069092Y0178738D01*
X0069092Y0177739D02*
X0068092Y0177739D01*
X0068092Y0176741D02*
X0069092Y0176741D01*
X0069092Y0175742D02*
X0068092Y0175742D01*
X0068092Y0174744D02*
X0069092Y0174744D01*
X0069092Y0173745D02*
X0068092Y0173745D01*
X0068092Y0172747D02*
X0069092Y0172747D01*
X0069092Y0171748D02*
X0068092Y0171748D01*
X0068092Y0170750D02*
X0069092Y0170750D01*
X0069092Y0169751D02*
X0068092Y0169751D01*
X0068092Y0168753D02*
X0069092Y0168753D01*
X0069092Y0167754D02*
X0068092Y0167754D01*
X0068092Y0166756D02*
X0069092Y0166756D01*
X0069092Y0165757D02*
X0068092Y0165757D01*
X0068092Y0164759D02*
X0069092Y0164759D01*
X0069092Y0163760D02*
X0068092Y0163760D01*
X0068092Y0162762D02*
X0069092Y0162762D01*
X0069092Y0161763D02*
X0068092Y0161763D01*
X0068092Y0160765D02*
X0069092Y0160765D01*
X0069092Y0159766D02*
X0068092Y0159766D01*
X0068092Y0158768D02*
X0069092Y0158768D01*
X0069092Y0157769D02*
X0068092Y0157769D01*
X0068092Y0156771D02*
X0069092Y0156771D01*
X0069092Y0155772D02*
X0068092Y0155772D01*
X0068092Y0154774D02*
X0069092Y0154774D01*
X0069092Y0153775D02*
X0068092Y0153775D01*
X0068092Y0152777D02*
X0069092Y0152777D01*
X0069092Y0151778D02*
X0068092Y0151778D01*
X0068092Y0150780D02*
X0069092Y0150780D01*
X0069092Y0149781D02*
X0068092Y0149781D01*
X0068092Y0148783D02*
X0069092Y0148783D01*
X0069092Y0147784D02*
X0068092Y0147784D01*
X0068092Y0146786D02*
X0069092Y0146786D01*
X0069092Y0145787D02*
X0068092Y0145787D01*
X0068092Y0144789D02*
X0069092Y0144789D01*
X0069092Y0143790D02*
X0068092Y0143790D01*
X0068092Y0142792D02*
X0069092Y0142792D01*
X0069092Y0141793D02*
X0068092Y0141793D01*
X0068092Y0140795D02*
X0069092Y0140795D01*
X0069092Y0139796D02*
X0068092Y0139796D01*
X0068092Y0138798D02*
X0069092Y0138798D01*
X0069092Y0137799D02*
X0068092Y0137799D01*
X0068092Y0136801D02*
X0069092Y0136801D01*
X0069092Y0135802D02*
X0067758Y0135802D01*
X0067345Y0134803D02*
X0069092Y0134803D01*
X0069092Y0133805D02*
X0066796Y0133805D01*
X0065798Y0132806D02*
X0069092Y0132806D01*
X0069092Y0131808D02*
X0064799Y0131808D01*
X0063801Y0130809D02*
X0069092Y0130809D01*
X0069092Y0129811D02*
X0062802Y0129811D01*
X0061804Y0128812D02*
X0069092Y0128812D01*
X0069092Y0127814D02*
X0060805Y0127814D01*
X0059807Y0126815D02*
X0069092Y0126815D01*
X0069092Y0125817D02*
X0058808Y0125817D01*
X0057810Y0124818D02*
X0069092Y0124818D01*
X0069092Y0123820D02*
X0056811Y0123820D01*
X0055813Y0122821D02*
X0069092Y0122821D01*
X0069092Y0121823D02*
X0054471Y0121823D01*
X0047351Y0120824D02*
X0069092Y0120824D01*
X0069092Y0119826D02*
X0046353Y0119826D01*
X0045354Y0118827D02*
X0069092Y0118827D01*
X0069092Y0117829D02*
X0023092Y0117829D01*
X0023092Y0118827D02*
X0036830Y0118827D01*
X0035831Y0119826D02*
X0023092Y0119826D01*
X0023092Y0120824D02*
X0034833Y0120824D01*
X0033834Y0121823D02*
X0023092Y0121823D01*
X0023092Y0122821D02*
X0032835Y0122821D01*
X0031837Y0123820D02*
X0023092Y0123820D01*
X0023092Y0124818D02*
X0031592Y0124818D01*
X0031592Y0125817D02*
X0023092Y0125817D01*
X0023092Y0126815D02*
X0031592Y0126815D01*
X0031592Y0127814D02*
X0023092Y0127814D01*
X0023092Y0128812D02*
X0031592Y0128812D01*
X0031592Y0129811D02*
X0023092Y0129811D01*
X0023092Y0130809D02*
X0031592Y0130809D01*
X0031592Y0131808D02*
X0023092Y0131808D01*
X0023092Y0132806D02*
X0032463Y0132806D01*
X0033462Y0133805D02*
X0023092Y0133805D01*
X0023092Y0134803D02*
X0034460Y0134803D01*
X0035459Y0135802D02*
X0023092Y0135802D01*
X0023092Y0136801D02*
X0036457Y0136801D01*
X0036859Y0138798D02*
X0023092Y0138798D01*
X0023092Y0139796D02*
X0035861Y0139796D01*
X0034862Y0140795D02*
X0023092Y0140795D01*
X0023092Y0141793D02*
X0033864Y0141793D01*
X0032865Y0142792D02*
X0023092Y0142792D01*
X0023092Y0143790D02*
X0031867Y0143790D01*
X0031592Y0144789D02*
X0023092Y0144789D01*
X0023092Y0145787D02*
X0031592Y0145787D01*
X0031592Y0146786D02*
X0023092Y0146786D01*
X0023092Y0147784D02*
X0031592Y0147784D01*
X0031592Y0148783D02*
X0023092Y0148783D01*
X0023092Y0149781D02*
X0031592Y0149781D01*
X0031592Y0150780D02*
X0023092Y0150780D01*
X0023092Y0151778D02*
X0031592Y0151778D01*
X0032434Y0152777D02*
X0023092Y0152777D01*
X0023092Y0153775D02*
X0033432Y0153775D01*
X0034431Y0154774D02*
X0023092Y0154774D01*
X0023092Y0155772D02*
X0035429Y0155772D01*
X0036428Y0156771D02*
X0023092Y0156771D01*
X0046755Y0155772D02*
X0054092Y0155772D01*
X0054092Y0154774D02*
X0047753Y0154774D01*
X0048752Y0153775D02*
X0054092Y0153775D01*
X0054092Y0152777D02*
X0049750Y0152777D01*
X0050592Y0151778D02*
X0054092Y0151778D01*
X0054092Y0150780D02*
X0050592Y0150780D01*
X0050592Y0149781D02*
X0054092Y0149781D01*
X0054092Y0148783D02*
X0050592Y0148783D01*
X0050592Y0147784D02*
X0054092Y0147784D01*
X0054092Y0146786D02*
X0050592Y0146786D01*
X0050592Y0145787D02*
X0054092Y0145787D01*
X0054092Y0144789D02*
X0050592Y0144789D01*
X0050317Y0143790D02*
X0054092Y0143790D01*
X0054092Y0142792D02*
X0049318Y0142792D01*
X0048320Y0141793D02*
X0054092Y0141793D01*
X0053987Y0140795D02*
X0047321Y0140795D01*
X0046323Y0139796D02*
X0052988Y0139796D01*
X0051990Y0138798D02*
X0045324Y0138798D01*
X0045726Y0136801D02*
X0049993Y0136801D01*
X0050991Y0137799D02*
X0023092Y0137799D01*
X0046725Y0135802D02*
X0048994Y0135802D01*
X0045697Y0116830D02*
X0069092Y0116830D01*
X0069092Y0115832D02*
X0046695Y0115832D01*
X0047694Y0114833D02*
X0069092Y0114833D01*
X0069092Y0113835D02*
X0048692Y0113835D01*
X0049691Y0112836D02*
X0069092Y0112836D01*
X0069092Y0111838D02*
X0050592Y0111838D01*
X0050592Y0110839D02*
X0069092Y0110839D01*
X0069092Y0109841D02*
X0050592Y0109841D01*
X0050592Y0108842D02*
X0069092Y0108842D01*
X0069092Y0107844D02*
X0050592Y0107844D01*
X0050592Y0106845D02*
X0069092Y0106845D01*
X0069092Y0105847D02*
X0050592Y0105847D01*
X0050592Y0104848D02*
X0069092Y0104848D01*
X0069092Y0103850D02*
X0050377Y0103850D01*
X0049378Y0102851D02*
X0069092Y0102851D01*
X0069092Y0101853D02*
X0048380Y0101853D01*
X0048092Y0100854D02*
X0069092Y0100854D01*
X0069092Y0099856D02*
X0048092Y0099856D01*
X0048092Y0098857D02*
X0069092Y0098857D01*
X0069092Y0097859D02*
X0048092Y0097859D01*
X0048092Y0096860D02*
X0069092Y0096860D01*
X0069092Y0095862D02*
X0048092Y0095862D01*
X0048092Y0094863D02*
X0069092Y0094863D01*
X0069092Y0093865D02*
X0048662Y0093865D01*
X0049661Y0092866D02*
X0069092Y0092866D01*
X0069092Y0091868D02*
X0050592Y0091868D01*
X0050592Y0090869D02*
X0069092Y0090869D01*
X0069092Y0089870D02*
X0050592Y0089870D01*
X0050592Y0088872D02*
X0069092Y0088872D01*
X0069092Y0087873D02*
X0050592Y0087873D01*
X0050592Y0086875D02*
X0069092Y0086875D01*
X0069069Y0085876D02*
X0050592Y0085876D01*
X0050592Y0084878D02*
X0068070Y0084878D01*
X0067072Y0083879D02*
X0050406Y0083879D01*
X0049408Y0082881D02*
X0066073Y0082881D01*
X0065075Y0081882D02*
X0048409Y0081882D01*
X0047411Y0080884D02*
X0064076Y0080884D01*
X0063078Y0079885D02*
X0046412Y0079885D01*
X0045414Y0078887D02*
X0062079Y0078887D01*
X0061081Y0077888D02*
X0033092Y0077888D01*
X0033092Y0076890D02*
X0036547Y0076890D01*
X0035548Y0075891D02*
X0033092Y0075891D01*
X0033092Y0074893D02*
X0034550Y0074893D01*
X0033551Y0073894D02*
X0033092Y0073894D01*
X0033092Y0078887D02*
X0036770Y0078887D01*
X0035771Y0079885D02*
X0033092Y0079885D01*
X0033092Y0080884D02*
X0034773Y0080884D01*
X0033774Y0081882D02*
X0033092Y0081882D01*
X0045637Y0076890D02*
X0060082Y0076890D01*
X0059084Y0075891D02*
X0046636Y0075891D01*
X0024047Y0100854D02*
X0023092Y0100854D01*
X0023092Y0101853D02*
X0025045Y0101853D01*
X0025158Y0101965D02*
X0025158Y0101965D01*
X0026044Y0102851D02*
X0023092Y0102851D01*
X0023092Y0103850D02*
X0027042Y0103850D01*
X0029333Y0104848D02*
X0023092Y0104848D01*
X0023092Y0105847D02*
X0031592Y0105847D01*
X0031592Y0106845D02*
X0023092Y0106845D01*
X0023092Y0107844D02*
X0031592Y0107844D01*
X0031592Y0108842D02*
X0023092Y0108842D01*
X0023092Y0109841D02*
X0031592Y0109841D01*
X0031592Y0110839D02*
X0023092Y0110839D01*
X0023092Y0111838D02*
X0031592Y0111838D01*
X0032493Y0112836D02*
X0023092Y0112836D01*
X0023092Y0113835D02*
X0033492Y0113835D01*
X0034490Y0114833D02*
X0023092Y0114833D01*
X0023092Y0115832D02*
X0035489Y0115832D01*
X0036487Y0116830D02*
X0023092Y0116830D01*
X0108092Y0054923D02*
X0134465Y0054923D01*
X0134879Y0053924D02*
X0108092Y0053924D01*
X0108092Y0052926D02*
X0135843Y0052926D01*
X0136841Y0051927D02*
X0108092Y0051927D01*
X0107811Y0050929D02*
X0137840Y0050929D01*
X0138838Y0049930D02*
X0107397Y0049930D01*
X0106923Y0048932D02*
X0139837Y0048932D01*
X0140835Y0047933D02*
X0105924Y0047933D01*
X0104926Y0046934D02*
X0141834Y0046934D01*
X0142832Y0045936D02*
X0103927Y0045936D01*
X0102929Y0044937D02*
X0143831Y0044937D01*
X0144829Y0043939D02*
X0101930Y0043939D01*
X0100932Y0042940D02*
X0145828Y0042940D01*
X0146826Y0041942D02*
X0099758Y0041942D01*
X0149052Y0040943D02*
X0047470Y0040943D01*
X0046472Y0039945D02*
X0155712Y0039945D01*
X0156710Y0038946D02*
X0045473Y0038946D01*
X0045577Y0036949D02*
X0156606Y0036949D01*
X0155608Y0035951D02*
X0046576Y0035951D01*
X0047575Y0034952D02*
X0154609Y0034952D01*
X0153611Y0033954D02*
X0048573Y0033954D01*
X0049572Y0032955D02*
X0152612Y0032955D01*
X0151614Y0031957D02*
X0050570Y0031957D01*
X0050592Y0030958D02*
X0151592Y0030958D01*
X0151592Y0029960D02*
X0050592Y0029960D01*
X0050592Y0028961D02*
X0151592Y0028961D01*
X0151592Y0027963D02*
X0050592Y0027963D01*
X0050592Y0026964D02*
X0151592Y0026964D01*
X0151592Y0025966D02*
X0050592Y0025966D01*
X0050592Y0024967D02*
X0151592Y0024967D01*
X0151688Y0023969D02*
X0050496Y0023969D01*
X0049497Y0022970D02*
X0152687Y0022970D01*
X0153685Y0021972D02*
X0048499Y0021972D01*
X0047500Y0020973D02*
X0154684Y0020973D01*
X0155682Y0019975D02*
X0046502Y0019975D01*
X0045503Y0018976D02*
X0156681Y0018976D01*
X0165503Y0018976D02*
X0199792Y0018976D01*
X0200790Y0017978D02*
X0006092Y0017978D01*
X0006092Y0018976D02*
X0036681Y0018976D01*
X0035682Y0019975D02*
X0006092Y0019975D01*
X0006092Y0020973D02*
X0034684Y0020973D01*
X0022354Y0021972D02*
X0006092Y0021972D01*
X0006092Y0022970D02*
X0021222Y0022970D01*
X0020224Y0023969D02*
X0006092Y0023969D01*
X0006092Y0024967D02*
X0019225Y0024967D01*
X0018227Y0025966D02*
X0006092Y0025966D01*
X0006092Y0026964D02*
X0017228Y0026964D01*
X0016230Y0027963D02*
X0006092Y0027963D01*
X0006092Y0028961D02*
X0015231Y0028961D01*
X0014233Y0029960D02*
X0006092Y0029960D01*
X0006092Y0030958D02*
X0013234Y0030958D01*
X0012236Y0031957D02*
X0006092Y0031957D01*
X0006092Y0032955D02*
X0011237Y0032955D01*
X0010239Y0033954D02*
X0006092Y0033954D01*
X0006092Y0034952D02*
X0009777Y0034952D01*
X0009364Y0035951D02*
X0006092Y0035951D01*
X0006092Y0036949D02*
X0009092Y0036949D01*
X0009092Y0037948D02*
X0006092Y0037948D01*
X0006092Y0038946D02*
X0009092Y0038946D01*
X0009092Y0039945D02*
X0006092Y0039945D01*
X0006092Y0040943D02*
X0009092Y0040943D01*
X0009092Y0041942D02*
X0006092Y0041942D01*
X0006092Y0042940D02*
X0009092Y0042940D01*
X0009092Y0043939D02*
X0006092Y0043939D01*
X0006092Y0044937D02*
X0009092Y0044937D01*
X0009092Y0045936D02*
X0006092Y0045936D01*
X0006092Y0046934D02*
X0009092Y0046934D01*
X0009092Y0047933D02*
X0006092Y0047933D01*
X0006092Y0048932D02*
X0009092Y0048932D01*
X0009092Y0049930D02*
X0006092Y0049930D01*
X0027042Y0036949D02*
X0036606Y0036949D01*
X0035608Y0035951D02*
X0028040Y0035951D01*
X0006092Y0016979D02*
X0201789Y0016979D01*
X0202787Y0015981D02*
X0006092Y0015981D01*
X0006092Y0014982D02*
X0203092Y0014982D01*
X0203795Y0013984D02*
X0006092Y0013984D01*
X0006092Y0012985D02*
X0204793Y0012985D01*
X0205792Y0011987D02*
X0006092Y0011987D01*
X0006092Y0010988D02*
X0206790Y0010988D01*
X0198793Y0019975D02*
X0166502Y0019975D01*
X0165473Y0038946D02*
X0223792Y0038946D01*
X0223792Y0039945D02*
X0166472Y0039945D01*
X0166606Y0055921D02*
X0198689Y0055921D01*
X0199688Y0056920D02*
X0165607Y0056920D01*
X0165444Y0058917D02*
X0201685Y0058917D01*
X0202683Y0059915D02*
X0166442Y0059915D01*
X0156740Y0058917D02*
X0150499Y0058917D01*
X0149500Y0059915D02*
X0155742Y0059915D01*
X0154743Y0060914D02*
X0148502Y0060914D01*
X0148392Y0061912D02*
X0153745Y0061912D01*
X0152746Y0062911D02*
X0148392Y0062911D01*
X0148392Y0063909D02*
X0151748Y0063909D01*
X0151592Y0064908D02*
X0148392Y0064908D01*
X0148392Y0065906D02*
X0151592Y0065906D01*
X0151592Y0066905D02*
X0148392Y0066905D01*
X0148392Y0067903D02*
X0151592Y0067903D01*
X0151592Y0068902D02*
X0148392Y0068902D01*
X0148392Y0069900D02*
X0151592Y0069900D01*
X0151592Y0070899D02*
X0148392Y0070899D01*
X0148392Y0071897D02*
X0151592Y0071897D01*
X0152553Y0072896D02*
X0148392Y0072896D01*
X0148392Y0073894D02*
X0153551Y0073894D01*
X0154550Y0074893D02*
X0148392Y0074893D01*
X0148392Y0075891D02*
X0155548Y0075891D01*
X0156547Y0076890D02*
X0148392Y0076890D01*
X0178060Y0060914D02*
X0203682Y0060914D01*
X0204680Y0061912D02*
X0180328Y0061912D01*
X0181326Y0062911D02*
X0205679Y0062911D01*
X0206677Y0063909D02*
X0182325Y0063909D01*
X0183323Y0064908D02*
X0207676Y0064908D01*
X0208674Y0065906D02*
X0184322Y0065906D01*
X0185320Y0066905D02*
X0209673Y0066905D01*
X0210671Y0067903D02*
X0186319Y0067903D01*
X0187296Y0068902D02*
X0211670Y0068902D01*
X0212668Y0069900D02*
X0187709Y0069900D01*
X0188123Y0070899D02*
X0213667Y0070899D01*
X0213792Y0071897D02*
X0188392Y0071897D01*
X0188392Y0072896D02*
X0213792Y0072896D01*
X0213792Y0073894D02*
X0188392Y0073894D01*
X0188392Y0074893D02*
X0213792Y0074893D01*
X0213792Y0075891D02*
X0188392Y0075891D01*
X0188392Y0076890D02*
X0213792Y0076890D01*
X0213792Y0077888D02*
X0188392Y0077888D01*
X0188392Y0078887D02*
X0213792Y0078887D01*
X0213792Y0079885D02*
X0188392Y0079885D01*
X0188392Y0080884D02*
X0206894Y0080884D01*
X0205896Y0081882D02*
X0188392Y0081882D01*
X0188392Y0082881D02*
X0204897Y0082881D01*
X0203899Y0083879D02*
X0188392Y0083879D01*
X0188392Y0084878D02*
X0203092Y0084878D01*
X0196902Y0085876D02*
X0188392Y0085876D01*
X0188392Y0086875D02*
X0195903Y0086875D01*
X0194905Y0087873D02*
X0188392Y0087873D01*
X0188392Y0088872D02*
X0193906Y0088872D01*
X0193092Y0089870D02*
X0188392Y0089870D01*
X0188392Y0090869D02*
X0193092Y0090869D01*
X0193092Y0091868D02*
X0188392Y0091868D01*
X0188392Y0092866D02*
X0193092Y0092866D01*
X0193092Y0093865D02*
X0188392Y0093865D01*
X0188392Y0094863D02*
X0193092Y0094863D01*
X0193092Y0095862D02*
X0188392Y0095862D01*
X0188392Y0096860D02*
X0193638Y0096860D01*
X0194637Y0097859D02*
X0188392Y0097859D01*
X0188392Y0098857D02*
X0195635Y0098857D01*
X0196634Y0099856D02*
X0188392Y0099856D01*
X0188392Y0100854D02*
X0197632Y0100854D01*
X0204551Y0100854D02*
X0214263Y0100854D01*
X0213849Y0099856D02*
X0208617Y0099856D01*
X0210559Y0098857D02*
X0213639Y0098857D01*
X0213639Y0097859D02*
X0211557Y0097859D01*
X0212556Y0096860D02*
X0213639Y0096860D01*
X0215175Y0101853D02*
X0188392Y0101853D01*
X0188392Y0102851D02*
X0216999Y0102851D01*
X0223792Y0103850D02*
X0188392Y0103850D01*
X0188392Y0104848D02*
X0223792Y0104848D01*
X0197478Y0120700D02*
X0197078Y0120300D01*
X0193955Y0120300D01*
X0194920Y0120700D01*
X0197478Y0120700D01*
X0251792Y0150846D02*
X0254421Y0150846D01*
X0253930Y0151337D01*
X0253245Y0152991D01*
X0253245Y0159426D01*
X0251792Y0159426D01*
X0251792Y0150846D01*
X0251792Y0151778D02*
X0253748Y0151778D01*
X0253334Y0152777D02*
X0251792Y0152777D01*
X0251792Y0153775D02*
X0253245Y0153775D01*
X0253245Y0154774D02*
X0251792Y0154774D01*
X0251792Y0155772D02*
X0253245Y0155772D01*
X0253245Y0156771D02*
X0251792Y0156771D01*
X0251792Y0157769D02*
X0253245Y0157769D01*
X0253245Y0158768D02*
X0251792Y0158768D01*
X0253245Y0170826D02*
X0253245Y0177093D01*
X0246904Y0170752D01*
X0247084Y0170826D01*
X0253245Y0170826D01*
X0253245Y0171748D02*
X0247901Y0171748D01*
X0248900Y0172747D02*
X0253245Y0172747D01*
X0253245Y0173745D02*
X0249898Y0173745D01*
X0250897Y0174744D02*
X0253245Y0174744D01*
X0253245Y0175742D02*
X0251895Y0175742D01*
X0252894Y0176741D02*
X0253245Y0176741D01*
X0257767Y0181614D02*
X0264033Y0181614D01*
X0264033Y0184800D01*
X0260953Y0184800D01*
X0257767Y0181614D01*
X0257886Y0181734D02*
X0264033Y0181734D01*
X0264033Y0182732D02*
X0258885Y0182732D01*
X0259883Y0183731D02*
X0264033Y0183731D01*
X0264033Y0184729D02*
X0260882Y0184729D01*
X0283334Y0172747D02*
X0284596Y0172747D01*
X0284525Y0172576D02*
X0284525Y0170800D01*
X0281387Y0170800D01*
X0284525Y0173938D01*
X0284525Y0173424D01*
X0284700Y0173000D01*
X0284525Y0172576D01*
X0284525Y0171748D02*
X0282336Y0171748D01*
X0284333Y0173745D02*
X0284525Y0173745D01*
X0302011Y0173000D02*
X0302186Y0172576D01*
X0302186Y0168424D01*
X0302011Y0168000D01*
X0302186Y0167576D01*
X0302186Y0163424D01*
X0302011Y0163000D01*
X0302186Y0162576D01*
X0302186Y0158424D01*
X0302011Y0158000D01*
X0302186Y0157576D01*
X0302186Y0153424D01*
X0301501Y0151770D01*
X0300235Y0150504D01*
X0298581Y0149819D01*
X0291392Y0149819D01*
X0291392Y0144114D01*
X0292778Y0145500D01*
X0299406Y0145500D01*
X0304092Y0140814D01*
X0304092Y0139824D01*
X0307792Y0136124D01*
X0307792Y0136438D01*
X0312654Y0141300D01*
X0319530Y0141300D01*
X0324392Y0136438D01*
X0324392Y0135300D01*
X0379229Y0135300D01*
X0385479Y0141550D01*
X0396704Y0141550D01*
X0397954Y0140300D01*
X0438068Y0140300D01*
X0465468Y0167700D01*
X0461408Y0167700D01*
X0461200Y0167492D01*
X0459546Y0166807D01*
X0457020Y0166807D01*
X0433720Y0143507D01*
X0431772Y0142700D01*
X0325038Y0142700D01*
X0323090Y0143507D01*
X0321599Y0144998D01*
X0316599Y0149998D01*
X0315792Y0151946D01*
X0315792Y0180200D01*
X0302186Y0180200D01*
X0302186Y0178424D01*
X0302011Y0178000D01*
X0302186Y0177576D01*
X0302186Y0173424D01*
X0302011Y0173000D01*
X0302116Y0172747D02*
X0315792Y0172747D01*
X0315792Y0173745D02*
X0302186Y0173745D01*
X0302186Y0174744D02*
X0315792Y0174744D01*
X0315792Y0175742D02*
X0302186Y0175742D01*
X0302186Y0176741D02*
X0315792Y0176741D01*
X0315792Y0177739D02*
X0302119Y0177739D01*
X0302186Y0178738D02*
X0315792Y0178738D01*
X0315792Y0179737D02*
X0302186Y0179737D01*
X0302186Y0171748D02*
X0315792Y0171748D01*
X0315792Y0170750D02*
X0302186Y0170750D01*
X0302186Y0169751D02*
X0315792Y0169751D01*
X0315792Y0168753D02*
X0302186Y0168753D01*
X0302113Y0167754D02*
X0315792Y0167754D01*
X0315792Y0166756D02*
X0302186Y0166756D01*
X0302186Y0165757D02*
X0315792Y0165757D01*
X0315792Y0164759D02*
X0302186Y0164759D01*
X0302186Y0163760D02*
X0315792Y0163760D01*
X0315792Y0162762D02*
X0302109Y0162762D01*
X0302186Y0161763D02*
X0315792Y0161763D01*
X0315792Y0160765D02*
X0302186Y0160765D01*
X0302186Y0159766D02*
X0315792Y0159766D01*
X0315792Y0158768D02*
X0302186Y0158768D01*
X0302106Y0157769D02*
X0315792Y0157769D01*
X0315792Y0156771D02*
X0302186Y0156771D01*
X0302186Y0155772D02*
X0315792Y0155772D01*
X0315792Y0154774D02*
X0302186Y0154774D01*
X0302186Y0153775D02*
X0315792Y0153775D01*
X0315792Y0152777D02*
X0301918Y0152777D01*
X0301505Y0151778D02*
X0315861Y0151778D01*
X0316275Y0150780D02*
X0300511Y0150780D01*
X0300117Y0144789D02*
X0321808Y0144789D01*
X0321599Y0144998D02*
X0321599Y0144998D01*
X0320809Y0145787D02*
X0291392Y0145787D01*
X0291392Y0144789D02*
X0292067Y0144789D01*
X0291392Y0146786D02*
X0319811Y0146786D01*
X0318812Y0147784D02*
X0291392Y0147784D01*
X0291392Y0148783D02*
X0317814Y0148783D01*
X0316815Y0149781D02*
X0291392Y0149781D01*
X0280792Y0149781D02*
X0275691Y0149781D01*
X0276200Y0149992D02*
X0274546Y0149307D01*
X0268315Y0149307D01*
X0268922Y0148700D01*
X0271448Y0148700D01*
X0272638Y0149193D01*
X0279546Y0149193D01*
X0280792Y0148677D01*
X0280792Y0150675D01*
X0279646Y0150200D01*
X0276408Y0150200D01*
X0276200Y0149992D01*
X0280536Y0148783D02*
X0280792Y0148783D01*
X0271647Y0148783D02*
X0268840Y0148783D01*
X0301115Y0143790D02*
X0322806Y0143790D01*
X0324817Y0142792D02*
X0302114Y0142792D01*
X0303112Y0141793D02*
X0439561Y0141793D01*
X0438563Y0140795D02*
X0397460Y0140795D01*
X0384724Y0140795D02*
X0320035Y0140795D01*
X0321034Y0139796D02*
X0383725Y0139796D01*
X0382727Y0138798D02*
X0322032Y0138798D01*
X0323031Y0137799D02*
X0381728Y0137799D01*
X0380730Y0136801D02*
X0324029Y0136801D01*
X0324392Y0135802D02*
X0379731Y0135802D01*
X0373892Y0120700D02*
X0314640Y0120700D01*
X0308291Y0120700D01*
X0308991Y0120000D01*
X0373192Y0120000D01*
X0373892Y0120700D01*
X0386826Y0113835D02*
X0394933Y0113835D01*
X0395932Y0112836D02*
X0385828Y0112836D01*
X0384829Y0111838D02*
X0396930Y0111838D01*
X0399304Y0110839D02*
X0383831Y0110839D01*
X0382832Y0109841D02*
X0403531Y0109841D01*
X0401610Y0108842D02*
X0381834Y0108842D01*
X0380835Y0107844D02*
X0400612Y0107844D01*
X0399613Y0106845D02*
X0379525Y0106845D01*
X0395619Y0102851D02*
X0284806Y0102851D01*
X0285573Y0103850D02*
X0396618Y0103850D01*
X0397616Y0104848D02*
X0286341Y0104848D01*
X0287108Y0105847D02*
X0398615Y0105847D01*
X0442826Y0125817D02*
X0500909Y0125817D01*
X0501741Y0124818D02*
X0498707Y0124818D01*
X0500596Y0123820D02*
X0502573Y0123820D01*
X0503405Y0122821D02*
X0501594Y0122821D01*
X0502593Y0121823D02*
X0504237Y0121823D01*
X0503591Y0120824D02*
X0505069Y0120824D01*
X0504590Y0119826D02*
X0505901Y0119826D01*
X0505588Y0118827D02*
X0506733Y0118827D01*
X0506587Y0117829D02*
X0507565Y0117829D01*
X0507585Y0116830D02*
X0508398Y0116830D01*
X0508584Y0115832D02*
X0509230Y0115832D01*
X0509582Y0114833D02*
X0510062Y0114833D01*
X0510581Y0113835D02*
X0510894Y0113835D01*
X0511579Y0112836D02*
X0511726Y0112836D01*
X0519567Y0104848D02*
X0541092Y0104848D01*
X0541092Y0103850D02*
X0520566Y0103850D01*
X0521564Y0102851D02*
X0541092Y0102851D01*
X0541092Y0101853D02*
X0522563Y0101853D01*
X0523561Y0100854D02*
X0541092Y0100854D01*
X0541092Y0099856D02*
X0524560Y0099856D01*
X0525559Y0098857D02*
X0541092Y0098857D01*
X0541092Y0097859D02*
X0526557Y0097859D01*
X0527556Y0096860D02*
X0541092Y0096860D01*
X0541092Y0095862D02*
X0528554Y0095862D01*
X0529553Y0094863D02*
X0541092Y0094863D01*
X0541092Y0093865D02*
X0530551Y0093865D01*
X0531550Y0092866D02*
X0541092Y0092866D01*
X0541092Y0091868D02*
X0532391Y0091868D01*
X0532805Y0090869D02*
X0541092Y0090869D01*
X0541092Y0089870D02*
X0533219Y0089870D01*
X0533392Y0088872D02*
X0541092Y0088872D01*
X0541092Y0087873D02*
X0533392Y0087873D01*
X0533392Y0086875D02*
X0541092Y0086875D01*
X0541092Y0085876D02*
X0533392Y0085876D01*
X0533392Y0084878D02*
X0541092Y0084878D01*
X0541092Y0083879D02*
X0533647Y0083879D01*
X0534353Y0082881D02*
X0541092Y0082881D01*
X0541092Y0081882D02*
X0534766Y0081882D01*
X0535180Y0080884D02*
X0541092Y0080884D01*
X0541092Y0079885D02*
X0535592Y0079885D01*
X0535592Y0078887D02*
X0541092Y0078887D01*
X0541092Y0077888D02*
X0535592Y0077888D01*
X0535592Y0076890D02*
X0541092Y0076890D01*
X0541092Y0075891D02*
X0535592Y0075891D01*
X0535592Y0074893D02*
X0541092Y0074893D01*
X0541092Y0073894D02*
X0535592Y0073894D01*
X0535592Y0072896D02*
X0541092Y0072896D01*
X0541092Y0071897D02*
X0535592Y0071897D01*
X0535592Y0070899D02*
X0541092Y0070899D01*
X0541092Y0069900D02*
X0535592Y0069900D01*
X0535592Y0068902D02*
X0541092Y0068902D01*
X0541092Y0067903D02*
X0535592Y0067903D01*
X0535592Y0066905D02*
X0541092Y0066905D01*
X0541092Y0065906D02*
X0535507Y0065906D01*
X0535094Y0064908D02*
X0541092Y0064908D01*
X0541092Y0063909D02*
X0534680Y0063909D01*
X0534267Y0062911D02*
X0541092Y0062911D01*
X0541092Y0061912D02*
X0533439Y0061912D01*
X0532441Y0060914D02*
X0541092Y0060914D01*
X0541092Y0059915D02*
X0531398Y0059915D01*
X0528987Y0058917D02*
X0541092Y0058917D01*
X0541092Y0057918D02*
X0513392Y0057918D01*
X0513392Y0056920D02*
X0541092Y0056920D01*
X0541092Y0055921D02*
X0513392Y0055921D01*
X0513392Y0054923D02*
X0541092Y0054923D01*
X0541092Y0053924D02*
X0513392Y0053924D01*
X0513392Y0052926D02*
X0541092Y0052926D01*
X0541092Y0051927D02*
X0513392Y0051927D01*
X0513392Y0050929D02*
X0541092Y0050929D01*
X0541092Y0049930D02*
X0530193Y0049930D01*
X0531191Y0048932D02*
X0541092Y0048932D01*
X0541092Y0047933D02*
X0532190Y0047933D01*
X0533188Y0046934D02*
X0541092Y0046934D01*
X0541092Y0045936D02*
X0533892Y0045936D01*
X0534478Y0044937D02*
X0541092Y0044937D01*
X0541092Y0043939D02*
X0535477Y0043939D01*
X0536475Y0042940D02*
X0541092Y0042940D01*
X0541092Y0041942D02*
X0536950Y0041942D01*
X0537364Y0040943D02*
X0541092Y0040943D01*
X0541092Y0039945D02*
X0537692Y0039945D01*
X0537692Y0038946D02*
X0541092Y0038946D01*
X0541092Y0037948D02*
X0537692Y0037948D01*
X0537692Y0036949D02*
X0541092Y0036949D01*
X0541092Y0035951D02*
X0537692Y0035951D01*
X0537692Y0034952D02*
X0541092Y0034952D01*
X0541092Y0033954D02*
X0537692Y0033954D01*
X0537692Y0032955D02*
X0541092Y0032955D01*
X0541092Y0031957D02*
X0537692Y0031957D01*
X0537692Y0030958D02*
X0541092Y0030958D01*
X0541092Y0029960D02*
X0537692Y0029960D01*
X0537866Y0028961D02*
X0541092Y0028961D01*
X0541092Y0027963D02*
X0538619Y0027963D01*
X0539033Y0026964D02*
X0541092Y0026964D01*
X0541092Y0025966D02*
X0539446Y0025966D01*
X0539860Y0024967D02*
X0541092Y0024967D01*
X0541092Y0023969D02*
X0539892Y0023969D01*
X0539892Y0022970D02*
X0541092Y0022970D01*
X0541092Y0021972D02*
X0539892Y0021972D01*
X0539892Y0020973D02*
X0541092Y0020973D01*
X0541092Y0019975D02*
X0539892Y0019975D01*
X0539892Y0018976D02*
X0541092Y0018976D01*
X0541092Y0017978D02*
X0539892Y0017978D01*
X0539892Y0016979D02*
X0541092Y0016979D01*
X0541092Y0015981D02*
X0539892Y0015981D01*
X0539892Y0014982D02*
X0541092Y0014982D01*
X0541092Y0013984D02*
X0539892Y0013984D01*
X0539892Y0012985D02*
X0541092Y0012985D01*
X0541092Y0011987D02*
X0539892Y0011987D01*
X0539841Y0010988D02*
X0541092Y0010988D01*
X0541092Y0009990D02*
X0539428Y0009990D01*
X0539014Y0008991D02*
X0541092Y0008991D01*
X0541092Y0007993D02*
X0538600Y0007993D01*
X0537821Y0006994D02*
X0541092Y0006994D01*
X0541092Y0005996D02*
X0536822Y0005996D01*
X0535824Y0004997D02*
X0541092Y0004997D01*
X0541092Y0003999D02*
X0533485Y0003999D01*
X0522110Y0035951D02*
X0510074Y0035951D01*
X0511072Y0036949D02*
X0521112Y0036949D01*
X0520113Y0037948D02*
X0512071Y0037948D01*
X0513069Y0038946D02*
X0519115Y0038946D01*
X0518292Y0039945D02*
X0513892Y0039945D01*
X0513892Y0040943D02*
X0518292Y0040943D01*
X0518292Y0041942D02*
X0513892Y0041942D01*
X0513892Y0042940D02*
X0518292Y0042940D01*
X0518292Y0043939D02*
X0513892Y0043939D01*
X0513892Y0044937D02*
X0518292Y0044937D01*
X0518292Y0045936D02*
X0513892Y0045936D01*
X0513392Y0046934D02*
X0518996Y0046934D01*
X0519994Y0047933D02*
X0513392Y0047933D01*
X0513392Y0048932D02*
X0520993Y0048932D01*
X0521991Y0049930D02*
X0513392Y0049930D01*
X0513392Y0058917D02*
X0523196Y0058917D01*
X0520786Y0059915D02*
X0513392Y0059915D01*
X0513392Y0060914D02*
X0519743Y0060914D01*
X0518745Y0061912D02*
X0513439Y0061912D01*
X0514267Y0062911D02*
X0517917Y0062911D01*
X0517504Y0063909D02*
X0514680Y0063909D01*
X0515094Y0064908D02*
X0517090Y0064908D01*
X0516676Y0065906D02*
X0515507Y0065906D01*
X0515592Y0066905D02*
X0516592Y0066905D01*
X0516592Y0067903D02*
X0515592Y0067903D01*
X0515592Y0068902D02*
X0516592Y0068902D01*
X0516592Y0069900D02*
X0515592Y0069900D01*
X0515592Y0070899D02*
X0516592Y0070899D01*
X0516592Y0071897D02*
X0515592Y0071897D01*
X0515592Y0072896D02*
X0516592Y0072896D01*
X0516592Y0073894D02*
X0515592Y0073894D01*
X0515592Y0074893D02*
X0516592Y0074893D01*
X0516592Y0075891D02*
X0515592Y0075891D01*
X0515592Y0076890D02*
X0516592Y0076890D01*
X0516592Y0077888D02*
X0515592Y0077888D01*
X0515592Y0078887D02*
X0516592Y0078887D01*
X0516592Y0079885D02*
X0515592Y0079885D01*
X0515180Y0080884D02*
X0517004Y0080884D01*
X0517417Y0081882D02*
X0514766Y0081882D01*
X0514353Y0082881D02*
X0517831Y0082881D01*
X0518536Y0083879D02*
X0513647Y0083879D01*
X0512649Y0084878D02*
X0518792Y0084878D01*
X0517892Y0085876D02*
X0511650Y0085876D01*
X0509491Y0086875D02*
X0516893Y0086875D01*
X0515895Y0087873D02*
X0502279Y0087873D01*
X0502693Y0086875D02*
X0501281Y0086875D01*
X0500533Y0085876D02*
X0500282Y0085876D01*
X0503278Y0088872D02*
X0514896Y0088872D01*
X0513898Y0089870D02*
X0504092Y0089870D01*
X0504092Y0090869D02*
X0512899Y0090869D01*
X0511901Y0091868D02*
X0504092Y0091868D01*
X0504092Y0092866D02*
X0510902Y0092866D01*
X0509904Y0093865D02*
X0504092Y0093865D01*
X0504092Y0094863D02*
X0508905Y0094863D01*
X0507907Y0095862D02*
X0504092Y0095862D01*
X0503545Y0096860D02*
X0506908Y0096860D01*
X0505910Y0097859D02*
X0502547Y0097859D01*
X0501548Y0098857D02*
X0504911Y0098857D01*
X0503912Y0099856D02*
X0500550Y0099856D01*
X0499551Y0100854D02*
X0502914Y0100854D01*
X0501915Y0101853D02*
X0497563Y0101853D01*
X0496564Y0102851D02*
X0500917Y0102851D01*
X0499918Y0103850D02*
X0495566Y0103850D01*
X0494567Y0104848D02*
X0498920Y0104848D01*
X0497921Y0105847D02*
X0493569Y0105847D01*
X0492570Y0106845D02*
X0496923Y0106845D01*
X0495924Y0107844D02*
X0491572Y0107844D01*
X0490573Y0108842D02*
X0494926Y0108842D01*
X0493927Y0109841D02*
X0488653Y0109841D01*
X0500077Y0126815D02*
X0445231Y0126815D01*
X0446230Y0127814D02*
X0499244Y0127814D01*
X0498412Y0128812D02*
X0447228Y0128812D01*
X0448227Y0129811D02*
X0497580Y0129811D01*
X0496748Y0130809D02*
X0449225Y0130809D01*
X0450224Y0131808D02*
X0495916Y0131808D01*
X0495084Y0132806D02*
X0451222Y0132806D01*
X0452221Y0133805D02*
X0494252Y0133805D01*
X0493420Y0134803D02*
X0453219Y0134803D01*
X0454218Y0135802D02*
X0492588Y0135802D01*
X0491756Y0136801D02*
X0455216Y0136801D01*
X0456215Y0137799D02*
X0490924Y0137799D01*
X0489971Y0138798D02*
X0457213Y0138798D01*
X0458212Y0139796D02*
X0489444Y0139796D01*
X0489104Y0140795D02*
X0459210Y0140795D01*
X0460209Y0141793D02*
X0488792Y0141793D01*
X0488743Y0142792D02*
X0461207Y0142792D01*
X0462206Y0143790D02*
X0488792Y0143790D01*
X0488792Y0144789D02*
X0463204Y0144789D01*
X0464203Y0145787D02*
X0488792Y0145787D01*
X0488792Y0146786D02*
X0465201Y0146786D01*
X0466200Y0147784D02*
X0488792Y0147784D01*
X0488792Y0148783D02*
X0467198Y0148783D01*
X0468197Y0149781D02*
X0488792Y0149781D01*
X0488792Y0150780D02*
X0469195Y0150780D01*
X0470194Y0151778D02*
X0488792Y0151778D01*
X0488792Y0152777D02*
X0471192Y0152777D01*
X0472191Y0153775D02*
X0488792Y0153775D01*
X0488792Y0154774D02*
X0473189Y0154774D01*
X0474188Y0155772D02*
X0488792Y0155772D01*
X0488792Y0156771D02*
X0475186Y0156771D01*
X0476185Y0157769D02*
X0488792Y0157769D01*
X0488792Y0158768D02*
X0477183Y0158768D01*
X0478182Y0159766D02*
X0488092Y0159766D01*
X0488092Y0160765D02*
X0479180Y0160765D01*
X0480179Y0161763D02*
X0488092Y0161763D01*
X0488092Y0162762D02*
X0481177Y0162762D01*
X0482176Y0163760D02*
X0488092Y0163760D01*
X0488092Y0164759D02*
X0483174Y0164759D01*
X0484173Y0165757D02*
X0488092Y0165757D01*
X0488534Y0166756D02*
X0485171Y0166756D01*
X0486170Y0167754D02*
X0489533Y0167754D01*
X0490531Y0168753D02*
X0487168Y0168753D01*
X0488167Y0169751D02*
X0491530Y0169751D01*
X0492528Y0170750D02*
X0489166Y0170750D01*
X0490164Y0171748D02*
X0502109Y0171748D01*
X0501021Y0172747D02*
X0491163Y0172747D01*
X0492161Y0173745D02*
X0500023Y0173745D01*
X0499024Y0174744D02*
X0493160Y0174744D01*
X0496597Y0175742D02*
X0497319Y0175742D01*
X0499656Y0170750D02*
X0504519Y0170750D01*
X0501653Y0168753D02*
X0541092Y0168753D01*
X0541092Y0169751D02*
X0500654Y0169751D01*
X0502651Y0167754D02*
X0541092Y0167754D01*
X0541092Y0166756D02*
X0503650Y0166756D01*
X0504092Y0165757D02*
X0541092Y0165757D01*
X0541092Y0164759D02*
X0504092Y0164759D01*
X0504092Y0163760D02*
X0541092Y0163760D01*
X0541092Y0162762D02*
X0504092Y0162762D01*
X0504092Y0161763D02*
X0541092Y0161763D01*
X0541092Y0160765D02*
X0504092Y0160765D01*
X0504092Y0159766D02*
X0541092Y0159766D01*
X0541092Y0158768D02*
X0503392Y0158768D01*
X0503392Y0157769D02*
X0541092Y0157769D01*
X0541092Y0156771D02*
X0503392Y0156771D01*
X0503392Y0155772D02*
X0541092Y0155772D01*
X0541092Y0154774D02*
X0503392Y0154774D01*
X0503392Y0153775D02*
X0541092Y0153775D01*
X0541092Y0152777D02*
X0503392Y0152777D01*
X0503392Y0151778D02*
X0541092Y0151778D01*
X0541092Y0150780D02*
X0503392Y0150780D01*
X0503392Y0149781D02*
X0541092Y0149781D01*
X0541092Y0148783D02*
X0503392Y0148783D01*
X0503392Y0147784D02*
X0541092Y0147784D01*
X0541092Y0146786D02*
X0503392Y0146786D01*
X0503392Y0145787D02*
X0541092Y0145787D01*
X0541092Y0144789D02*
X0504104Y0144789D01*
X0504936Y0143790D02*
X0541092Y0143790D01*
X0541092Y0142792D02*
X0505768Y0142792D01*
X0506600Y0141793D02*
X0541092Y0141793D01*
X0541092Y0140795D02*
X0507432Y0140795D01*
X0508264Y0139796D02*
X0541092Y0139796D01*
X0541092Y0138798D02*
X0509096Y0138798D01*
X0509928Y0137799D02*
X0541092Y0137799D01*
X0541092Y0136801D02*
X0510761Y0136801D01*
X0511593Y0135802D02*
X0541092Y0135802D01*
X0541092Y0134803D02*
X0512425Y0134803D01*
X0513257Y0133805D02*
X0541092Y0133805D01*
X0541092Y0132806D02*
X0514089Y0132806D01*
X0514921Y0131808D02*
X0541092Y0131808D01*
X0541092Y0130809D02*
X0515753Y0130809D01*
X0516585Y0129811D02*
X0541092Y0129811D01*
X0541092Y0128812D02*
X0517417Y0128812D01*
X0518249Y0127814D02*
X0541092Y0127814D01*
X0541092Y0126815D02*
X0519081Y0126815D01*
X0519914Y0125817D02*
X0541092Y0125817D01*
X0541092Y0124818D02*
X0520746Y0124818D01*
X0521578Y0123820D02*
X0541092Y0123820D01*
X0541092Y0122821D02*
X0522410Y0122821D01*
X0523242Y0121823D02*
X0541092Y0121823D01*
X0541092Y0120824D02*
X0524581Y0120824D01*
X0525580Y0119826D02*
X0541092Y0119826D01*
X0541092Y0118827D02*
X0526578Y0118827D01*
X0527577Y0117829D02*
X0541092Y0117829D01*
X0541092Y0116830D02*
X0528575Y0116830D01*
X0529092Y0115832D02*
X0541092Y0115832D01*
X0541092Y0114833D02*
X0529092Y0114833D01*
X0529092Y0113835D02*
X0541092Y0113835D01*
X0541092Y0112836D02*
X0529092Y0112836D01*
X0529092Y0111838D02*
X0541092Y0111838D01*
X0541092Y0110839D02*
X0529092Y0110839D01*
X0529092Y0109841D02*
X0541092Y0109841D01*
X0541092Y0108842D02*
X0528248Y0108842D01*
X0527249Y0107844D02*
X0541092Y0107844D01*
X0541092Y0106845D02*
X0526251Y0106845D01*
X0525252Y0105847D02*
X0541092Y0105847D01*
X0455537Y0157769D02*
X0447982Y0157769D01*
X0446984Y0156771D02*
X0454539Y0156771D01*
X0453540Y0155772D02*
X0445985Y0155772D01*
X0444987Y0154774D02*
X0452542Y0154774D01*
X0451543Y0153775D02*
X0443988Y0153775D01*
X0442990Y0152777D02*
X0450545Y0152777D01*
X0449546Y0151778D02*
X0441991Y0151778D01*
X0440993Y0150780D02*
X0448548Y0150780D01*
X0447549Y0149781D02*
X0439994Y0149781D01*
X0438996Y0148783D02*
X0446551Y0148783D01*
X0445552Y0147784D02*
X0437997Y0147784D01*
X0436999Y0146786D02*
X0444554Y0146786D01*
X0443555Y0145787D02*
X0436000Y0145787D01*
X0435002Y0144789D02*
X0442557Y0144789D01*
X0441558Y0143790D02*
X0434003Y0143790D01*
X0431993Y0142792D02*
X0440560Y0142792D01*
X0428998Y0153775D02*
X0350651Y0153775D01*
X0350651Y0153300D02*
X0428523Y0153300D01*
X0445049Y0169826D01*
X0440020Y0169826D01*
X0437912Y0169826D01*
X0435964Y0170633D01*
X0433090Y0173507D01*
X0431599Y0174998D01*
X0431092Y0176222D01*
X0430585Y0174998D01*
X0429094Y0173507D01*
X0423085Y0167498D01*
X0420585Y0164998D01*
X0419094Y0163507D01*
X0417146Y0162700D01*
X0413938Y0162700D01*
X0413938Y0157656D01*
X0413253Y0156002D01*
X0411987Y0154736D01*
X0410333Y0154051D01*
X0401850Y0154051D01*
X0400196Y0154736D01*
X0399221Y0155712D01*
X0350651Y0155712D01*
X0350651Y0153300D01*
X0350651Y0154774D02*
X0400159Y0154774D01*
X0412025Y0154774D02*
X0429996Y0154774D01*
X0430995Y0155772D02*
X0413023Y0155772D01*
X0413572Y0156771D02*
X0431993Y0156771D01*
X0432992Y0157769D02*
X0413938Y0157769D01*
X0413938Y0158768D02*
X0433990Y0158768D01*
X0434989Y0159766D02*
X0413938Y0159766D01*
X0413938Y0160765D02*
X0435987Y0160765D01*
X0436986Y0161763D02*
X0413938Y0161763D01*
X0417295Y0162762D02*
X0437984Y0162762D01*
X0438983Y0163760D02*
X0419348Y0163760D01*
X0420346Y0164759D02*
X0439981Y0164759D01*
X0440980Y0165757D02*
X0421345Y0165757D01*
X0422343Y0166756D02*
X0441978Y0166756D01*
X0442977Y0167754D02*
X0423342Y0167754D01*
X0424340Y0168753D02*
X0443975Y0168753D01*
X0444974Y0169751D02*
X0425339Y0169751D01*
X0426337Y0170750D02*
X0435847Y0170750D01*
X0434848Y0171748D02*
X0427336Y0171748D01*
X0428334Y0172747D02*
X0433850Y0172747D01*
X0432851Y0173745D02*
X0429333Y0173745D01*
X0430331Y0174744D02*
X0431853Y0174744D01*
X0431290Y0175742D02*
X0430893Y0175742D01*
X0415797Y0175200D02*
X0414540Y0175200D01*
X0413938Y0175449D01*
X0413938Y0173342D01*
X0415590Y0174993D01*
X0415797Y0175200D01*
X0415340Y0174744D02*
X0413938Y0174744D01*
X0413938Y0173745D02*
X0414342Y0173745D01*
X0441311Y0189250D02*
X0440917Y0190200D01*
X0443092Y0190200D01*
X0441674Y0189613D01*
X0441311Y0189250D01*
X0441115Y0189722D02*
X0441937Y0189722D01*
X0457020Y0206693D02*
X0459546Y0206693D01*
X0461200Y0206008D01*
X0462134Y0205073D01*
X0463292Y0206231D01*
X0463292Y0207700D01*
X0455721Y0207700D01*
X0456220Y0207493D01*
X0457020Y0206693D01*
X0457017Y0206696D02*
X0463292Y0206696D01*
X0463292Y0207695D02*
X0455733Y0207695D01*
X0461510Y0205698D02*
X0462759Y0205698D01*
X0469992Y0216595D02*
X0469992Y0220473D01*
X0468565Y0221900D01*
X0437285Y0221900D01*
X0437285Y0221428D01*
X0438104Y0220609D01*
X0440510Y0219613D01*
X0441092Y0219031D01*
X0441674Y0219613D01*
X0444540Y0220800D01*
X0447643Y0220800D01*
X0450510Y0219613D01*
X0451823Y0218300D01*
X0467146Y0218300D01*
X0469094Y0217493D01*
X0469992Y0216595D01*
X0469992Y0216681D02*
X0469906Y0216681D01*
X0469992Y0217680D02*
X0468643Y0217680D01*
X0469992Y0218678D02*
X0451444Y0218678D01*
X0450355Y0219677D02*
X0469992Y0219677D01*
X0469790Y0220675D02*
X0447944Y0220675D01*
X0444240Y0220675D02*
X0438038Y0220675D01*
X0437285Y0221674D02*
X0468791Y0221674D01*
X0477058Y0230661D02*
X0489564Y0230661D01*
X0490563Y0231659D02*
X0476059Y0231659D01*
X0475061Y0232658D02*
X0492323Y0232658D01*
X0488566Y0229662D02*
X0478056Y0229662D01*
X0479055Y0228664D02*
X0487567Y0228664D01*
X0486569Y0227665D02*
X0485372Y0227665D01*
X0484670Y0237201D02*
X0481924Y0237937D01*
X0479461Y0239358D01*
X0477450Y0241369D01*
X0476029Y0243832D01*
X0475293Y0246578D01*
X0475293Y0249422D01*
X0476029Y0252168D01*
X0477450Y0254631D01*
X0479461Y0256642D01*
X0481924Y0258063D01*
X0484670Y0258799D01*
X0487514Y0258799D01*
X0490260Y0258063D01*
X0492723Y0256642D01*
X0494733Y0254631D01*
X0496155Y0252168D01*
X0496891Y0249422D01*
X0496891Y0246578D01*
X0496155Y0243832D01*
X0494733Y0241369D01*
X0492723Y0239358D01*
X0490260Y0237937D01*
X0487514Y0237201D01*
X0484670Y0237201D01*
X0482993Y0237650D02*
X0436358Y0237650D01*
X0435359Y0236652D02*
X0541092Y0236652D01*
X0541092Y0237650D02*
X0489191Y0237650D01*
X0491493Y0238649D02*
X0541092Y0238649D01*
X0541092Y0239647D02*
X0493011Y0239647D01*
X0494010Y0240646D02*
X0541092Y0240646D01*
X0541092Y0241644D02*
X0494892Y0241644D01*
X0495469Y0242643D02*
X0541092Y0242643D01*
X0541092Y0243641D02*
X0496045Y0243641D01*
X0496372Y0244640D02*
X0541092Y0244640D01*
X0541092Y0245638D02*
X0496639Y0245638D01*
X0496891Y0246637D02*
X0541092Y0246637D01*
X0541092Y0247635D02*
X0496891Y0247635D01*
X0496891Y0248634D02*
X0541092Y0248634D01*
X0541092Y0249632D02*
X0496835Y0249632D01*
X0496567Y0250631D02*
X0541092Y0250631D01*
X0541092Y0251629D02*
X0496300Y0251629D01*
X0495890Y0252628D02*
X0541092Y0252628D01*
X0541092Y0253626D02*
X0495313Y0253626D01*
X0494737Y0254625D02*
X0541092Y0254625D01*
X0541092Y0255623D02*
X0493741Y0255623D01*
X0492742Y0256622D02*
X0541092Y0256622D01*
X0541092Y0257620D02*
X0491027Y0257620D01*
X0488187Y0258619D02*
X0541092Y0258619D01*
X0541092Y0259617D02*
X0448133Y0259617D01*
X0447720Y0258619D02*
X0483997Y0258619D01*
X0481156Y0257620D02*
X0446743Y0257620D01*
X0446392Y0256622D02*
X0479441Y0256622D01*
X0478443Y0255623D02*
X0446392Y0255623D01*
X0446392Y0254625D02*
X0477447Y0254625D01*
X0476870Y0253626D02*
X0446392Y0253626D01*
X0446392Y0252628D02*
X0476294Y0252628D01*
X0475884Y0251629D02*
X0446392Y0251629D01*
X0446392Y0250631D02*
X0475617Y0250631D01*
X0475349Y0249632D02*
X0446392Y0249632D01*
X0446392Y0248634D02*
X0475293Y0248634D01*
X0475293Y0247635D02*
X0446392Y0247635D01*
X0446264Y0246637D02*
X0475293Y0246637D01*
X0475545Y0245638D02*
X0445850Y0245638D01*
X0445227Y0244640D02*
X0475812Y0244640D01*
X0476139Y0243641D02*
X0444228Y0243641D01*
X0443230Y0242643D02*
X0476715Y0242643D01*
X0477292Y0241644D02*
X0442231Y0241644D01*
X0441233Y0240646D02*
X0478174Y0240646D01*
X0479172Y0239647D02*
X0440234Y0239647D01*
X0439236Y0238649D02*
X0480690Y0238649D01*
X0473377Y0233656D02*
X0511342Y0233656D01*
X0520842Y0233656D02*
X0541092Y0233656D01*
X0541092Y0232658D02*
X0527499Y0232658D01*
X0529259Y0231659D02*
X0541092Y0231659D01*
X0541092Y0230661D02*
X0530257Y0230661D01*
X0531256Y0229662D02*
X0541092Y0229662D01*
X0541092Y0228664D02*
X0535847Y0228664D01*
X0536846Y0227665D02*
X0541092Y0227665D01*
X0541092Y0226667D02*
X0537277Y0226667D01*
X0537560Y0225668D02*
X0541092Y0225668D01*
X0541092Y0224670D02*
X0537560Y0224670D01*
X0537560Y0223671D02*
X0541092Y0223671D01*
X0541092Y0222672D02*
X0537560Y0222672D01*
X0537560Y0221674D02*
X0541092Y0221674D01*
X0541092Y0220675D02*
X0538298Y0220675D01*
X0539913Y0219677D02*
X0541092Y0219677D01*
X0541092Y0218678D02*
X0540738Y0218678D01*
X0540752Y0208693D02*
X0541092Y0208693D01*
X0541092Y0207695D02*
X0540132Y0207695D01*
X0540132Y0206696D02*
X0541092Y0206696D01*
X0541092Y0205698D02*
X0540132Y0205698D01*
X0540132Y0204699D02*
X0541092Y0204699D01*
X0541092Y0203701D02*
X0540132Y0203701D01*
X0540132Y0202702D02*
X0541092Y0202702D01*
X0541092Y0201704D02*
X0540132Y0201704D01*
X0540132Y0200705D02*
X0541092Y0200705D01*
X0541092Y0199707D02*
X0540132Y0199707D01*
X0540132Y0198708D02*
X0541092Y0198708D01*
X0541092Y0197710D02*
X0540132Y0197710D01*
X0540132Y0196711D02*
X0541092Y0196711D01*
X0541092Y0195713D02*
X0540132Y0195713D01*
X0539730Y0194714D02*
X0541092Y0194714D01*
X0541092Y0193716D02*
X0539303Y0193716D01*
X0538304Y0192717D02*
X0541092Y0192717D01*
X0541092Y0191719D02*
X0537306Y0191719D01*
X0536307Y0190720D02*
X0541092Y0190720D01*
X0541092Y0189722D02*
X0535309Y0189722D01*
X0534310Y0188723D02*
X0541092Y0188723D01*
X0541092Y0187725D02*
X0532205Y0187725D01*
X0528679Y0186726D02*
X0541092Y0186726D01*
X0541092Y0185728D02*
X0529092Y0185728D01*
X0529092Y0184729D02*
X0541092Y0184729D01*
X0541092Y0183731D02*
X0529092Y0183731D01*
X0529092Y0182732D02*
X0541092Y0182732D01*
X0541092Y0181734D02*
X0529092Y0181734D01*
X0529092Y0180735D02*
X0541092Y0180735D01*
X0541092Y0179737D02*
X0529092Y0179737D01*
X0528144Y0178738D02*
X0541092Y0178738D01*
X0541092Y0177739D02*
X0527145Y0177739D01*
X0526147Y0176741D02*
X0541092Y0176741D01*
X0541092Y0175742D02*
X0525148Y0175742D01*
X0523160Y0174744D02*
X0541092Y0174744D01*
X0541092Y0173745D02*
X0522161Y0173745D01*
X0521163Y0172747D02*
X0541092Y0172747D01*
X0541092Y0171748D02*
X0520075Y0171748D01*
X0517664Y0170750D02*
X0541092Y0170750D01*
X0513092Y0185324D02*
X0513092Y0186314D01*
X0513585Y0186807D01*
X0512638Y0186807D01*
X0512466Y0186878D01*
X0510887Y0185300D01*
X0513068Y0185300D01*
X0513092Y0185324D01*
X0513092Y0185728D02*
X0511315Y0185728D01*
X0512313Y0186726D02*
X0513504Y0186726D01*
X0501894Y0191298D02*
X0501102Y0191626D01*
X0501092Y0191636D01*
X0501082Y0191626D01*
X0499428Y0190941D01*
X0496902Y0190941D01*
X0496329Y0190368D01*
X0496941Y0190115D01*
X0497058Y0189997D01*
X0497861Y0190800D01*
X0501397Y0190800D01*
X0501894Y0191298D01*
X0497781Y0190720D02*
X0496681Y0190720D01*
X0479033Y0190720D02*
X0477439Y0190720D01*
X0477047Y0190329D02*
X0476978Y0190300D01*
X0479033Y0190300D01*
X0479033Y0192314D01*
X0477047Y0190329D01*
X0478437Y0191719D02*
X0479033Y0191719D01*
X0462968Y0178300D02*
X0462698Y0178570D01*
X0462586Y0178300D01*
X0462968Y0178300D01*
X0464524Y0166756D02*
X0456969Y0166756D01*
X0455971Y0165757D02*
X0463525Y0165757D01*
X0462527Y0164759D02*
X0454972Y0164759D01*
X0453973Y0163760D02*
X0461528Y0163760D01*
X0460530Y0162762D02*
X0452975Y0162762D01*
X0451976Y0161763D02*
X0459531Y0161763D01*
X0458533Y0160765D02*
X0450978Y0160765D01*
X0449979Y0159766D02*
X0457534Y0159766D01*
X0456536Y0158768D02*
X0448981Y0158768D01*
X0384847Y0196750D02*
X0376397Y0205200D01*
X0375787Y0205200D01*
X0375585Y0204998D01*
X0374094Y0203507D01*
X0373151Y0203116D01*
X0373151Y0200412D01*
X0372466Y0198758D01*
X0371392Y0197684D01*
X0371392Y0195195D01*
X0375787Y0190800D01*
X0377643Y0190800D01*
X0380510Y0189613D01*
X0380792Y0189331D01*
X0380792Y0191554D01*
X0381599Y0193502D01*
X0384847Y0196750D01*
X0384808Y0196711D02*
X0371392Y0196711D01*
X0371392Y0195713D02*
X0383809Y0195713D01*
X0382811Y0194714D02*
X0371873Y0194714D01*
X0372872Y0193716D02*
X0381812Y0193716D01*
X0381274Y0192717D02*
X0373870Y0192717D01*
X0374869Y0191719D02*
X0380860Y0191719D01*
X0380792Y0190720D02*
X0377836Y0190720D01*
X0380247Y0189722D02*
X0380792Y0189722D01*
X0383887Y0197710D02*
X0371418Y0197710D01*
X0372416Y0198708D02*
X0382888Y0198708D01*
X0381890Y0199707D02*
X0372859Y0199707D01*
X0373151Y0200705D02*
X0380891Y0200705D01*
X0379893Y0201704D02*
X0373151Y0201704D01*
X0373151Y0202702D02*
X0378894Y0202702D01*
X0377896Y0203701D02*
X0374288Y0203701D01*
X0375286Y0204699D02*
X0376897Y0204699D01*
X0391311Y0219250D02*
X0391674Y0219613D01*
X0394540Y0220800D01*
X0397643Y0220800D01*
X0400510Y0219613D01*
X0401092Y0219031D01*
X0401674Y0219613D01*
X0404540Y0220800D01*
X0407643Y0220800D01*
X0410510Y0219613D01*
X0411092Y0219031D01*
X0411674Y0219613D01*
X0414080Y0220609D01*
X0414899Y0221428D01*
X0414899Y0221900D01*
X0389687Y0221900D01*
X0390585Y0221002D01*
X0391311Y0219250D01*
X0391134Y0219677D02*
X0391829Y0219677D01*
X0390720Y0220675D02*
X0394240Y0220675D01*
X0397944Y0220675D02*
X0404240Y0220675D01*
X0401829Y0219677D02*
X0400355Y0219677D01*
X0389913Y0221674D02*
X0414899Y0221674D01*
X0414146Y0220675D02*
X0407944Y0220675D01*
X0410355Y0219677D02*
X0411829Y0219677D01*
X0430242Y0234655D02*
X0541092Y0234655D01*
X0541092Y0235653D02*
X0430856Y0235653D01*
X0440355Y0219677D02*
X0441829Y0219677D01*
X0448547Y0260616D02*
X0541092Y0260616D01*
X0541092Y0261614D02*
X0448892Y0261614D01*
X0448892Y0262613D02*
X0541092Y0262613D01*
X0541092Y0263611D02*
X0448892Y0263611D01*
X0448868Y0264610D02*
X0541092Y0264610D01*
X0541092Y0265608D02*
X0517852Y0265608D01*
X0520023Y0266607D02*
X0541092Y0266607D01*
X0541092Y0267605D02*
X0521021Y0267605D01*
X0522020Y0268604D02*
X0541092Y0268604D01*
X0541092Y0269603D02*
X0523018Y0269603D01*
X0524017Y0270601D02*
X0541092Y0270601D01*
X0541092Y0271600D02*
X0525015Y0271600D01*
X0526014Y0272598D02*
X0541092Y0272598D01*
X0541092Y0273597D02*
X0527012Y0273597D01*
X0527583Y0274595D02*
X0541092Y0274595D01*
X0541092Y0275594D02*
X0527997Y0275594D01*
X0528392Y0276592D02*
X0541092Y0276592D01*
X0541092Y0277591D02*
X0528392Y0277591D01*
X0528392Y0278589D02*
X0541092Y0278589D01*
X0541092Y0279588D02*
X0528392Y0279588D01*
X0528392Y0280586D02*
X0541092Y0280586D01*
X0541092Y0281585D02*
X0528392Y0281585D01*
X0528392Y0282583D02*
X0541092Y0282583D01*
X0541092Y0283582D02*
X0528392Y0283582D01*
X0528392Y0284580D02*
X0541092Y0284580D01*
X0541092Y0285579D02*
X0528392Y0285579D01*
X0528392Y0286577D02*
X0541092Y0286577D01*
X0541092Y0287576D02*
X0528392Y0287576D01*
X0528392Y0288574D02*
X0541092Y0288574D01*
X0541092Y0289573D02*
X0528392Y0289573D01*
X0528392Y0290571D02*
X0541092Y0290571D01*
X0541092Y0291570D02*
X0528392Y0291570D01*
X0528392Y0292568D02*
X0541092Y0292568D01*
X0541092Y0293567D02*
X0528392Y0293567D01*
X0528392Y0294565D02*
X0541092Y0294565D01*
X0541092Y0295564D02*
X0528392Y0295564D01*
X0528392Y0296562D02*
X0541092Y0296562D01*
X0541092Y0297561D02*
X0528392Y0297561D01*
X0528392Y0298559D02*
X0541092Y0298559D01*
X0541092Y0299558D02*
X0528392Y0299558D01*
X0528392Y0300556D02*
X0541092Y0300556D01*
X0541092Y0301555D02*
X0528392Y0301555D01*
X0528392Y0302553D02*
X0541092Y0302553D01*
X0541092Y0303552D02*
X0528392Y0303552D01*
X0528392Y0304550D02*
X0541092Y0304550D01*
X0541092Y0305549D02*
X0528392Y0305549D01*
X0528392Y0306547D02*
X0541092Y0306547D01*
X0541092Y0307546D02*
X0528392Y0307546D01*
X0528392Y0308544D02*
X0541092Y0308544D01*
X0541092Y0309543D02*
X0528392Y0309543D01*
X0528392Y0310541D02*
X0541092Y0310541D01*
X0541092Y0311540D02*
X0528392Y0311540D01*
X0528392Y0312539D02*
X0541092Y0312539D01*
X0541092Y0313537D02*
X0528392Y0313537D01*
X0528392Y0314536D02*
X0541092Y0314536D01*
X0541092Y0315534D02*
X0528392Y0315534D01*
X0528392Y0316533D02*
X0541092Y0316533D01*
X0541092Y0317531D02*
X0528392Y0317531D01*
X0528392Y0318530D02*
X0541092Y0318530D01*
X0541092Y0319528D02*
X0528392Y0319528D01*
X0528392Y0320527D02*
X0541092Y0320527D01*
X0541092Y0321525D02*
X0528392Y0321525D01*
X0528392Y0322524D02*
X0541092Y0322524D01*
X0541092Y0323522D02*
X0528392Y0323522D01*
X0528392Y0324521D02*
X0541092Y0324521D01*
X0541092Y0325519D02*
X0528392Y0325519D01*
X0528392Y0326518D02*
X0541092Y0326518D01*
X0541092Y0327516D02*
X0528392Y0327516D01*
X0528392Y0328515D02*
X0541092Y0328515D01*
X0541092Y0329513D02*
X0528367Y0329513D01*
X0527953Y0330512D02*
X0541092Y0330512D01*
X0541092Y0331510D02*
X0527539Y0331510D01*
X0526907Y0332509D02*
X0541092Y0332509D01*
X0541092Y0333507D02*
X0525908Y0333507D01*
X0524910Y0334506D02*
X0541092Y0334506D01*
X0541092Y0335504D02*
X0523911Y0335504D01*
X0522913Y0336503D02*
X0541092Y0336503D01*
X0541092Y0337501D02*
X0521914Y0337501D01*
X0520916Y0338500D02*
X0541092Y0338500D01*
X0541092Y0339498D02*
X0519479Y0339498D01*
X0513068Y0325700D02*
X0505181Y0325700D01*
X0508009Y0322872D01*
X0508009Y0312931D01*
X0503309Y0308231D01*
X0503309Y0308130D01*
X0509034Y0308130D01*
X0510688Y0307445D01*
X0511954Y0306179D01*
X0512639Y0304525D01*
X0512639Y0281475D01*
X0511997Y0279926D01*
X0512694Y0279926D01*
X0513792Y0281024D01*
X0513792Y0324976D01*
X0513068Y0325700D01*
X0513249Y0325519D02*
X0505362Y0325519D01*
X0506360Y0324521D02*
X0513792Y0324521D01*
X0513792Y0323522D02*
X0507359Y0323522D01*
X0508009Y0322524D02*
X0513792Y0322524D01*
X0513792Y0321525D02*
X0508009Y0321525D01*
X0508009Y0320527D02*
X0513792Y0320527D01*
X0513792Y0319528D02*
X0508009Y0319528D01*
X0508009Y0318530D02*
X0513792Y0318530D01*
X0513792Y0317531D02*
X0508009Y0317531D01*
X0508009Y0316533D02*
X0513792Y0316533D01*
X0513792Y0315534D02*
X0508009Y0315534D01*
X0508009Y0314536D02*
X0513792Y0314536D01*
X0513792Y0313537D02*
X0508009Y0313537D01*
X0507616Y0312539D02*
X0513792Y0312539D01*
X0513792Y0311540D02*
X0506618Y0311540D01*
X0505619Y0310541D02*
X0513792Y0310541D01*
X0513792Y0309543D02*
X0504621Y0309543D01*
X0503622Y0308544D02*
X0513792Y0308544D01*
X0513792Y0307546D02*
X0510444Y0307546D01*
X0511586Y0306547D02*
X0513792Y0306547D01*
X0513792Y0305549D02*
X0512215Y0305549D01*
X0512629Y0304550D02*
X0513792Y0304550D01*
X0513792Y0303552D02*
X0512639Y0303552D01*
X0512639Y0302553D02*
X0513792Y0302553D01*
X0513792Y0301555D02*
X0512639Y0301555D01*
X0512639Y0300556D02*
X0513792Y0300556D01*
X0513792Y0299558D02*
X0512639Y0299558D01*
X0512639Y0298559D02*
X0513792Y0298559D01*
X0513792Y0297561D02*
X0512639Y0297561D01*
X0512639Y0296562D02*
X0513792Y0296562D01*
X0513792Y0295564D02*
X0512639Y0295564D01*
X0512639Y0294565D02*
X0513792Y0294565D01*
X0513792Y0293567D02*
X0512639Y0293567D01*
X0512639Y0292568D02*
X0513792Y0292568D01*
X0513792Y0291570D02*
X0512639Y0291570D01*
X0512639Y0290571D02*
X0513792Y0290571D01*
X0513792Y0289573D02*
X0512639Y0289573D01*
X0512639Y0288574D02*
X0513792Y0288574D01*
X0513792Y0287576D02*
X0512639Y0287576D01*
X0512639Y0286577D02*
X0513792Y0286577D01*
X0513792Y0285579D02*
X0512639Y0285579D01*
X0512639Y0284580D02*
X0513792Y0284580D01*
X0513792Y0283582D02*
X0512639Y0283582D01*
X0512639Y0282583D02*
X0513792Y0282583D01*
X0513792Y0281585D02*
X0512639Y0281585D01*
X0512271Y0280586D02*
X0513354Y0280586D01*
X0479871Y0279926D02*
X0479230Y0281475D01*
X0479230Y0304525D01*
X0479800Y0305902D01*
X0474404Y0305902D01*
X0474844Y0304840D01*
X0474844Y0299113D01*
X0474159Y0297459D01*
X0472893Y0296193D01*
X0471239Y0295508D01*
X0470654Y0295508D01*
X0468646Y0294676D01*
X0468151Y0294676D01*
X0468151Y0294664D01*
X0467466Y0293010D01*
X0467456Y0293000D01*
X0467466Y0292990D01*
X0468151Y0291336D01*
X0468151Y0291324D01*
X0468646Y0291324D01*
X0470654Y0290492D01*
X0471239Y0290492D01*
X0472893Y0289807D01*
X0474159Y0288541D01*
X0474844Y0286887D01*
X0474844Y0281160D01*
X0474333Y0279926D01*
X0479871Y0279926D01*
X0479598Y0280586D02*
X0474606Y0280586D01*
X0474844Y0281585D02*
X0479230Y0281585D01*
X0479230Y0282583D02*
X0474844Y0282583D01*
X0474844Y0283582D02*
X0479230Y0283582D01*
X0479230Y0284580D02*
X0474844Y0284580D01*
X0474844Y0285579D02*
X0479230Y0285579D01*
X0479230Y0286577D02*
X0474844Y0286577D01*
X0474559Y0287576D02*
X0479230Y0287576D01*
X0479230Y0288574D02*
X0474126Y0288574D01*
X0473127Y0289573D02*
X0479230Y0289573D01*
X0479230Y0290571D02*
X0470463Y0290571D01*
X0468054Y0291570D02*
X0479230Y0291570D01*
X0479230Y0292568D02*
X0467641Y0292568D01*
X0467696Y0293567D02*
X0479230Y0293567D01*
X0479230Y0294565D02*
X0468110Y0294565D01*
X0471374Y0295564D02*
X0479230Y0295564D01*
X0479230Y0296562D02*
X0473262Y0296562D01*
X0474201Y0297561D02*
X0479230Y0297561D01*
X0479230Y0298559D02*
X0474615Y0298559D01*
X0474844Y0299558D02*
X0479230Y0299558D01*
X0479230Y0300556D02*
X0474844Y0300556D01*
X0474844Y0301555D02*
X0479230Y0301555D01*
X0479230Y0302553D02*
X0474844Y0302553D01*
X0474844Y0303552D02*
X0479230Y0303552D01*
X0479240Y0304550D02*
X0474844Y0304550D01*
X0474550Y0305549D02*
X0479654Y0305549D01*
X0483208Y0308130D02*
X0488709Y0308130D01*
X0488709Y0308231D01*
X0486009Y0310931D01*
X0483208Y0308130D01*
X0483622Y0308544D02*
X0488395Y0308544D01*
X0487397Y0309543D02*
X0484621Y0309543D01*
X0485619Y0310541D02*
X0486398Y0310541D01*
X0467663Y0309276D02*
X0466240Y0310700D01*
X0442885Y0310700D01*
X0445510Y0309613D01*
X0447704Y0307418D01*
X0448892Y0304552D01*
X0448892Y0301831D01*
X0452861Y0305800D01*
X0453568Y0305800D01*
X0453880Y0306111D01*
X0455933Y0308165D01*
X0458616Y0309276D01*
X0467663Y0309276D01*
X0467397Y0309543D02*
X0445580Y0309543D01*
X0446578Y0308544D02*
X0456849Y0308544D01*
X0455314Y0307546D02*
X0447577Y0307546D01*
X0448065Y0306547D02*
X0454316Y0306547D01*
X0452610Y0305549D02*
X0448479Y0305549D01*
X0448892Y0304550D02*
X0451611Y0304550D01*
X0450613Y0303552D02*
X0448892Y0303552D01*
X0448892Y0302553D02*
X0449614Y0302553D01*
X0448292Y0300000D02*
X0447704Y0298582D01*
X0445510Y0296387D01*
X0442885Y0295300D01*
X0448292Y0295300D01*
X0448292Y0300000D01*
X0448292Y0299558D02*
X0448109Y0299558D01*
X0448292Y0298559D02*
X0447682Y0298559D01*
X0448292Y0297561D02*
X0446684Y0297561D01*
X0445685Y0296562D02*
X0448292Y0296562D01*
X0448292Y0295564D02*
X0443522Y0295564D01*
X0426954Y0295564D02*
X0388660Y0295564D01*
X0387662Y0296562D02*
X0426541Y0296562D01*
X0426291Y0297561D02*
X0386663Y0297561D01*
X0385665Y0298559D02*
X0426291Y0298559D01*
X0426291Y0299558D02*
X0127733Y0299558D01*
X0128146Y0300556D02*
X0162685Y0300556D01*
X0160993Y0301555D02*
X0128545Y0301555D01*
X0128545Y0302553D02*
X0159994Y0302553D01*
X0159041Y0303552D02*
X0128545Y0303552D01*
X0128516Y0304550D02*
X0158627Y0304550D01*
X0158214Y0305549D02*
X0128103Y0305549D01*
X0127191Y0298559D02*
X0241519Y0298559D01*
X0240521Y0297561D02*
X0126192Y0297561D01*
X0125025Y0296562D02*
X0239522Y0296562D01*
X0238524Y0295564D02*
X0122614Y0295564D01*
X0119569Y0295564D02*
X0068555Y0295564D01*
X0069554Y0296562D02*
X0117159Y0296562D01*
X0115991Y0297561D02*
X0070552Y0297561D01*
X0071551Y0298559D02*
X0114993Y0298559D01*
X0114451Y0299558D02*
X0072549Y0299558D01*
X0073548Y0300556D02*
X0114037Y0300556D01*
X0113639Y0301555D02*
X0074546Y0301555D01*
X0075545Y0302553D02*
X0113639Y0302553D01*
X0113639Y0303552D02*
X0076543Y0303552D01*
X0077542Y0304550D02*
X0113667Y0304550D01*
X0114081Y0305549D02*
X0078540Y0305549D01*
X0065731Y0312539D02*
X0006092Y0312539D01*
X0006092Y0313537D02*
X0066729Y0313537D01*
X0067728Y0314536D02*
X0006092Y0314536D01*
X0006092Y0315534D02*
X0068726Y0315534D01*
X0069725Y0316533D02*
X0006092Y0316533D01*
X0006092Y0317531D02*
X0023438Y0317531D01*
X0024670Y0317201D02*
X0021924Y0317937D01*
X0019461Y0319358D01*
X0017450Y0321369D01*
X0016029Y0323832D01*
X0015293Y0326578D01*
X0015293Y0329422D01*
X0016029Y0332168D01*
X0017450Y0334631D01*
X0019461Y0336642D01*
X0021924Y0338063D01*
X0024670Y0338799D01*
X0027514Y0338799D01*
X0030260Y0338063D01*
X0032723Y0336642D01*
X0034733Y0334631D01*
X0036155Y0332168D01*
X0036891Y0329422D01*
X0036891Y0326578D01*
X0036155Y0323832D01*
X0034733Y0321369D01*
X0032723Y0319358D01*
X0030260Y0317937D01*
X0027514Y0317201D01*
X0024670Y0317201D01*
X0020897Y0318530D02*
X0006092Y0318530D01*
X0006092Y0319528D02*
X0019291Y0319528D01*
X0018293Y0320527D02*
X0006092Y0320527D01*
X0006092Y0321525D02*
X0017360Y0321525D01*
X0016784Y0322524D02*
X0006092Y0322524D01*
X0006092Y0323522D02*
X0016207Y0323522D01*
X0015844Y0324521D02*
X0006092Y0324521D01*
X0006092Y0325519D02*
X0015576Y0325519D01*
X0015309Y0326518D02*
X0006092Y0326518D01*
X0006092Y0327516D02*
X0015293Y0327516D01*
X0015293Y0328515D02*
X0006092Y0328515D01*
X0006092Y0329513D02*
X0015317Y0329513D01*
X0015585Y0330512D02*
X0006092Y0330512D01*
X0006092Y0331510D02*
X0015852Y0331510D01*
X0016225Y0332509D02*
X0006092Y0332509D01*
X0006092Y0333507D02*
X0016802Y0333507D01*
X0017378Y0334506D02*
X0006092Y0334506D01*
X0006092Y0335504D02*
X0018324Y0335504D01*
X0019322Y0336503D02*
X0006092Y0336503D01*
X0006092Y0337501D02*
X0020950Y0337501D01*
X0023553Y0338500D02*
X0006092Y0338500D01*
X0006092Y0339498D02*
X0409202Y0339498D01*
X0408204Y0338500D02*
X0028631Y0338500D01*
X0031234Y0337501D02*
X0407366Y0337501D01*
X0406952Y0336503D02*
X0032861Y0336503D01*
X0033860Y0335504D02*
X0406538Y0335504D01*
X0406291Y0334506D02*
X0034806Y0334506D01*
X0035382Y0333507D02*
X0406291Y0333507D01*
X0406291Y0332509D02*
X0035959Y0332509D01*
X0036331Y0331510D02*
X0406413Y0331510D01*
X0406791Y0330512D02*
X0036599Y0330512D01*
X0036867Y0329513D02*
X0406791Y0329513D01*
X0406791Y0328515D02*
X0383192Y0328515D01*
X0386009Y0327516D02*
X0406791Y0327516D01*
X0406791Y0326518D02*
X0387706Y0326518D01*
X0388705Y0325519D02*
X0406791Y0325519D01*
X0421391Y0325519D02*
X0466656Y0325519D01*
X0467654Y0326518D02*
X0421391Y0326518D01*
X0421391Y0327516D02*
X0468653Y0327516D01*
X0469651Y0328515D02*
X0421391Y0328515D01*
X0421391Y0329513D02*
X0470650Y0329513D01*
X0478295Y0330512D02*
X0421391Y0330512D01*
X0421769Y0331510D02*
X0479294Y0331510D01*
X0480292Y0332509D02*
X0421891Y0332509D01*
X0421891Y0333507D02*
X0481291Y0333507D01*
X0482289Y0334506D02*
X0421891Y0334506D01*
X0421644Y0335504D02*
X0483288Y0335504D01*
X0484286Y0336503D02*
X0421231Y0336503D01*
X0420817Y0337501D02*
X0485285Y0337501D01*
X0486283Y0338500D02*
X0419979Y0338500D01*
X0418980Y0339498D02*
X0487720Y0339498D01*
X0466398Y0310541D02*
X0443267Y0310541D01*
X0438916Y0310541D02*
X0388765Y0310541D01*
X0387767Y0309543D02*
X0432593Y0309543D01*
X0431097Y0308544D02*
X0386114Y0308544D01*
X0383418Y0307546D02*
X0430096Y0307546D01*
X0429444Y0306547D02*
X0214384Y0306547D01*
X0214426Y0307546D02*
X0308765Y0307546D01*
X0306069Y0308544D02*
X0214426Y0308544D01*
X0214426Y0309543D02*
X0304417Y0309543D01*
X0303418Y0310541D02*
X0214426Y0310541D01*
X0213970Y0305549D02*
X0429030Y0305549D01*
X0428614Y0304550D02*
X0213557Y0304550D01*
X0213143Y0303552D02*
X0427897Y0303552D01*
X0427238Y0302553D02*
X0212189Y0302553D01*
X0211191Y0301555D02*
X0426825Y0301555D01*
X0426411Y0300556D02*
X0209499Y0300556D01*
X0202085Y0300556D02*
X0170099Y0300556D01*
X0171791Y0301555D02*
X0200393Y0301555D01*
X0199394Y0302553D02*
X0172789Y0302553D01*
X0173743Y0303552D02*
X0198441Y0303552D01*
X0198027Y0304550D02*
X0174157Y0304550D01*
X0174570Y0305549D02*
X0197614Y0305549D01*
X0197200Y0306547D02*
X0174984Y0306547D01*
X0175026Y0307546D02*
X0197158Y0307546D01*
X0197158Y0308544D02*
X0175026Y0308544D01*
X0175026Y0309543D02*
X0197158Y0309543D01*
X0197158Y0310541D02*
X0175026Y0310541D01*
X0175026Y0311540D02*
X0197158Y0311540D01*
X0197158Y0312539D02*
X0175026Y0312539D01*
X0175026Y0313537D02*
X0197158Y0313537D01*
X0197158Y0314536D02*
X0175026Y0314536D01*
X0175026Y0315534D02*
X0197158Y0315534D01*
X0197158Y0316533D02*
X0175026Y0316533D01*
X0175026Y0317531D02*
X0197158Y0317531D01*
X0197232Y0318530D02*
X0174952Y0318530D01*
X0174538Y0319528D02*
X0197645Y0319528D01*
X0199472Y0322524D02*
X0172712Y0322524D01*
X0171714Y0323522D02*
X0200470Y0323522D01*
X0202271Y0324521D02*
X0169913Y0324521D01*
X0162871Y0324521D02*
X0036340Y0324521D01*
X0036607Y0325519D02*
X0303479Y0325519D01*
X0304477Y0326518D02*
X0036875Y0326518D01*
X0036891Y0327516D02*
X0306174Y0327516D01*
X0308992Y0328515D02*
X0036891Y0328515D01*
X0035976Y0323522D02*
X0161070Y0323522D01*
X0160072Y0322524D02*
X0035400Y0322524D01*
X0034823Y0321525D02*
X0159073Y0321525D01*
X0158659Y0320527D02*
X0033891Y0320527D01*
X0032892Y0319528D02*
X0073560Y0319528D01*
X0071722Y0318530D02*
X0031287Y0318530D01*
X0028746Y0317531D02*
X0070723Y0317531D01*
X0064732Y0311540D02*
X0006092Y0311540D01*
X0006092Y0310541D02*
X0063734Y0310541D01*
X0067557Y0294565D02*
X0192866Y0294565D01*
X0191335Y0293567D02*
X0133931Y0293567D01*
X0135854Y0292568D02*
X0190336Y0292568D01*
X0189669Y0291570D02*
X0136853Y0291570D01*
X0137765Y0290571D02*
X0188764Y0290571D01*
X0187765Y0289573D02*
X0138179Y0289573D01*
X0138592Y0288574D02*
X0186767Y0288574D01*
X0185768Y0287576D02*
X0138892Y0287576D01*
X0138892Y0286577D02*
X0184770Y0286577D01*
X0183771Y0285579D02*
X0138892Y0285579D01*
X0138892Y0284580D02*
X0182773Y0284580D01*
X0181774Y0283582D02*
X0138892Y0283582D01*
X0138892Y0282583D02*
X0180776Y0282583D01*
X0180000Y0281585D02*
X0138892Y0281585D01*
X0138892Y0280586D02*
X0179586Y0280586D01*
X0179173Y0279588D02*
X0138892Y0279588D01*
X0138892Y0278589D02*
X0179092Y0278589D01*
X0179092Y0277591D02*
X0138661Y0277591D01*
X0138247Y0276592D02*
X0179092Y0276592D01*
X0179092Y0275594D02*
X0138092Y0275594D01*
X0138092Y0274595D02*
X0179092Y0274595D01*
X0179092Y0273597D02*
X0138092Y0273597D01*
X0138092Y0272598D02*
X0179092Y0272598D01*
X0179092Y0271600D02*
X0138092Y0271600D01*
X0138092Y0270601D02*
X0179092Y0270601D01*
X0179092Y0269603D02*
X0138092Y0269603D01*
X0138092Y0268604D02*
X0179092Y0268604D01*
X0179092Y0267605D02*
X0138092Y0267605D01*
X0138092Y0266607D02*
X0179092Y0266607D01*
X0179092Y0265608D02*
X0169701Y0265608D01*
X0171626Y0264610D02*
X0179092Y0264610D01*
X0179092Y0263611D02*
X0172624Y0263611D01*
X0173623Y0262613D02*
X0179092Y0262613D01*
X0179092Y0261614D02*
X0174088Y0261614D01*
X0174502Y0260616D02*
X0179092Y0260616D01*
X0179092Y0259617D02*
X0174915Y0259617D01*
X0175026Y0258619D02*
X0179092Y0258619D01*
X0179092Y0257620D02*
X0175026Y0257620D01*
X0175026Y0256622D02*
X0179092Y0256622D01*
X0179092Y0255623D02*
X0175026Y0255623D01*
X0175026Y0254625D02*
X0179092Y0254625D01*
X0179092Y0253626D02*
X0175026Y0253626D01*
X0175026Y0252628D02*
X0179092Y0252628D01*
X0179092Y0251629D02*
X0175026Y0251629D01*
X0175026Y0250631D02*
X0179092Y0250631D01*
X0179092Y0249632D02*
X0175026Y0249632D01*
X0175026Y0248634D02*
X0179092Y0248634D01*
X0179092Y0247635D02*
X0175020Y0247635D01*
X0174607Y0246637D02*
X0179092Y0246637D01*
X0179092Y0245638D02*
X0174193Y0245638D01*
X0173779Y0244640D02*
X0179092Y0244640D01*
X0179092Y0243641D02*
X0172877Y0243641D01*
X0171879Y0242643D02*
X0179092Y0242643D01*
X0179092Y0241644D02*
X0170311Y0241644D01*
X0162473Y0241644D02*
X0138092Y0241644D01*
X0138092Y0240646D02*
X0179092Y0240646D01*
X0179092Y0239647D02*
X0138148Y0239647D01*
X0138562Y0238649D02*
X0179092Y0238649D01*
X0179092Y0237650D02*
X0138892Y0237650D01*
X0138892Y0236652D02*
X0179092Y0236652D01*
X0178846Y0235653D02*
X0138892Y0235653D01*
X0138892Y0234655D02*
X0177847Y0234655D01*
X0176848Y0233656D02*
X0138892Y0233656D01*
X0138892Y0232658D02*
X0175850Y0232658D01*
X0174851Y0231659D02*
X0138892Y0231659D01*
X0138892Y0230661D02*
X0173853Y0230661D01*
X0172854Y0229662D02*
X0138892Y0229662D01*
X0138892Y0228664D02*
X0171856Y0228664D01*
X0170857Y0227665D02*
X0138692Y0227665D01*
X0138278Y0226667D02*
X0169859Y0226667D01*
X0168860Y0225668D02*
X0137864Y0225668D01*
X0137092Y0224670D02*
X0167862Y0224670D01*
X0166863Y0223671D02*
X0136094Y0223671D01*
X0138092Y0242643D02*
X0160905Y0242643D01*
X0159907Y0243641D02*
X0138130Y0243641D01*
X0138178Y0244640D02*
X0159004Y0244640D01*
X0158591Y0245638D02*
X0138225Y0245638D01*
X0138092Y0260616D02*
X0158282Y0260616D01*
X0158695Y0261614D02*
X0138092Y0261614D01*
X0138092Y0262613D02*
X0159161Y0262613D01*
X0160159Y0263611D02*
X0138092Y0263611D01*
X0138092Y0264610D02*
X0161158Y0264610D01*
X0163083Y0265608D02*
X0138092Y0265608D01*
X0193092Y0265608D02*
X0202483Y0265608D01*
X0200558Y0264610D02*
X0193092Y0264610D01*
X0193092Y0263611D02*
X0199559Y0263611D01*
X0198561Y0262613D02*
X0193092Y0262613D01*
X0193092Y0261614D02*
X0198095Y0261614D01*
X0197682Y0260616D02*
X0193092Y0260616D01*
X0193092Y0259617D02*
X0197268Y0259617D01*
X0197158Y0258619D02*
X0193092Y0258619D01*
X0193092Y0257620D02*
X0197158Y0257620D01*
X0197158Y0256622D02*
X0193092Y0256622D01*
X0193092Y0255623D02*
X0197158Y0255623D01*
X0197158Y0254625D02*
X0193092Y0254625D01*
X0193092Y0253626D02*
X0197158Y0253626D01*
X0197158Y0252628D02*
X0193092Y0252628D01*
X0193092Y0251629D02*
X0197158Y0251629D01*
X0197158Y0250631D02*
X0193092Y0250631D01*
X0193092Y0249632D02*
X0197158Y0249632D01*
X0197158Y0248634D02*
X0193092Y0248634D01*
X0193092Y0247635D02*
X0197164Y0247635D01*
X0197577Y0246637D02*
X0193092Y0246637D01*
X0193092Y0245638D02*
X0197991Y0245638D01*
X0198404Y0244640D02*
X0193092Y0244640D01*
X0193092Y0243641D02*
X0199307Y0243641D01*
X0200305Y0242643D02*
X0193092Y0242643D01*
X0193092Y0241644D02*
X0201873Y0241644D01*
X0209711Y0241644D02*
X0252221Y0241644D01*
X0251125Y0242643D02*
X0211279Y0242643D01*
X0212277Y0243641D02*
X0250127Y0243641D01*
X0249128Y0244640D02*
X0213179Y0244640D01*
X0213593Y0245638D02*
X0248130Y0245638D01*
X0247131Y0246637D02*
X0244098Y0246637D01*
X0254632Y0240646D02*
X0193092Y0240646D01*
X0213488Y0261614D02*
X0235983Y0261614D01*
X0236400Y0262613D02*
X0213023Y0262613D01*
X0212024Y0263611D02*
X0236976Y0263611D01*
X0237570Y0264610D02*
X0211026Y0264610D01*
X0209101Y0265608D02*
X0238568Y0265608D01*
X0239600Y0266607D02*
X0193092Y0266607D01*
X0193092Y0267605D02*
X0241329Y0267605D01*
X0244325Y0268604D02*
X0193092Y0268604D01*
X0195582Y0277591D02*
X0241369Y0277591D01*
X0240371Y0278589D02*
X0196580Y0278589D01*
X0197579Y0279588D02*
X0239372Y0279588D01*
X0238374Y0280586D02*
X0198577Y0280586D01*
X0250665Y0298559D02*
X0306519Y0298559D01*
X0305521Y0297561D02*
X0251663Y0297561D01*
X0252662Y0296562D02*
X0304522Y0296562D01*
X0303524Y0295564D02*
X0253660Y0295564D01*
X0313418Y0307546D02*
X0378765Y0307546D01*
X0376069Y0308544D02*
X0316114Y0308544D01*
X0317767Y0309543D02*
X0374417Y0309543D01*
X0373418Y0310541D02*
X0318765Y0310541D01*
X0315665Y0298559D02*
X0376519Y0298559D01*
X0375521Y0297561D02*
X0316663Y0297561D01*
X0317662Y0296562D02*
X0374522Y0296562D01*
X0373524Y0295564D02*
X0318660Y0295564D01*
X0318705Y0325519D02*
X0373479Y0325519D01*
X0374477Y0326518D02*
X0317706Y0326518D01*
X0316009Y0327516D02*
X0376174Y0327516D01*
X0378992Y0328515D02*
X0313192Y0328515D01*
X0410947Y0340497D02*
X0006092Y0340497D01*
X0006092Y0341495D02*
X0541092Y0341495D01*
X0541092Y0340497D02*
X0417236Y0340497D01*
X0412296Y0280700D02*
X0409887Y0280700D01*
X0411092Y0280201D01*
X0412296Y0280700D01*
X0412021Y0280586D02*
X0410162Y0280586D01*
X0430159Y0280586D02*
X0452475Y0280586D01*
X0452361Y0280700D02*
X0430159Y0280700D01*
X0430159Y0279926D01*
X0453842Y0279926D01*
X0453568Y0280200D01*
X0452861Y0280200D01*
X0452361Y0280700D01*
X0522741Y0222326D02*
X0523151Y0221336D01*
X0523151Y0220371D01*
X0524488Y0220925D01*
X0524623Y0220925D01*
X0524623Y0221304D01*
X0523601Y0222326D01*
X0522741Y0222326D01*
X0523011Y0221674D02*
X0524253Y0221674D01*
X0523885Y0220675D02*
X0523151Y0220675D01*
X0517778Y0211807D02*
X0516092Y0210121D01*
X0514406Y0211807D01*
X0517778Y0211807D01*
X0517659Y0211689D02*
X0514524Y0211689D01*
X0515523Y0210690D02*
X0516661Y0210690D01*
X0368292Y0182732D02*
X0341355Y0182732D01*
X0340357Y0183731D02*
X0367866Y0183731D01*
X0366867Y0184729D02*
X0339358Y0184729D01*
X0337659Y0185728D02*
X0365869Y0185728D01*
X0364870Y0186726D02*
X0337659Y0186726D01*
X0337597Y0187725D02*
X0363872Y0187725D01*
X0362873Y0188723D02*
X0337659Y0188723D01*
X0337659Y0189722D02*
X0361875Y0189722D01*
X0361300Y0190720D02*
X0337659Y0190720D01*
X0337659Y0191719D02*
X0360886Y0191719D01*
X0349996Y0192717D02*
X0337600Y0192717D01*
X0337187Y0193716D02*
X0347881Y0193716D01*
X0346882Y0194714D02*
X0336490Y0194714D01*
X0335185Y0195713D02*
X0345884Y0195713D01*
X0344885Y0196711D02*
X0248430Y0196711D01*
X0249428Y0197710D02*
X0343887Y0197710D01*
X0342888Y0198708D02*
X0250427Y0198708D01*
X0299712Y0195713D02*
X0322471Y0195713D01*
X0321166Y0194714D02*
X0301017Y0194714D01*
X0301714Y0193716D02*
X0320469Y0193716D01*
X0320056Y0192717D02*
X0302128Y0192717D01*
X0302186Y0191719D02*
X0319997Y0191719D01*
X0342354Y0181734D02*
X0368292Y0181734D01*
X0312148Y0140795D02*
X0304092Y0140795D01*
X0304120Y0139796D02*
X0311150Y0139796D01*
X0310151Y0138798D02*
X0305118Y0138798D01*
X0306117Y0137799D02*
X0309153Y0137799D01*
X0308154Y0136801D02*
X0307115Y0136801D01*
X0294359Y0114833D02*
X0293938Y0114833D01*
X0293938Y0113835D02*
X0295358Y0113835D01*
X0296356Y0112836D02*
X0293938Y0112836D01*
X0293599Y0111838D02*
X0297355Y0111838D01*
X0298353Y0110839D02*
X0293090Y0110839D01*
X0292092Y0109841D02*
X0299352Y0109841D01*
X0300350Y0108842D02*
X0289410Y0108842D01*
X0288643Y0107844D02*
X0301349Y0107844D01*
X0302659Y0106845D02*
X0287875Y0106845D01*
X0277125Y0115832D02*
X0268392Y0115832D01*
X0268392Y0114833D02*
X0276358Y0114833D01*
X0275590Y0113835D02*
X0268392Y0113835D01*
X0268392Y0112836D02*
X0274823Y0112836D01*
X0274056Y0111838D02*
X0268392Y0111838D01*
X0268098Y0110839D02*
X0273288Y0110839D01*
X0272521Y0109841D02*
X0267685Y0109841D01*
X0267258Y0108842D02*
X0271610Y0108842D01*
X0270612Y0107844D02*
X0266259Y0107844D01*
X0324392Y0094863D02*
X0344369Y0094863D01*
X0342057Y0093865D02*
X0324392Y0093865D01*
X0324392Y0092866D02*
X0341058Y0092866D01*
X0340060Y0091868D02*
X0324392Y0091868D01*
X0324392Y0090869D02*
X0339061Y0090869D01*
X0338063Y0089870D02*
X0324392Y0089870D01*
X0323702Y0088872D02*
X0337064Y0088872D01*
X0336066Y0087873D02*
X0323092Y0087873D01*
X0323955Y0086875D02*
X0335067Y0086875D01*
X0334069Y0085876D02*
X0324392Y0085876D01*
X0324392Y0084878D02*
X0333070Y0084878D01*
X0332072Y0083879D02*
X0324392Y0083879D01*
X0324392Y0082881D02*
X0331073Y0082881D01*
X0330075Y0081882D02*
X0324392Y0081882D01*
X0324392Y0080884D02*
X0329076Y0080884D01*
X0328078Y0079885D02*
X0324392Y0079885D01*
X0323717Y0078887D02*
X0327079Y0078887D01*
X0326081Y0077888D02*
X0322718Y0077888D01*
X0321720Y0076890D02*
X0325082Y0076890D01*
X0324084Y0075891D02*
X0320721Y0075891D01*
X0319723Y0074893D02*
X0323085Y0074893D01*
X0338012Y0057918D02*
X0383792Y0057918D01*
X0383792Y0056920D02*
X0339741Y0056920D01*
X0340943Y0055921D02*
X0383792Y0055921D01*
X0383792Y0054923D02*
X0341942Y0054923D01*
X0342641Y0053924D02*
X0383792Y0053924D01*
X0383792Y0052926D02*
X0343218Y0052926D01*
X0343720Y0051927D02*
X0383792Y0051927D01*
X0383792Y0050929D02*
X0343987Y0050929D01*
X0344255Y0049930D02*
X0383792Y0049930D01*
X0383792Y0048932D02*
X0344391Y0048932D01*
X0344391Y0047933D02*
X0383792Y0047933D01*
X0383792Y0046934D02*
X0344391Y0046934D01*
X0344219Y0045936D02*
X0383204Y0045936D01*
X0382206Y0044937D02*
X0343951Y0044937D01*
X0343684Y0043939D02*
X0381207Y0043939D01*
X0380209Y0042940D02*
X0343141Y0042940D01*
X0342564Y0041942D02*
X0379210Y0041942D01*
X0378212Y0040943D02*
X0341808Y0040943D01*
X0340809Y0039945D02*
X0377213Y0039945D01*
X0376215Y0038946D02*
X0339509Y0038946D01*
X0337780Y0037948D02*
X0375216Y0037948D01*
X0374217Y0036949D02*
X0321779Y0036949D01*
X0320781Y0035951D02*
X0373219Y0035951D01*
X0372220Y0034952D02*
X0319782Y0034952D01*
X0322778Y0037948D02*
X0329404Y0037948D01*
X0327675Y0038946D02*
X0323776Y0038946D01*
X0324392Y0039945D02*
X0326375Y0039945D01*
X0325376Y0040943D02*
X0324392Y0040943D01*
X0324392Y0041942D02*
X0324620Y0041942D01*
X0288792Y0041942D02*
X0283938Y0041942D01*
X0283938Y0042940D02*
X0288792Y0042940D01*
X0288792Y0043939D02*
X0283938Y0043939D01*
X0283938Y0044368D02*
X0283938Y0035670D01*
X0288792Y0040524D01*
X0288792Y0044486D01*
X0288092Y0045186D01*
X0288092Y0051000D01*
X0283676Y0051000D01*
X0283253Y0049979D01*
X0281987Y0048713D01*
X0280333Y0048028D01*
X0271850Y0048028D01*
X0271529Y0048161D01*
X0271529Y0047839D01*
X0271850Y0047972D01*
X0280333Y0047972D01*
X0281987Y0047287D01*
X0283253Y0046021D01*
X0283938Y0044368D01*
X0283702Y0044937D02*
X0288341Y0044937D01*
X0288092Y0045936D02*
X0283289Y0045936D01*
X0282340Y0046934D02*
X0288092Y0046934D01*
X0288092Y0047933D02*
X0280429Y0047933D01*
X0282206Y0048932D02*
X0288092Y0048932D01*
X0288092Y0049930D02*
X0283205Y0049930D01*
X0283647Y0050929D02*
X0288092Y0050929D01*
X0271755Y0047933D02*
X0271529Y0047933D01*
X0283938Y0040943D02*
X0288792Y0040943D01*
X0288213Y0039945D02*
X0283938Y0039945D01*
X0283938Y0038946D02*
X0287215Y0038946D01*
X0286216Y0037948D02*
X0283938Y0037948D01*
X0283938Y0036949D02*
X0285217Y0036949D01*
X0284219Y0035951D02*
X0283938Y0035951D01*
X0280154Y0031886D02*
X0277241Y0031886D01*
X0270655Y0025300D01*
X0273568Y0025300D01*
X0273592Y0025324D01*
X0273592Y0026314D01*
X0278278Y0031000D01*
X0279268Y0031000D01*
X0280154Y0031886D01*
X0278236Y0030958D02*
X0276313Y0030958D01*
X0277238Y0029960D02*
X0275315Y0029960D01*
X0276239Y0028961D02*
X0274316Y0028961D01*
X0275241Y0027963D02*
X0273318Y0027963D01*
X0274242Y0026964D02*
X0272319Y0026964D01*
X0271321Y0025966D02*
X0273592Y0025966D01*
X0283898Y0014982D02*
X0394175Y0014982D01*
X0394175Y0013984D02*
X0282899Y0013984D01*
X0281901Y0012985D02*
X0394318Y0012985D01*
X0395316Y0011987D02*
X0280902Y0011987D01*
X0278739Y0010988D02*
X0396315Y0010988D01*
X0397313Y0009990D02*
X0006092Y0009990D01*
X0006092Y0008991D02*
X0398312Y0008991D01*
X0399310Y0007993D02*
X0006092Y0007993D01*
X0006092Y0006994D02*
X0400309Y0006994D01*
X0412041Y0006994D02*
X0420309Y0006994D01*
X0419310Y0007993D02*
X0413040Y0007993D01*
X0414038Y0008991D02*
X0418312Y0008991D01*
X0417313Y0009990D02*
X0415037Y0009990D01*
X0416035Y0010988D02*
X0416315Y0010988D01*
X0416175Y0025069D02*
X0421204Y0030098D01*
X0431145Y0030098D01*
X0433482Y0027762D01*
X0433738Y0028381D01*
X0436057Y0030700D01*
X0419116Y0030700D01*
X0414830Y0026414D01*
X0416175Y0025069D01*
X0417072Y0025966D02*
X0415278Y0025966D01*
X0415380Y0026964D02*
X0418070Y0026964D01*
X0419069Y0027963D02*
X0416378Y0027963D01*
X0417377Y0028961D02*
X0420067Y0028961D01*
X0421066Y0029960D02*
X0418375Y0029960D01*
X0431284Y0029960D02*
X0435317Y0029960D01*
X0434318Y0028961D02*
X0432283Y0028961D01*
X0433281Y0027963D02*
X0433565Y0027963D01*
X0238689Y0050929D02*
X0238392Y0050929D01*
X0223792Y0050929D02*
X0214344Y0050929D01*
X0215343Y0051927D02*
X0223792Y0051927D01*
X0223792Y0052926D02*
X0216341Y0052926D01*
X0217340Y0053924D02*
X0223792Y0053924D01*
X0223792Y0054923D02*
X0218338Y0054923D01*
X0219337Y0055921D02*
X0223792Y0055921D01*
X0223792Y0056920D02*
X0220335Y0056920D01*
X0221334Y0057918D02*
X0223792Y0057918D01*
X0223792Y0058917D02*
X0222332Y0058917D01*
X0223331Y0059915D02*
X0223792Y0059915D01*
X0223792Y0049930D02*
X0213346Y0049930D01*
X0212347Y0048932D02*
X0223792Y0048932D01*
X0223792Y0047933D02*
X0211349Y0047933D01*
X0210350Y0046934D02*
X0223792Y0046934D01*
X0223792Y0045936D02*
X0209352Y0045936D01*
X0208353Y0044937D02*
X0223792Y0044937D01*
X0223792Y0043939D02*
X0207355Y0043939D01*
X0206356Y0042940D02*
X0223792Y0042940D01*
X0223792Y0041942D02*
X0205358Y0041942D01*
X0203132Y0040943D02*
X0223792Y0040943D01*
X0226804Y0026964D02*
X0212451Y0026964D01*
X0214440Y0025966D02*
X0227802Y0025966D01*
X0200686Y0057918D02*
X0151497Y0057918D01*
X0152496Y0056920D02*
X0156576Y0056920D01*
X0155578Y0055921D02*
X0153495Y0055921D01*
X0156889Y0158768D02*
X0148392Y0158768D01*
X0148392Y0159766D02*
X0155891Y0159766D01*
X0154892Y0160765D02*
X0148392Y0160765D01*
X0148392Y0161763D02*
X0153894Y0161763D01*
X0152895Y0162762D02*
X0148392Y0162762D01*
X0148392Y0163760D02*
X0151897Y0163760D01*
X0151592Y0164759D02*
X0148392Y0164759D01*
X0148392Y0165757D02*
X0151592Y0165757D01*
X0151592Y0166756D02*
X0148392Y0166756D01*
X0148392Y0167754D02*
X0151592Y0167754D01*
X0151592Y0168753D02*
X0148392Y0168753D01*
X0148392Y0169751D02*
X0151592Y0169751D01*
X0151592Y0170750D02*
X0149166Y0170750D01*
X0150164Y0171748D02*
X0151592Y0171748D01*
X0151163Y0172747D02*
X0152404Y0172747D01*
X0152161Y0173745D02*
X0153402Y0173745D01*
X0153160Y0174744D02*
X0154401Y0174744D01*
X0154158Y0175742D02*
X0155399Y0175742D01*
X0155157Y0176741D02*
X0156398Y0176741D01*
X0073853Y0230661D02*
X0063892Y0230661D01*
X0063892Y0231659D02*
X0074851Y0231659D01*
X0075850Y0232658D02*
X0063892Y0232658D01*
X0063892Y0233656D02*
X0076848Y0233656D01*
X0077847Y0234655D02*
X0063892Y0234655D01*
X0063892Y0235653D02*
X0078846Y0235653D01*
X0079844Y0236652D02*
X0063892Y0236652D01*
X0063892Y0237650D02*
X0080843Y0237650D01*
X0081841Y0238649D02*
X0063562Y0238649D01*
X0063148Y0239647D02*
X0082840Y0239647D01*
X0083838Y0240646D02*
X0063092Y0240646D01*
X0063092Y0241644D02*
X0084837Y0241644D01*
X0085835Y0242643D02*
X0063092Y0242643D01*
X0063892Y0229662D02*
X0072854Y0229662D01*
X0071856Y0228664D02*
X0063892Y0228664D01*
X0063692Y0227665D02*
X0070857Y0227665D01*
X0069859Y0226667D02*
X0063278Y0226667D01*
X0062864Y0225668D02*
X0068860Y0225668D01*
X0067862Y0224670D02*
X0062092Y0224670D01*
X0061094Y0223671D02*
X0066863Y0223671D01*
X0065865Y0222672D02*
X0059508Y0222672D01*
X0006092Y0342494D02*
X0541092Y0342494D01*
M02*
