G75*
%MOIN*%
%OFA0B0*%
%FSLAX25Y25*%
%IPPOS*%
%LPD*%
%AMOC8*
5,1,8,0,0,1.08239X$1,22.5*
%
%ADD10C,0.10000*%
%ADD11C,0.18100*%
%ADD12OC8,0.18100*%
%ADD13OC8,0.07000*%
%ADD14R,0.06600X0.06600*%
%ADD15OC8,0.06600*%
%ADD16C,0.05150*%
%ADD17C,0.05937*%
%ADD18OC8,0.07600*%
%ADD19OC8,0.10000*%
%ADD20C,0.06600*%
%ADD21OC8,0.15000*%
%ADD22C,0.06600*%
%ADD23C,0.08268*%
%ADD24OC8,0.12400*%
%ADD25C,0.12400*%
%ADD26R,0.05906X0.05906*%
%ADD27C,0.05600*%
D10*
X0060322Y0013000D02*
X0060322Y0023000D01*
X0064622Y0068000D02*
X0064622Y0078000D01*
X0084622Y0078000D02*
X0084622Y0068000D01*
X0104622Y0068000D02*
X0104622Y0078000D01*
X0124622Y0078000D02*
X0124622Y0068000D01*
X0148922Y0023000D02*
X0148922Y0013000D01*
D11*
X0199622Y0088000D03*
D12*
X0199622Y0128000D03*
D13*
X0294622Y0137500D03*
X0379622Y0088000D03*
X0389622Y0093000D03*
X0389622Y0113000D03*
X0294622Y0048500D03*
X0309122Y0023000D03*
X0379622Y0018000D03*
X0220122Y0023000D03*
X0094622Y0093000D03*
X0069622Y0113000D03*
X0094622Y0163000D03*
X0069622Y0183000D03*
X0424622Y0198000D03*
X0464622Y0198000D03*
D14*
X0384622Y0148000D03*
X0214622Y0213000D03*
X0122122Y0190500D03*
X0099622Y0183000D03*
D15*
X0089622Y0183000D03*
X0122122Y0200500D03*
X0134622Y0288000D03*
X0134622Y0298000D03*
X0384622Y0193000D03*
X0394622Y0193000D03*
X0374622Y0148000D03*
X0084622Y0043000D03*
X0064622Y0043000D03*
D16*
X0234622Y0207850D02*
X0234622Y0213000D01*
X0244622Y0213000D02*
X0244622Y0207850D01*
X0244622Y0243000D02*
X0244622Y0248150D01*
X0234622Y0248150D02*
X0234622Y0243000D01*
D17*
X0326653Y0143000D02*
X0332590Y0143000D01*
X0332590Y0133000D02*
X0326653Y0133000D01*
X0326653Y0123000D02*
X0332590Y0123000D01*
X0332590Y0068000D02*
X0326653Y0068000D01*
X0326653Y0058000D02*
X0332590Y0058000D01*
X0332590Y0048000D02*
X0326653Y0048000D01*
D18*
X0274622Y0043000D03*
X0274622Y0083000D03*
X0274622Y0093000D03*
X0274622Y0133000D03*
D19*
X0429622Y0128000D03*
X0429622Y0148000D03*
X0429622Y0168000D03*
X0429622Y0108000D03*
X0429622Y0088000D03*
X0429622Y0068000D03*
X0429622Y0048000D03*
X0429622Y0028000D03*
X0549622Y0028000D03*
X0549622Y0048000D03*
X0549622Y0068000D03*
X0549622Y0088000D03*
X0549622Y0108000D03*
X0549622Y0128000D03*
X0549622Y0148000D03*
X0549622Y0168000D03*
D20*
X0214622Y0183000D03*
X0204622Y0183000D03*
X0194622Y0183000D03*
X0184622Y0183000D03*
X0174622Y0183000D03*
X0164622Y0183000D03*
X0154622Y0183000D03*
X0144622Y0183000D03*
X0144622Y0213000D03*
X0154622Y0213000D03*
X0164622Y0213000D03*
X0174622Y0213000D03*
X0184622Y0213000D03*
X0194622Y0213000D03*
X0204622Y0213000D03*
X0149622Y0263000D03*
X0156622Y0298716D03*
X0149622Y0303000D03*
X0176622Y0333357D03*
D21*
X0114705Y0317902D03*
X0094705Y0317902D03*
X0279705Y0247902D03*
X0299705Y0247902D03*
X0184539Y0018098D03*
X0164539Y0018098D03*
D22*
X0459622Y0229700D02*
X0459622Y0236300D01*
X0479622Y0236300D02*
X0479622Y0229700D01*
X0534622Y0229700D02*
X0534622Y0236300D01*
X0554622Y0236300D02*
X0554622Y0229700D01*
X0554622Y0279700D02*
X0554622Y0286300D01*
X0534622Y0286300D02*
X0534622Y0279700D01*
X0479622Y0279700D02*
X0479622Y0286300D01*
X0459622Y0286300D02*
X0459622Y0279700D01*
D23*
X0424322Y0257634D02*
X0424322Y0249366D01*
X0384922Y0249366D02*
X0384922Y0257634D01*
X0384922Y0308366D02*
X0384922Y0316634D01*
X0424322Y0316634D02*
X0424322Y0308366D01*
D24*
X0344622Y0288000D03*
X0279622Y0288000D03*
X0209622Y0288000D03*
D25*
X0209622Y0318000D03*
X0279622Y0318000D03*
X0344622Y0258000D03*
D26*
X0342122Y0095500D03*
X0369622Y0095500D03*
D27*
X0342122Y0095500D01*
M02*
